<?xml version="1.0" encoding="utf-8"?>
<!-- Generator: Adobe Illustrator 26.0.1, SVG Export Plug-In . SVG Version: 6.00 Build 0)  -->
<svg version="1.1" id="Layer_1" xmlns="http://www.w3.org/2000/svg" xmlns:xlink="http://www.w3.org/1999/xlink" x="0px" y="0px"
	 viewBox="0 0 202 120" style="enable-background:new 0 0 202 120;" xml:space="preserve">
<style type="text/css">
	.st0{fill:#F94F00;}
	.st1{fill-rule:evenodd;clip-rule:evenodd;fill:#F94F00;}
</style>
<g>
	<path class="st0" d="M179.9,74.7h-0.2c-0.8,0-1.4,0.2-1.8,0.5c-0.4,0.3-0.6,0.8-0.6,1.4c0,0.3,0.1,0.6,0.2,0.8
		c0.1,0.2,0.3,0.3,0.6,0.3c0.5,0,0.8-0.2,1.1-0.7C179.6,76.4,179.8,75.7,179.9,74.7 M179.3,78.2c-0.3,0.4-0.6,0.6-1,0.8
		c-0.4,0.2-0.7,0.2-1.2,0.2c-0.7,0-1.2-0.2-1.7-0.6c-0.4-0.4-0.6-1-0.6-1.6c0-1.3,0.4-2.2,1.1-2.8s1.9-0.9,3.5-0.9
		c0.2,0,0.4,0,0.5,0c0.1,0,0.2,0,0.4,0c0-0.3,0.1-0.5,0.1-0.7c0-0.2,0-0.3,0-0.4c0-0.3-0.1-0.5-0.2-0.7c-0.2-0.2-0.4-0.2-0.7-0.2
		c-0.3,0-0.5,0.1-0.7,0.3c-0.2,0.2-0.3,0.5-0.4,0.9h-2.5c0.1-0.9,0.4-1.6,1-2c0.6-0.4,1.4-0.6,2.5-0.6c1.2,0,2,0.2,2.6,0.6
		c0.5,0.4,0.8,1,0.8,1.8c0,0.2,0,0.4,0,0.7c0,0.3-0.1,0.5-0.2,0.8l-0.7,3.5c-0.1,0.3-0.1,0.6-0.2,0.9c0,0.3-0.1,0.6-0.1,0.9h-2.4
		L179.3,78.2z M170.9,78.2c-0.2,0.4-0.5,0.6-0.9,0.8c-0.3,0.2-0.7,0.2-1.2,0.2c-0.8,0-1.3-0.2-1.7-0.6c-0.4-0.4-0.6-1-0.6-1.8
		c0-0.3,0-0.7,0.1-1.2c0.1-0.5,0.2-1,0.3-1.6c0.1-0.6,0.3-1.1,0.4-1.6c0.2-0.5,0.3-0.8,0.5-1.1c0.3-0.5,0.7-0.9,1.1-1.2
		s0.9-0.4,1.4-0.4c0.5,0,0.9,0.1,1.2,0.3c0.3,0.2,0.6,0.5,0.9,0.9l1.1-4.9h2.5l-2.5,11.5c0,0.2-0.1,0.4-0.1,0.6
		c0,0.2-0.1,0.5-0.1,0.8h-2.6L170.9,78.2z M171.1,71.6c-0.3,0-0.5,0.1-0.7,0.2s-0.3,0.5-0.5,0.9c-0.2,0.7-0.4,1.4-0.5,2.1
		c-0.1,0.7-0.2,1.3-0.2,1.7c0,0.3,0.1,0.6,0.2,0.7c0.1,0.2,0.4,0.2,0.6,0.2c0.2,0,0.4-0.1,0.6-0.2s0.4-0.4,0.5-0.7
		c0.1-0.2,0.2-0.5,0.2-0.8c0.1-0.3,0.2-0.7,0.3-1.2s0.2-0.9,0.2-1.2c0-0.3,0.1-0.6,0.1-0.8c0-0.4-0.1-0.6-0.2-0.8
		C171.6,71.7,171.4,71.6,171.1,71.6 M162.8,71.4c-0.3,0-0.5,0.1-0.7,0.2s-0.3,0.4-0.5,0.8c0,0.1-0.1,0.3-0.2,0.5
		c-0.1,0.2-0.1,0.5-0.2,0.8c0,0.2-0.1,0.4-0.2,0.7c-0.3,1.2-0.4,1.9-0.4,2.2c0,0.4,0.1,0.6,0.2,0.8c0.2,0.2,0.4,0.3,0.7,0.3
		c0.3,0,0.5-0.1,0.7-0.2c0.2-0.2,0.4-0.4,0.5-0.8c0.1-0.2,0.2-0.5,0.2-0.9s0.2-0.8,0.3-1.3c0.1-0.5,0.2-0.9,0.2-1.2
		c0-0.4,0.1-0.6,0.1-0.9c0-0.4-0.1-0.6-0.2-0.8C163.3,71.5,163.1,71.4,162.8,71.4 M158.3,76.3c0-0.3,0-0.6,0.1-1
		c0-0.4,0.1-0.8,0.2-1.3c0.1-0.6,0.3-1.1,0.4-1.5c0.2-0.4,0.3-0.8,0.5-1c0.4-0.6,0.8-1,1.3-1.2s1.2-0.4,2-0.4c1.1,0,1.9,0.3,2.5,0.8
		s0.9,1.3,0.9,2.2c0,0.3,0,0.6-0.1,1c0,0.4-0.1,0.8-0.2,1.2c-0.1,0.6-0.3,1.1-0.4,1.5c-0.2,0.4-0.3,0.8-0.5,1.1
		c-0.4,0.6-0.8,1-1.3,1.2c-0.5,0.3-1.2,0.4-2,0.4c-1.1,0-1.9-0.3-2.5-0.8C158.6,78,158.3,77.3,158.3,76.3 M152.3,79.1l1.5-7
		c0.1-0.3,0.1-0.7,0.2-1s0.1-0.7,0.1-1h2.5l-0.2,1.3c0.3-0.5,0.6-0.8,1-1s0.8-0.3,1.4-0.3c0.1,0,0.2,0,0.2,0c0,0,0.1,0,0.1,0
		l-0.5,2.2c0,0,0,0,0,0c-0.3,0-0.5-0.1-0.6-0.1c-0.6,0-1.1,0.2-1.4,0.5c-0.3,0.4-0.6,0.9-0.8,1.8l-1,4.6H152.3L152.3,79.1z
		 M149.6,74.7h-0.2c-0.8,0-1.4,0.2-1.8,0.5c-0.4,0.3-0.6,0.8-0.6,1.4c0,0.3,0.1,0.6,0.2,0.8c0.1,0.2,0.3,0.3,0.6,0.3
		c0.5,0,0.8-0.2,1.1-0.7C149.2,76.4,149.4,75.7,149.6,74.7 M149,78.2c-0.3,0.4-0.6,0.6-1,0.8s-0.7,0.2-1.2,0.2
		c-0.7,0-1.2-0.2-1.7-0.6c-0.4-0.4-0.6-1-0.6-1.6c0-1.3,0.4-2.2,1.1-2.8c0.7-0.6,1.9-0.9,3.5-0.9c0.2,0,0.4,0,0.5,0s0.2,0,0.4,0
		c0-0.3,0.1-0.5,0.1-0.7c0-0.2,0-0.3,0-0.4c0-0.3-0.1-0.5-0.2-0.7c-0.2-0.2-0.4-0.2-0.7-0.2c-0.3,0-0.5,0.1-0.7,0.3
		c-0.2,0.2-0.3,0.5-0.4,0.9h-2.5c0.1-0.9,0.4-1.6,1-2c0.6-0.4,1.4-0.6,2.5-0.6c1.2,0,2,0.2,2.6,0.6c0.5,0.4,0.8,1,0.8,1.8
		c0,0.2,0,0.4,0,0.7c0,0.3-0.1,0.5-0.2,0.8l-0.7,3.5c-0.1,0.3-0.1,0.6-0.2,0.9c0,0.3-0.1,0.6-0.1,0.9h-2.4L149,78.2z M134.6,79.1
		l2.8-12.9h3.6c1.4,0,2.5,0.2,3.1,0.7c0.6,0.4,0.9,1.1,0.9,2.1c0,1-0.3,1.8-0.8,2.4c-0.5,0.6-1.2,1-2.2,1.1c0.7,0.1,1.1,0.4,1.4,0.8
		c0.3,0.4,0.5,1,0.5,1.7s-0.1,1.4-0.4,1.9s-0.6,1-1.1,1.4c-0.4,0.3-0.9,0.5-1.5,0.6c-0.6,0.1-1.6,0.2-2.9,0.2H134.6z M137.7,77.1
		h1.2c0.9,0,1.5-0.2,1.9-0.5c0.4-0.4,0.6-0.9,0.6-1.7c0-0.5-0.2-0.9-0.4-1.1s-0.8-0.3-1.5-0.3h-0.9L137.7,77.1z M138.9,71.4h0.9
		c0.9,0,1.6-0.2,1.9-0.5s0.6-0.8,0.6-1.6c0-0.5-0.2-0.8-0.4-1c-0.3-0.2-0.8-0.3-1.5-0.3h-0.8L138.9,71.4z M127.2,79.1l1.6-7.4h-1.4
		l0.4-1.6h1.4l0.3-1.3c0.2-1,0.5-1.7,1-2.1c0.5-0.4,1.1-0.7,2-0.7c0.3,0,0.5,0,0.8,0s0.5,0,0.8,0.1l-0.4,1.7c-0.1,0-0.3,0-0.4-0.1
		s-0.2,0-0.2,0c-0.3,0-0.5,0.1-0.7,0.2c-0.2,0.2-0.3,0.4-0.4,0.8l-0.3,1.3h1.5l-0.3,1.6h-1.5l-1.6,7.4H127.2z M123.7,71.4
		c-0.3,0-0.5,0.1-0.7,0.2s-0.3,0.4-0.4,0.8c0,0.1-0.1,0.3-0.2,0.5s-0.1,0.5-0.2,0.8c0,0.2-0.1,0.4-0.2,0.7c-0.3,1.2-0.4,1.9-0.4,2.2
		c0,0.4,0.1,0.6,0.2,0.8c0.2,0.2,0.4,0.3,0.7,0.3c0.3,0,0.5-0.1,0.7-0.2c0.2-0.2,0.4-0.4,0.5-0.8c0.1-0.2,0.2-0.5,0.2-0.9
		s0.2-0.8,0.3-1.3c0.1-0.5,0.2-0.9,0.2-1.2c0.1-0.4,0.1-0.6,0.1-0.9c0-0.4-0.1-0.6-0.2-0.8C124.2,71.5,124,71.4,123.7,71.4
		 M119.3,76.3c0-0.3,0-0.6,0.1-1c0-0.4,0.1-0.8,0.2-1.3c0.1-0.6,0.3-1.1,0.4-1.5c0.2-0.4,0.3-0.8,0.5-1c0.4-0.6,0.8-1,1.3-1.2
		c0.5-0.3,1.2-0.4,1.9-0.4c1.1,0,1.9,0.3,2.5,0.8s0.8,1.3,0.8,2.2c0,0.3,0,0.6-0.1,1c0,0.4-0.1,0.8-0.2,1.2
		c-0.1,0.6-0.3,1.1-0.4,1.5s-0.3,0.8-0.5,1.1c-0.4,0.6-0.8,1-1.3,1.2c-0.5,0.3-1.2,0.4-1.9,0.4c-1.1,0-1.9-0.3-2.5-0.8
		C119.6,78,119.3,77.3,119.3,76.3 M108,79.1l2.8-12.9h2.6l-1.6,7.2l2.9-3.3h2.8l-3.4,4l1.8,5h-2.7l-1.6-5.1l-1.1,5.1L108,79.1
		L108,79.1z M99.6,79.1l1.6-7.4c0.1-0.4,0.2-0.7,0.2-0.9c0-0.3,0.1-0.5,0.1-0.7h2.5l-0.2,1c0.3-0.4,0.6-0.7,1-0.9s0.8-0.3,1.4-0.3
		c0.7,0,1.2,0.2,1.5,0.5c0.4,0.3,0.5,0.8,0.5,1.4c0,0.2,0,0.4,0,0.6c0,0.2,0,0.4-0.1,0.6l-1.3,6.1h-2.6l1.3-6.2
		c0-0.2,0.1-0.3,0.1-0.4s0-0.2,0-0.2c0-0.2-0.1-0.4-0.2-0.5s-0.3-0.2-0.5-0.2c-0.3,0-0.6,0.2-0.9,0.5s-0.5,0.8-0.6,1.4l-1.2,5.6
		L99.6,79.1L99.6,79.1z M96.8,74.7h-0.2c-0.8,0-1.4,0.2-1.8,0.5c-0.4,0.3-0.6,0.8-0.6,1.4c0,0.3,0.1,0.6,0.2,0.8
		c0.1,0.2,0.4,0.3,0.6,0.3c0.5,0,0.9-0.2,1.2-0.7C96.4,76.4,96.7,75.7,96.8,74.7 M96.2,78.2c-0.3,0.4-0.6,0.6-1,0.8
		c-0.4,0.2-0.8,0.2-1.2,0.2c-0.7,0-1.3-0.2-1.7-0.6c-0.4-0.4-0.7-1-0.7-1.6c0-1.3,0.4-2.2,1.1-2.8c0.7-0.6,1.9-0.9,3.5-0.9
		c0.2,0,0.4,0,0.5,0s0.2,0,0.4,0c0.1-0.3,0.1-0.5,0.1-0.7s0-0.3,0-0.4c0-0.3-0.1-0.5-0.2-0.7s-0.4-0.2-0.7-0.2
		c-0.3,0-0.5,0.1-0.7,0.3s-0.3,0.5-0.4,0.9h-2.5c0.1-0.9,0.5-1.6,1-2c0.6-0.4,1.4-0.6,2.6-0.6c1.2,0,2,0.2,2.6,0.6
		c0.5,0.4,0.8,1,0.8,1.8c0,0.2,0,0.4,0,0.7c0,0.3-0.1,0.5-0.2,0.8l-0.7,3.5c-0.1,0.3-0.1,0.6-0.2,0.9c0,0.3-0.1,0.6-0.1,0.9h-2.4
		L96.2,78.2z M81.6,79.1l2.8-12.9h3.7c1.5,0,2.5,0.2,3.2,0.7c0.6,0.4,1,1.1,1,2.1c0,1-0.3,1.8-0.8,2.4s-1.2,1-2.2,1.1
		c0.7,0.1,1.2,0.4,1.5,0.8c0.3,0.4,0.5,1,0.5,1.7s-0.1,1.4-0.4,1.9s-0.6,1-1.1,1.4c-0.4,0.3-0.9,0.5-1.5,0.6c-0.6,0.1-1.6,0.2-3,0.2
		H81.6z M84.8,77.1H86c0.9,0,1.5-0.2,1.9-0.5c0.4-0.4,0.6-0.9,0.6-1.7c0-0.5-0.2-0.9-0.4-1.1c-0.3-0.2-0.8-0.3-1.5-0.3h-0.9
		L84.8,77.1z M86,71.4H87c0.9,0,1.6-0.2,2-0.5c0.4-0.3,0.6-0.8,0.6-1.6c0-0.5-0.2-0.8-0.4-1c-0.3-0.2-0.8-0.3-1.5-0.3h-0.8L86,71.4z
		"/>
	<path class="st1" d="M151.9,59.4h2.1l-0.4,1.9h-2.1L151.9,59.4z M146,55c-0.4,0.5-0.9,0.9-1.3,0.9h-0.1c-0.7,0-1-0.7-0.8-1.6
		l0.4-1.5L146,55L146,55z M145.9,51.1h0.1c0.7,0,1,0.7,0.8,1.6l-0.3,1.2l-1.8-2.1C145,51.4,145.5,51.1,145.9,51.1 M142.6,47.5h16.4
		l-1.8-2.4l1.6-1.3l2.2,3.7h0.6l-1.6-4.4l2.1-0.9l1.2,5.4h15.3l-0.2,1.1h-1.4l-2.6,9.9h-2.2l2.6-9.9h-1.9l-0.9,2.5
		c-0.9,0-2.3-0.2-3.2,0c-0.8,0.2-0.9,0.5-1.2,1.2c-0.5,1.4-0.8,2.7-1.1,4.1c0.1,0.9,0.6,1.1,1.5,1.1c-0.1-0.9,0.1-2.2,1.2-2.7
		c0.7-0.4,2-0.4,2.3,0.5c0.4,1.2-0.9,2.4-1.8,2.5c0.2,0.7,0.8,0.8,1.6,1.1l-2.3,1.3c-0.5-0.6-0.9-1.3-0.9-2c-0.8,0.4-2.3,0.4-3.1,0
		c-0.2-0.1-0.4-0.2-0.6-0.5c-0.4-0.5-0.5-1.2-0.4-2c0.1-0.8,0.2-1.6,0.5-2.4c0.3-0.9,0.6-1.6,1.4-2.3c1.2-1.1,2.4-1,4.2-0.9l0.4-1.5
		h-6.5l-2.6,9.9h-2.2l2.6-9.9h-1.8l-1,3.4l-2.2,0.1l-0.2-0.8c-0.4-0.2-1.1-0.3-1.6-0.2c-0.6,0.1-0.7,0.5-0.9,1
		c-0.2,0.5-0.2,1.1,0.2,1.3c0.7,0.3,1.9,0.1,2.6,0.1c0.9,0,1.5,0.3,1.4,1.2c-0.1,0.9-0.4,1.7-0.8,2.5c-0.2,0.5-0.5,0.9-0.9,1
		c-0.9,0.4-2.6,0.3-3.7,0.3c-0.5,0-1.1,0-1.6-0.1c-0.2,0-0.4-0.1-0.6-0.2c-0.2-0.1-0.3-0.3-0.5-0.5c-0.3-0.5-0.2-0.8-0.1-1.3
		l0.2-0.9l2.6,0c-0.3,0.7-0.4,1.1-0.2,1.4c0.4,0.5,1.7,0.3,2.1,0l0.5-1.7c0.1-0.4-0.1-0.6-0.5-0.7c-0.5-0.1-1-0.1-1.5-0.1
		c-0.5,0-1.2,0.1-1.7-0.2c-0.8-0.5-0.6-1.8-0.3-2.7c0.2-0.7,0.5-1.1,1.2-1.4c1.5-0.7,3.8-0.5,4.3,0.4l0.5-2h-7l-2.5,10h-2.2l0.6-2.3
		c-0.6,0.6-1.5,1-2.4,1h-0.2c-1.4,0-2.3-1.1-2-2.5l0.6-2.4c0.3-1.4,1.8-2.5,3.2-2.5h0.2c0.9,0,1.6,0.5,1.9,1.2l0.6-2.5h-5.6
		L142.6,47.5z M118.4,44l2.2,0c-0.1,0.3-0.2,0.9,0,1.1c0.3,0.4,1.5,0.4,1.9-0.1c0.2-0.2,0.4-0.7,0.4-1l2.4,0c-0.2,1.1-0.6,2-1.6,2.2
		c-1.2,0.3-3.5,0.2-4.7,0C117.8,45.9,118.2,44.9,118.4,44 M124.2,57.6h2.1l-0.4,1.9h-2.1L124.2,57.6z M130.2,48.6h-1.9l-1.2,4.9
		c-0.5,1.8,0.5,1.9,1.6,0.9L130.2,48.6z M116.5,47.5h20.7l-0.2,1.1h-4.3l-0.6,2.4c2-1.2,3.4-0.9,3.8,0c0.3,0.6,0.1,1.2-0.1,1.8
		l-1.2,4.6h-2.4l1.1-4.5c0.5-1.8-0.5-1.9-1.6-0.9l-1.6,6.4l-2.5,0.1l0.8-3.1c-2,1.2-3.4,0.9-3.9,0c-0.3-0.6-0.1-1.2,0.1-1.8l1.3-5
		h-1.9l-2.6,9.9h-2.2l2.6-9.9h-1.9l-2.6,9.9h-2.2l1.4-5.1h-2l0.4-1.4h2l0.9-3.4h-1.5L116.5,47.5z M112.7,52.7c1.3,0.1,2,1.3,1.5,2.7
		l-0.1,0.4c-0.5,1.5-2,2.7-3.5,2.7h-4.6l0.4-1.3h3.2c0.9,0,1.8-0.8,2-1.7l0-0.2c0.2-0.9-0.3-1.7-1.2-1.7h-2.6l0.2-0.7L112.7,52.7z
		 M112.7,52.7L112.7,52.7L112.7,52.7L112.7,52.7L112.7,52.7L112.7,52.7L112.7,52.7L112.7,52.7c-0.1,0-0.1,0-0.1,0
		C112.6,52.7,112.7,52.7,112.7,52.7L112.7,52.7z M112.8,52.7c1.3-0.2,2.4-1.2,2.6-2.5l0-0.4c0.2-1.4-0.9-2.5-2.3-2.5H109l-0.3,1.3
		h2.8c0.9,0,1.4,0.7,1.3,1.6l0,0.2c-0.2,0.9-1,1.6-1.9,1.6h-2.5l-0.2,0.7L112.8,52.7z M94.6,51.3L94.6,51.3c0.5,0.1,0.7,0.5,0.6,0.9
		l-0.9,3.2c-0.1,0.4-0.6,0.6-1,0.5c-0.5-0.1-0.7-0.5-0.6-0.9l0.9-3.2C93.6,51.4,94.1,51.2,94.6,51.3 M91,44.8h2.1l-0.4,1.9h-2.1
		L91,44.8z M85.7,55c-0.4,0.5-0.9,0.9-1.3,0.9h-0.1c-0.7,0-1-0.7-0.8-1.6l0.4-1.5L85.7,55L85.7,55z M85.5,51.1h0.1
		c0.7,0,1,0.7,0.8,1.6l-0.3,1.2l-1.8-2.1C84.7,51.4,85.1,51.1,85.5,51.1 M82.2,47.5H86l-1.8-2.4l1.6-1.3l2.2,3.7h0.6l-1.6-4.4
		l2.1-0.9l1.2,5.4h13.3l-0.2,1.1h-4.6l-0.5,2.1c2.1-1.4,4.4-1,4.2,1.5c-0.1,0.9-0.4,2.1-0.8,3c-0.3,0.7-0.8,1.2-1.3,1.6
		c-0.9,0.5-1.6,0.4-2.5,0.2c-0.3,0-0.3,0-0.2-0.3l0.1-0.4c0-0.2,0-0.1,0.2-0.1c0.2,0,0.4,0,0.6-0.1c0.3-0.2,0.6-0.7,0.7-1.4
		c0.2-0.6,0.8-2.7,0.4-3.3c-0.2-0.3-0.6-0.3-1-0.1c-0.4,0.2-0.6,0.5-0.8,0.8l-1.6,6.4h-2.2l0.6-2.3c-0.6,0.6-1.3,1-2.1,1H92
		c-1.4,0-2.2-1.1-1.9-2.5l0.5-2.4c0.3-1.4,1.7-2.5,3-2.5h0.2c0.9,0,1.4,0.4,1.7,1.1l0.7-2.5h-6.4l-2.5,10h-2.3l0.6-2.3
		c-0.6,0.6-1.5,1-2.4,1h-0.2c-1.4,0-2.3-1.1-2-2.5l0.6-2.4c0.3-1.4,1.8-2.5,3.2-2.5H85c0.9,0,1.6,0.5,1.9,1.2l0.6-2.5H82L82.2,47.5z
		"/>
	<path class="st1" d="M57.4,46.7C57.2,48,57.2,48,57,48.9c-0.4,1.2-1,2.2-1.7,3.2c0,0-0.1,0-0.1,0.1c-2,2.3-4.4,3.7-7.3,4.7
		c-0.6,0.1-0.6,0.1-0.6,0.2v0.1c0.2,0.2,0.6,0.2,0.8,0.2c0.2,0.1,0.2,0.1,0.6,0.1c1.1,0.3,2.1,0.7,3,1.3c0.1,0.1,0.5,0.4,1.3,1.1
		c0.2,0.3,0.4,0.5,0.7,0.8c0.5,0.7,0.8,1.4,1.1,2.2c0.1,0.4,0.2,0.8,0.3,1.2c0,0.4,0,0.4,0,1.6c-0.1,0.5-0.2,1.1-0.3,1.6
		c-0.2,0.3-0.2,0.6-0.5,1.2c-0.6,1.1-1.2,2.2-2,3.2c-1,1.1-2.1,2-3.3,2.8c-0.2,0.1-0.5,0.2-0.6,0.4c-1.8,1-3.6,1.7-5.5,2.4
		c-1.2,0.2-2.4,0.5-3.6,0.6c-2.2,0.1-2.2,0.1-2.9,0.2c-2,0.1-9.6,0.4-9.7,0.4c-0.1-0.1-0.1-0.4,0-0.5c2-0.6,4.1-1.3,6.2-1.8
		c0.2-0.1,3.6-1.1,4-1.2c1.6-0.3,3.1-0.9,4.6-1.3c0.4-0.1,2.2-0.6,3.9-1.1c1.5-0.4,3.1-0.8,4.6-1.3c0.1-0.1,0.1-0.2,0.1-0.3
		c0,0-0.1-0.1-0.1-0.1c-0.1,0-2.1,0.5-11.3,2.7c0,0-0.1,0-0.1,0.1c-1.7,0.3-3.4,0.8-5.1,1.2c-0.1,0-0.3,0.1-0.4,0.1
		c-6.4,1.5-6.4,1.5-6.5,1.6h-0.2C26.1,76.2,26,76.2,26,76c0.5-0.3,0.5-0.3,1.7-1c0.3-0.1,3.2-1.8,3.5-1.9c2.3-1.4,4.7-2.7,7-4
		c1.9-1.1,3.9-2.2,5.9-3.3c0.1,0,0.1-0.1,0.2-0.2c1.5-0.8,2.9-1.6,4.4-2.4c0.7-0.3,1.4-0.7,2-1.1c0.1-0.2,0-0.4-0.2-0.4
		c-1.4,0.7-2.8,1.5-4.2,2.2c-0.2,0.1-0.2,0.1-0.4,0.2c-4,2.1-4,2.1-4.4,2.2c-0.5,0.3-1.7,0.9-1.8,1C38,68.1,36.3,69,34.5,70
		c-0.1,0-0.1,0-0.2,0c-0.9,0.6-2.1,1.1-3,1.6c-1.7,0.8-3.4,1.7-5.1,2.6c-0.2,0-1.5,0.9-1.3,0.1c0.6-0.5,1.2-1.1,1.8-1.7
		c0.2-0.2,0.6-0.6,0.7-0.6c0.6-0.7,1.4-1.5,2.1-2c0-0.1,0.1-0.1,0.2-0.2c1.5-1.4,3.1-2.9,4.6-4.4c4.4-4.2,8.8-8.4,13.2-12.5
		c0.1-0.2,0.3-0.4,0.5-0.5c2.7-2.6,2.9-2.8,6.1-5.8c0.2-0.2,0.2-0.2,0.3-0.3c0-0.5-0.3-0.3-0.6-0.1c-0.8,0.8-1.6,1.5-2.5,2.3
		c-0.3,0.4-0.9,0.7-1.2,1.2c-0.8,0.7-1.7,1.6-2.5,2.3c-0.6,0.6-1.4,1.3-2.1,1.8c-2.5,2.4-5.3,4.6-7.8,7.1c-1.2,1-2.3,2.2-3.5,3.2
		c-0.3,0.4-0.3,0.4-2.6,2.4c-0.1,0.1-0.2,0.1-0.2,0.2c-2.5,2.3-5,4.6-7.6,6.8c-0.3,0-0.4-0.1-0.3-0.4c3-4.4,6.1-8.9,9.1-13.3
		c1.2-1.8,2.4-3.7,3.7-5.5c0.9-1.4,1-1.5,1.3-1.9c2.3-3.5,4.8-7,7.1-10.5c0.3-0.3,0.2-0.5-0.2-0.4c-1.9,2.7-4,5.4-5.9,8.2
		c-0.3,0.4-0.9,1.3-7.5,10.5c-0.2,0.2-2.5,3.4-2.6,3.6c-2.1,2.9-4.2,5.9-6.3,8.8c-0.1,0.1-0.2,0.2-0.4,0.1v-0.3
		c1.5-4,3.2-8,4.8-11.9c2.4-6.1,4.9-12.3,7.3-18.4c0-0.1,0-0.1-0.1-0.2c-0.1,0-0.2,0-0.2,0.1c-1.9,4.2-3.8,8.4-5.7,12.7
		c-0.1,0.1-2.1,4.6-2.6,5.7c-0.2,0.6-0.4,1-0.7,1.6c-1.6,3.4-3.2,6.9-4.7,10.4c-0.2,0.1-0.4,0.1-0.6,0c0-0.2,0-0.2,0.8-3.1
		c0.1-0.2,0.3-1,0.4-1.2c0.1-0.3,0.1-0.5,0.9-3.4c0.4-1.5,0.8-2.9,1.2-4.4c0.1-0.3,3.8-13.8,3.8-14c0.1-0.4,0.2-0.9,0.4-1.3
		c0.5-1.9,1-3.6,1.4-5.1c0-0.1,0.1-0.1,0.2-0.2c6.7,0,13.3,0,20,0c2,0.1,4.1,0.5,6,1.3c0.2,0.2,0.2,0.2,0.7,0.4
		c0.4,0.3,0.9,0.7,1.2,1.1c0.2,0.3,0.4,0.6,0.6,0.9c0.1,0.3,0.2,0.6,0.4,0.9c0.1,0.5,0.2,0.9,0.3,1.4C57.4,45.9,57.4,46.3,57.4,46.7
		 M68.1,48.4c-0.1,0.9-0.3,1.8-0.5,2.7c-0.5,1.1-0.5,1.1-0.9,1.8c-0.6,1-1.4,1.8-2.3,2.5c-0.8,0.6-0.8,0.6-1.7,1.3
		c-1.1,0.6-2.3,1.1-3.4,1.7c-0.4,0.1-1,0.2-1.4,0.5c0,0.1,0,0.1,0,0.2c1.5,0.2,2.8,0.7,4,1.5c0.6,0.5,1.2,1,1.7,1.6
		c0.6,0.9,1.1,1.7,1.4,2.6c0.1,0.4,0.2,0.8,0.3,1.2c0.1,0.6,0.1,1.2,0.1,1.9c-0.2,1.8-0.9,3.4-1.8,4.9c-0.6,0.9-0.6,0.9-1.2,1.6
		c-1.1,1.1-2.3,2.3-3.7,3c-1,0.8-2.4,1.2-3.6,1.7c-0.7,0.2-1.5,0.5-2.3,0.7c-1.7,0.3-1.7,0.3-1.9,0.4c-1.3,0.1-1.3,0.1-1.6,0.2
		c-7.5,0.3-15.1,0.2-22.5,0.2c-0.1-0.2-0.1-0.4,0.1-0.5c3.6-0.2,7.2-0.3,10.8-0.4c0.7,0,1.5,0,2.1-0.1c2.4-0.1,4.7-0.2,7.1-0.6
		c0.2-0.1,0.8-0.2,1.7-0.4c4.7-1.5,8.9-4.5,10.9-9.1c0.1-0.4,0.1-0.4,0.3-0.7c0.1-0.5,0.2-1.1,0.3-1.6c0-1.3,0-1.3,0-1.8
		c-0.2-1.2-0.6-2.5-1.4-3.5c-0.3-0.4-0.6-0.7-1-1.1c-1.5-1.2-3-2-5-2.2c0-0.2,0-0.2,0.2-0.2c0.5-0.1,0.5-0.1,1.2-0.4
		c3.1-1.4,5.9-3.2,7.6-6.2c0.2-0.4,0.4-0.8,0.5-1.2c0.3-1,0.5-2,0.6-3.1c0-0.5-0.1-0.9-0.1-1.4c-0.1-0.3-0.2-0.6-0.3-0.9
		c-0.4-0.9-0.8-1.4-1.4-2.1c-1.1-0.9-2.3-1.5-3.6-1.8c0,0,0-0.1,0-0.1c0.7-0.1,1.6,0,2.3,0c0.3,0.1,0.3,0.1,1.5,0.2
		c0.4,0.1,0.8,0.2,1.2,0.3c1.3,0.4,2.5,0.8,3.6,1.6c0.3,0.3,0.6,0.6,0.9,0.9c0.3,0.4,0.5,0.8,0.8,1.2c0.1,0.4,0.3,0.8,0.4,1.2
		C67.9,47.1,68,47.8,68.1,48.4"/>
</g>
</svg>
