<?xml version="1.0" encoding="utf-8"?>
<!-- Generator: Adobe Illustrator 26.0.1, SVG Export Plug-In . SVG Version: 6.00 Build 0)  -->
<svg version="1.1" id="Layer_1" xmlns="http://www.w3.org/2000/svg" xmlns:xlink="http://www.w3.org/1999/xlink" x="0px" y="0px"
	 viewBox="0 0 202 120" style="enable-background:new 0 0 202 120;" xml:space="preserve">
<style type="text/css">
	.st0{fill:#FFFFFF;}
	.st1{fill:#0089CF;}
</style>
<g>
	<rect x="17.5" y="34.9" class="st0" width="167.1" height="39.1"/>
	<rect x="19.1" y="36.5" class="st1" width="36.1" height="36.1"/>
	<rect x="20" y="37.4" class="st0" width="34.3" height="34.3"/>
	<path class="st1" d="M48.2,45.7c2,2.4,3.1,5.5,3.1,8.8c0,3.4-1.2,6.4-3.1,8.8v-0.7c1.7-2.3,2.7-5.1,2.7-8.2c0-3.1-1-5.9-2.7-8.2
		V45.7L48.2,45.7z M48.2,59.5L48.2,59.5l0.2,0.1l0.5-0.3l-0.6-0.3V59.5L48.2,59.5z M48.2,58.3L48.2,58.3c0.4,0,1-0.4,1-1l-0.4,0
		c-0.2,0.4-0.4,0.6-0.7,0.5L48.2,58.3L48.2,58.3z M48.2,57L48.2,57L48.2,57l0.2,0.1l0.4-0.3c-0.5-0.8-0.5-1.4-0.1-1.5
		c0.4-0.1,0.6,0.5,0.6,1.1l0.4-0.3c-0.2-0.7-0.5-1.1-1-1.1c-0.1,0-0.2,0-0.3,0.1V57L48.2,57z M48.2,54.5L48.2,54.5h1.2l0.3-0.4h-1.4
		L48.2,54.5L48.2,54.5z M48.2,52.9L48.2,52.9h0.8l0.2-0.5l-1,0L48.2,52.9C48.2,52.9,48.2,52.9,48.2,52.9z M48.2,51.9L48.2,51.9h0.8
		l0.2-0.4h-1L48.2,51.9L48.2,51.9z M45.9,43.4V44c0.9,0.7,1.7,1.5,2.3,2.4v-0.7C47.5,44.9,46.7,44.1,45.9,43.4L45.9,43.4L45.9,43.4z
		 M48.2,63.4v-0.7c-0.7,0.9-1.5,1.7-2.3,2.5v0.5C46.7,65,47.5,64.2,48.2,63.4L48.2,63.4L48.2,63.4z M48.2,51.5h-0.7l-0.3,0.4h0.9
		L48.2,51.5L48.2,51.5L48.2,51.5z M48.2,52.5h-0.7l-0.3,0.4h1L48.2,52.5L48.2,52.5L48.2,52.5z M48.2,54.1h-0.6c0-0.1,0-0.3,0-0.4
		h-0.3c0.1,0.3,0.1,0.6,0.1,0.8c0,2-0.5,3.9-1.5,5.5v0.4c0.1-0.2,0.2-0.3,0.3-0.5c0.3-0.1,0.7-0.1,0.9,0.1c0.6,0.6,0.1,1.2-0.2,1.2
		c-0.4,0.1-0.4-0.4,0-0.7c-0.1-0.1-0.1-0.2-0.2-0.3c-0.6,0.4-0.7,1.1,0,1.3c0.4,0.2,1-0.2,1.1-0.7c0.3-1.1-0.8-1.4-1.4-1.3
		c0.2-0.2,0.3-0.5,0.4-0.7l1.5,0.6v-0.4l-1.3-0.6c0.3-0.8,0.6-1.6,0.7-2.5H48l0.1,0.4c-0.4,0.5-0.6,1-0.4,1.4
		c0.1,0.3,0.3,0.4,0.5,0.4v-0.4h-0.1c-0.3-0.2-0.2-0.5,0.1-0.9v-1.8c-0.2,0.1-0.3,0.3-0.3,0.5h-0.4c0-0.4,0.1-0.8,0.1-1.2h0.5V54.1
		L48.2,54.1L48.2,54.1z M45.9,64.2v-0.4h0.3v0.4H45.9L45.9,64.2L45.9,64.2z M45.9,62.5L45.9,62.5v-0.6c0.2,0,0.3,0.1,0.3,0.3
		C46.2,62.3,46,62.5,45.9,62.5L45.9,62.5z M45.9,57.6v-1.7c0-0.4,0.1-0.9,0.1-1.4c0-0.5-0.1-0.9-0.1-1.4v-1.7c0.4,1,0.5,2,0.5,3.1
		C46.4,55.6,46.2,56.6,45.9,57.6L45.9,57.6L45.9,57.6z M45.9,50.7L45.9,50.7v-0.4c0,0.3,0.4,0.4,0.9,0.4v0.2
		C46.4,51,46.1,50.9,45.9,50.7L45.9,50.7z M45.9,50.2L45.9,50.2v-1.1l1.1-1.9l-1.1,0.2v-0.3l2-0.4l-1.8,2.9
		C46,49.9,45.9,50,45.9,50.2L45.9,50.2z M45.9,45.3v-0.5c0.1,0,0.2-0.1,0.3-0.1L45.9,45.3L45.9,45.3L45.9,45.3z M42.7,41.5
		L42.7,41.5c1.1,0.5,2.2,1.2,3.2,1.9V44c-1-0.8-2.1-1.5-3.2-2V41.5L42.7,41.5z M45.9,65.7L45.9,65.7c-1,0.8-2.1,1.4-3.2,1.9v-0.5
		c1.1-0.5,2.2-1.2,3.2-2V65.7L45.9,65.7z M45.9,44.8L45.9,44.8v0.5l-1,2l1-0.1v0.3l-1.7,0.3l1.1-2.4c-0.8,0.4-1.8,0.8-2.6,0.9v-0.3
		C43.7,45.8,44.9,45.3,45.9,44.8L45.9,44.8z M45.9,49.1l-0.3,0.4c-0.3,0.5-0.1,1,0.3,1.3v-0.4c0-0.1,0-0.1,0-0.2V49.1L45.9,49.1
		L45.9,49.1z M45.9,51.5L45.9,51.5c-0.6-1.8-1.8-3.3-3.2-4.3v0.5c1.7,1.4,2.8,3.3,3.2,5.5V51.5L45.9,51.5z M45.9,55.9L45.9,55.9v1.7
		c-0.6,1.8-1.8,3.3-3.2,4.4v-0.6C44.4,60,45.5,58.1,45.9,55.9L45.9,55.9z M45.9,60v0.4c-0.4,0.6-0.8,1.1-1.2,1.5l0.5,0.6
		c-0.3,0.2-0.6,0.4-0.8,0.6c-0.3,0.2-0.1,0.6,0.3,0.2c0.3-0.3,0.6-0.7,1-0.4c0.4,0.2,0.3,0.6-0.1,1h0.4v0.4l-0.7,0.1l-0.2,0.4
		l-0.3-0.1l0.2-0.4l-0.6,0.1v-0.2c0.4-0.1,0.7-0.3,0.9-0.6c0.2-0.3-0.1-0.5-0.4-0.2c-0.3,0.3-0.9,0.5-1.1,0.4c-0.4-0.4,0-1,0.8-1.3
		l-0.3-0.4c-0.5,0.5-1.1,0.9-1.7,1.3v-0.3C44,62.4,45.1,61.3,45.9,60L45.9,60L45.9,60z M45.9,61.9L45.9,61.9c-0.2,0-0.3,0.1-0.3,0.3
		c0,0.1,0.1,0.3,0.3,0.3V61.9L45.9,61.9z M42.7,64.8L42.7,64.8l0.3,0.7h0.5l-0.8-1.5V64.8L42.7,64.8z M42.7,59.5L42.7,59.5v-0.4h0.8
		v-8.8h-0.8v-0.4h1.2v9.6H42.7L42.7,59.5z M42.7,58.4L42.7,58.4c0.1-0.1,0.3-0.4,0.3-0.6c0-0.2-0.1-0.4-0.3-0.5V58.4L42.7,58.4z
		 M42.7,57.2L42.7,57.2c0.1-0.1,0.1-0.2,0.1-0.4c0-0.1,0-0.3-0.1-0.5V57.2L42.7,57.2z M42.7,55L42.7,55v-2.9h0.1l0.3,0.5h-0.4
		L42.7,55L42.7,55L42.7,55z M42.7,51.8L42.7,51.8v-0.7c0.1,0,0.3,0.1,0.3,0.4C43,51.6,42.9,51.8,42.7,51.8L42.7,51.8z M41.9,41.2
		v0.4c0.3,0.1,0.6,0.3,0.9,0.4v-0.5C42.4,41.4,42.1,41.3,41.9,41.2L41.9,41.2L41.9,41.2z M42.7,67.6v-0.5c-0.3,0.1-0.6,0.3-0.9,0.4
		v0.5C42.1,67.8,42.4,67.7,42.7,67.6L42.7,67.6L42.7,67.6z M42.7,45.9c-0.3,0-0.6,0-0.9-0.1V46c0.3,0.1,0.5,0.1,0.9,0.1V45.9
		L42.7,45.9L42.7,45.9z M42.7,47.2c-0.3-0.3-0.6-0.4-0.9-0.6v0.5c0.3,0.2,0.6,0.4,0.9,0.6V47.2L42.7,47.2L42.7,47.2z M42.7,49.9
		L42.7,49.9v0.4h-0.9v-0.4H42.7L42.7,49.9z M42.7,51.1L42.7,51.1v0.7c-0.2,0-0.4-0.1-0.4-0.3C42.4,51.3,42.5,51.1,42.7,51.1
		L42.7,51.1z M42.7,52.1V55l-0.5-0.3V54c-0.1,0.1-0.3,0.2-0.4,0.3v-0.7l0.2,0.3c0.1-0.1,0.2-0.2,0.3-0.2v-0.3c-0.1,0-0.1,0-0.1,0
		c0-0.1-0.2-0.1-0.4-0.1v-0.3c0.2,0.1,0.3,0.2,0.4,0.3v-0.6h-0.4v-0.8c0.1,0.1,0.2,0.2,0.3,0.3h0.1c-0.1-0.2-0.3-0.4-0.4-0.5v-0.4
		c0.3,0.3,0.4,0.7,0.7,0.9L42.7,52.1L42.7,52.1L42.7,52.1z M42.7,56.3c-0.1-0.1-0.3-0.2-0.6-0.2h-0.3v0.5H42c0.2,0,0.3,0.1,0.3,0.3
		s-0.1,0.3-0.3,0.3h-0.2v0.4h0.2c0.2,0,0.4,0.1,0.4,0.3c0,0.3-0.1,0.4-0.4,0.4h-0.2v0.4H42c0.5,0,0.6-0.1,0.8-0.2v-1.1
		c-0.1-0.1-0.1-0.1-0.1-0.1c0-0.1,0.1-0.1,0.1-0.1V56.3L42.7,56.3L42.7,56.3z M42.7,59.1h-0.9v0.4h0.9V59.1L42.7,59.1L42.7,59.1z
		 M42.7,61.4c-0.3,0.3-0.6,0.5-0.9,0.6v0.5c0.3-0.1,0.6-0.4,0.9-0.6V61.4L42.7,61.4L42.7,61.4z M42.7,63.2c-0.3,0.2-0.6,0.4-0.9,0.5
		V64c0.1-0.1,0.2-0.1,0.3-0.2l0.3,0.4l-0.6,0.3v0.4l0.7-0.4l0.1,0.2v-0.9l-0.2-0.4c0.1,0,0.1-0.1,0.2-0.1L42.7,63.2L42.7,63.2
		L42.7,63.2z M41.7,41.1L41.7,41.1c0,0,0.1,0,0.2,0.1v0.4c-0.1,0-0.1,0-0.2-0.1V41.1L41.7,41.1z M41.9,67.9L41.9,67.9
		c-0.1,0-0.1,0-0.2,0v-0.5c0,0,0.1-0.1,0.2-0.1V67.9L41.9,67.9z M41.9,45.8L41.9,45.8V46c-0.1,0-0.1-0.1-0.2-0.1v-0.3
		C41.7,45.7,41.8,45.8,41.9,45.8L41.9,45.8z M41.9,46.6L41.9,46.6v0.5c0-0.1-0.1-0.1-0.2-0.1v-0.5C41.7,46.5,41.8,46.5,41.9,46.6
		L41.9,46.6z M41.9,49.9h-0.2v0.4h0.2V49.9L41.9,49.9L41.9,49.9z M41.9,51.2c0-0.1-0.1-0.1-0.2-0.2v0.4c0,0.1,0.1,0.1,0.2,0.2V51.2
		L41.9,51.2L41.9,51.2z M41.9,51.8c-0.1-0.1-0.1-0.1-0.2-0.1v0.4h0h0v0.6h0.2V51.8L41.9,51.8L41.9,51.8z M41.9,52.9c0,0-0.1,0-0.2,0
		v0.4c0,0,0.1-0.1,0.2-0.1V52.9L41.9,52.9L41.9,52.9z M41.9,53.6l-0.2-0.3v0.6l0,0.1h0v0.4c0,0,0.1,0,0.2,0V53.6L41.9,53.6
		L41.9,53.6z M41.9,56.1L41.9,56.1v0.5h-0.2v-0.5H41.9L41.9,56.1z M41.9,57.1L41.9,57.1v0.4h-0.2v-0.4H41.9L41.9,57.1z M41.9,58.2
		L41.9,58.2v0.4h-0.2v-0.4H41.9L41.9,58.2z M41.9,59.1L41.9,59.1v0.4h-0.2v-0.4H41.9L41.9,59.1z M41.9,62L41.9,62v0.5
		c-0.1,0.1-0.1,0.1-0.2,0.1v-0.5C41.7,62.1,41.8,62.1,41.9,62L41.9,62z M41.9,63.7L41.9,63.7V64c0,0-0.1,0-0.2,0.1v-0.3
		C41.7,63.7,41.8,63.7,41.9,63.7L41.9,63.7z M41.9,64.5L41.9,64.5v0.4l-0.1,0c0.1,0.4,0.1,0.8-0.1,1v-1.4L41.9,64.5L41.9,64.5z
		 M41.4,41.1v0.5c0.1,0,0.2,0.1,0.3,0.1v-0.5C41.6,41.1,41.5,41.1,41.4,41.1L41.4,41.1L41.4,41.1z M41.7,68v-0.5
		c-0.1,0.1-0.2,0.1-0.3,0.1V68C41.5,68,41.6,68,41.7,68L41.7,68L41.7,68z M41.7,45.7c-0.1-0.1-0.2-0.1-0.3-0.1v0.2
		c0.1,0.1,0.1,0.1,0.3,0.1V45.7L41.7,45.7L41.7,45.7z M41.7,46.5c-0.1-0.1-0.2-0.1-0.3-0.2v0.5c0.1,0.1,0.2,0.1,0.3,0.1V46.5
		L41.7,46.5L41.7,46.5z M41.7,49.9L41.7,49.9v0.4h-0.3v-0.4H41.7L41.7,49.9z M41.7,51L41.7,51v0.4c-0.1-0.1-0.1-0.1-0.2-0.2
		c0,0,0-0.1-0.1-0.1v-0.3c0.1,0,0.1,0.1,0.1,0.1C41.6,50.9,41.6,51,41.7,51L41.7,51z M41.7,51.7L41.7,51.7v0.4l-0.3-0.2v-0.4
		C41.5,51.6,41.6,51.6,41.7,51.7L41.7,51.7z M41.7,52.1L41.7,52.1v0.6h-0.3v-0.6H41.7L41.7,52.1z M41.7,52.9L41.7,52.9v0.4v0v0.6
		l-0.3-0.4v-0.6c0.1,0,0.1,0,0.1,0C41.6,52.9,41.6,52.9,41.7,52.9L41.7,52.9z M41.7,53.9L41.7,53.9v0.4c-0.1,0-0.2,0-0.3-0.1v-0.3
		C41.5,53.9,41.6,53.9,41.7,53.9L41.7,53.9z M41.7,56.1h-0.3v0.5h0.3V56.1L41.7,56.1L41.7,56.1z M41.7,57.1h-0.3v0.4h0.3V57.1
		L41.7,57.1L41.7,57.1z M41.7,58.2h-0.3v0.4h0.3V58.2L41.7,58.2L41.7,58.2z M41.7,59.1h-0.3v0.4h0.3V59.1L41.7,59.1L41.7,59.1z
		 M41.7,62.1c-0.1,0-0.2,0.1-0.3,0.1v0.5c0.1-0.1,0.2-0.1,0.3-0.1V62.1L41.7,62.1L41.7,62.1z M41.7,63.8c-0.1,0-0.2,0-0.3,0.1v0.3
		c0.1,0,0.2-0.1,0.3-0.1V63.8L41.7,63.8L41.7,63.8z M41.7,64.6l-0.1,0.1l-0.1-0.4v2c0.1,0,0.2-0.1,0.3-0.3L41.7,64.6L41.7,64.6
		L41.7,64.6z M41.1,41L41.1,41c0.1,0,0.3,0.1,0.4,0.1v0.5c-0.1-0.1-0.3-0.1-0.4-0.2V41L41.1,41z M41.4,68L41.4,68
		c-0.1,0-0.3,0.1-0.4,0.2v-0.5c0.1-0.1,0.3-0.1,0.4-0.1V68L41.4,68z M41.4,45.6L41.4,45.6v0.2c0,0,0,0,0-0.1V45.6
		C41.4,45.6,41.4,45.6,41.4,45.6L41.4,45.6z M41.4,46.3L41.4,46.3v0.5c-0.1-0.1-0.3-0.1-0.4-0.2v-0.5C41.2,46.2,41.3,46.3,41.4,46.3
		L41.4,46.3z M41.4,49.9h-0.4v0.4h0.4V49.9L41.4,49.9L41.4,49.9z M41.4,50.8c-0.1,0-0.3-0.1-0.4-0.1V51h0.1c0.1,0,0.2,0.1,0.3,0.1
		V50.8L41.4,50.8L41.4,50.8z M41.4,51.5C41.4,51.5,41.4,51.5,41.4,51.5c-0.1-0.2-0.2-0.2-0.4-0.2v0.4h0.1l0.3,0.2V51.5L41.4,51.5
		L41.4,51.5z M41.4,52.1h-0.4v0.6h0.4V52.1L41.4,52.1L41.4,52.1z M41.4,52.9c-0.1,0-0.3,0-0.4,0.1v1c0.1,0.1,0.2,0.1,0.4,0.1v-0.3
		c-0.1,0-0.1-0.1-0.2-0.1c-0.1-0.2,0-0.3,0.2-0.5l0,0.2V52.9L41.4,52.9L41.4,52.9z M41.4,56.1L41.4,56.1v0.5v0.5v0.4v0.7v0.4h-0.4
		v-2.5H41.4L41.4,56.1z M41.4,59.1L41.4,59.1v0.4h-0.4v-0.4H41.4L41.4,59.1z M41.4,62.3L41.4,62.3v0.5c-0.1,0.1-0.3,0.1-0.4,0.2
		v-0.5C41.2,62.4,41.3,62.4,41.4,62.3L41.4,62.3z M41.4,63.9L41.4,63.9v0.3c0,0,0,0,0,0l0,0.1v2c-0.1,0.1-0.3,0.1-0.4,0.1V66
		c0.3,0.1,0.5-0.4,0.3-0.9c-0.1,0-0.2,0-0.3,0v-0.4c0.1-0.1,0.1-0.1,0.1-0.1l-0.1-0.3V64C41.2,64,41.3,63.9,41.4,63.9L41.4,63.9z
		 M37.1,40.4v0.5c1.4,0,2.7,0.2,4,0.6V41C39.8,40.6,38.5,40.4,37.1,40.4L37.1,40.4L37.1,40.4z M41.1,68.2v-0.5
		c-1.3,0.4-2.6,0.6-4,0.6v0.4C38.5,68.7,39.8,68.5,41.1,68.2L41.1,68.2L41.1,68.2z M41.1,46.2c-1.2-0.6-2.6-0.9-4-0.9v0.4
		c1.4,0,2.8,0.4,4,1V46.2L41.1,46.2L41.1,46.2z M41.1,49.9L41.1,49.9h-1.2v9.2h-0.6v-0.6h-0.5l-0.2-0.3v-1.1
		c0.2-0.2,0.3-0.1,0.5-0.5l0.1-0.3c0.1,0,0.2-0.3,0.2-0.5h-0.4c0,0.4-0.4,0.6-0.6,0.6v-0.8c0.2,0,0.3,0,0.5-0.3l0.1-0.3
		c0.1-0.1,0.2-0.1,0.2-0.2v-0.2h-0.5l0,0.4h-0.6v-0.5c0.3-0.1,0.6-0.3,0.7-0.7c0.1,0,0.3-0.2,0.3-0.2v-0.3h-0.4l-0.2,0.3
		C38.4,54,37.9,54,38,54v-0.6c0.3-0.1,0.5-0.3,0.6-0.5l0.3-0.1v-0.4h-0.5c0,0.1-0.1,0.3-0.3,0.4c-0.1,0-0.2,0-0.3,0v-0.5
		c0.3-0.2,0.6-0.3,0.6-0.6l0.3-0.1v-0.3h-0.5c0,0.1-0.1,0.3-0.2,0.4h-0.3v-0.4c0.3-0.2,0.4-0.4,0.5-0.7l0.3,0v-0.4h-0.5
		c-0.1,0.5-0.3,0.5-0.4,0.4v-0.4c0.3-0.1,0.3-0.2,0.5-0.5c0.2-0.1,0.4-0.6,0.1-0.5h-0.2c-0.1,0-0.1,0.3-0.3,0.4c0,0-0.2,0.1-0.3,0.1
		v-0.5c0.3,0,0.6-0.3,0.6-0.6h0.1c0,0,0-0.1,0-0.3c-0.2,0-0.3,0-0.4,0c-0.1,0.2-0.2,0.3-0.4,0.4c-0.2-0.1-0.3-0.1-0.3-0.4
		c0-0.4,0.4-0.7,0.1-1.1l-0.1-0.3c0-0.4-0.2-0.5-0.3-0.6v13h4v-0.4h-0.9v-8.8h0.9L41.1,49.9C41.1,49.9,41.1,49.9,41.1,49.9z
		 M41.1,50.7L41.1,50.7V51h-0.3l-0.2-0.4H41.1L41.1,50.7z M41.1,51.3L41.1,51.3v0.4h-0.3l-0.3-0.4c0.1,0,0.3,0,0.4,0
		C41,51.3,41,51.3,41.1,51.3L41.1,51.3z M41.1,52.1L41.1,52.1v0.6h-0.3l-0.2-0.6H41.1L41.1,52.1z M41.1,53.1L41.1,53.1v1
		c-0.1-0.1-0.3-0.3-0.3-0.5C40.8,53.4,40.9,53.2,41.1,53.1L41.1,53.1z M41.1,56.1L41.1,56.1L41,58.6h0.1V56.1L41.1,56.1L41.1,56.1z
		 M41.1,62.5c-1.2,0.6-2.6,1-4,1v0.4c1.4,0,2.8-0.3,4-0.9V62.5L41.1,62.5L41.1,62.5z M41.1,64c-1.3,0.5-2.6,0.8-4,0.8v2.1l0.3,0.2
		v-0.9c0.2-0.1,0.4-0.1,0.5-0.3c0.4-0.3,1-0.5,1.1-0.1c0.1,0.3-0.5,0.5-0.9,0.4c0,0.1-0.1,0.3-0.2,0.4c0.4,0.1,1.1,0.1,1.3-0.4
		c0.2-0.5,0-1-0.7-1c-0.4-0.1-0.8,0.1-1.2,0.4v-0.7c1.3,0,2.5-0.3,3.7-0.7l0.1,0.1V64L41.1,64L41.1,64z M41.1,64.8L41.1,64.8
		c-0.9,0.4-0.8,1.2-0.3,1.4c0.1,0,0.2,0.1,0.3,0.1V66C41,66,40.9,66,40.9,66c-0.3-0.2-0.3-0.6,0.2-0.8V64.8L41.1,64.8z M37.1,43.7
		v-0.4l1.2-2l1,3.3c0.3,0.8,0.7,0.9,1.3,0.1l0.1,0.2c-0.7,0.9-1.6,0.7-1.9-0.1l-0.8-2.5L37.1,43.7L37.1,43.7L37.1,43.7z M37.1,68.7
		L37.1,68.7c-1.7,0-3.3-0.3-4.8-0.9v-0.5c1.5,0.6,3.2,0.9,4.8,0.9V68.7L37.1,68.7z M32.3,41.2L32.3,41.2c1.5-0.6,3.2-0.9,4.8-0.9
		v0.5c-1.7,0-3.3,0.3-4.8,0.9V41.2L32.3,41.2z M37.1,43.3v0.4l-0.6,0.9l-1-2.4c-0.4,1.4-1.1,3.2-2.2,3.3l-0.2-0.1
		c1.5-0.6,1.9-2.7,2.5-4.2l1.1,2.6L37.1,43.3L37.1,43.3L37.1,43.3z M37.1,45.3L37.1,45.3v0.4c-1.8,0-3.4,0.6-4.8,1.5v-0.5
		C33.7,45.8,35.4,45.3,37.1,45.3L37.1,45.3z M37.1,46.5v13h-4.8v-0.4H34v-8.8h-1.7v-0.4h2.1v9.2H35v-0.5h0.4l0.3-0.4v-1.1
		c-0.3-0.2-0.5-0.4-0.6-0.8l-0.2-0.1V56h0.4c0,0.4,0.3,0.5,0.5,0.5v-0.8c-0.2,0-0.4-0.2-0.5-0.5l-0.1-0.2c-0.1,0-0.2,0-0.3-0.2v-0.2
		h0.5l0,0.4h0.3l0.1-0.5c-0.3-0.2-0.5-0.5-0.6-0.8c-0.1,0-0.1-0.1-0.2-0.1c0-0.1,0-0.2,0-0.3h0.4v0.3c0,0.2,0.5,0.1,0.5,0.1l0-0.6
		c-0.2-0.1-0.4-0.3-0.6-0.5l-0.2,0v-0.3h0.5c0,0.1,0.1,0.2,0.2,0.3c0.1,0,0.2,0,0.3,0v-0.5c-0.3-0.2-0.5-0.4-0.6-0.7h-0.2v-0.3h0.4
		c0,0.1,0.1,0.3,0.2,0.4l0.2-0.1v-0.3c-0.3-0.2-0.5-0.4-0.5-0.7l-0.3,0v-0.4h0.4c0.1,0.5,0.4,0.5,0.5,0.4v-0.4
		c-0.3-0.1-0.5-0.2-0.5-0.5c-0.2-0.1-0.4-0.5-0.2-0.5h0.2c0.2,0,0.2,0.3,0.3,0.4c0.1,0,0.1,0,0.2,0v-0.5c-0.3,0-0.5-0.3-0.5-0.6
		h-0.2c0,0,0-0.1,0-0.3c0.2,0,0.3,0,0.4,0c0,0.2,0.2,0.3,0.3,0.4l0.1-0.1c0-0.1,0-0.2,0-0.3c-0.1-0.4-0.3-0.7,0.1-1L36.2,47
		c-0.1-0.8,0.3-0.6,0.6-0.8c0.1-0.1,0.2-0.1,0.3,0C37,46.4,37.1,46.5,37.1,46.5L37.1,46.5L37.1,46.5z M37.1,63.4L37.1,63.4v0.4
		c-1.8,0-3.4-0.5-4.8-1.4V62C33.7,62.9,35.4,63.4,37.1,63.4L37.1,63.4z M37.1,64.8v2.1l-0.1-0.1v-0.5c-0.6,0.2-1.2,0.3-1.7,0.1
		c-0.4-0.3-0.6-0.7,0-0.9c0.4-0.2,0.8-0.2,1.2,0.1c-0.1,0-0.2,0.1-0.3,0.3c-0.6-0.2-1-0.1-0.9,0.2c0.1,0.3,0.6,0.3,1.6-0.1l0-0.9
		c-1,0-1.9-0.1-2.8-0.4l-0.7,1.8l-0.2-0.5l0.5-1.5c-0.3,0-0.6-0.2-0.9-0.3L33,64.5c0.3,0.1,0.4,0.4,0.3,0.7c-0.1,0.4-0.5,0.6-1,0.6
		v-0.4c0.4,0.1,0.7,0,0.7-0.3c0-0.3-0.2-0.5-0.7-0.5v-0.4l0.3,0.1l0.1-0.3c-0.1,0-0.2-0.1-0.4-0.2v-0.3c0.5,0.3,0.9,0.5,1.4,0.6
		c-0.2-0.5-0.4-0.8-0.8-0.8v-0.4c0.5,0.1,0.9,0.4,1.2,1h0.4l0,0.4C35.3,64.7,36.2,64.8,37.1,64.8L37.1,64.8L37.1,64.8z M32.3,58.6
		h0.4l0.5-2.1v2.1h0.5v-2.5h-0.7l-0.5,2l-0.1-0.4V58.6L32.3,58.6L32.3,58.6z M32.3,53.8h0.5v1.1l0.5,0.4v-2.6h0.4l-0.2-0.5h-1.2v0.5
		h0.5v0.7h-0.5V53.8L32.3,53.8L32.3,53.8z M32.3,46.3L32.3,46.3c0.2-0.3,0.3-0.6,0.2-1h-0.2V46.3L32.3,46.3z M32.3,67.9v-0.5
		c-0.8-0.3-1.6-0.7-2.4-1.2v0.5C30.7,67.2,31.5,67.6,32.3,67.9L32.3,67.9L32.3,67.9z M30,42.3v0.5c0.8-0.5,1.6-0.9,2.4-1.2v-0.5
		C31.5,41.5,30.7,41.9,30,42.3L30,42.3L30,42.3z M32.3,45.3c0.1,0.9-0.3,1.2-1,0.8L30,45.4V46l1.2,0.6c0.5,0.2,0.9,0.1,1.2-0.3
		L32.3,45.3L32.3,45.3L32.3,45.3z M32.3,46.6L32.3,46.6c-0.9,0.6-1.7,1.3-2.4,2.1v0.7c0.7-0.9,1.5-1.7,2.4-2.2V46.6L32.3,46.6z
		 M32.3,49.9h-2v9.2v0.4h2v-0.4h-1.7v-8.8h1.7V49.9L32.3,49.9L32.3,49.9z M32.3,52.1L32.3,52.1h-1.3l0.2,0.5h0.3v0.7
		c-0.4,0.1-0.5,0.3-0.2,0.7c0.1,0.2,0.3,0.4,0.6,0.4c0.1-0.1,0.1-0.3,0.1-0.6h0.4v-0.5h-0.4v-0.7h0.4V52.1L32.3,52.1z M32.3,57.7
		L32.3,57.7L32,56.1h-0.8v2.5h0.5v-2.1l0.5,2.1h0.2L32.3,57.7L32.3,57.7z M32.3,62c-0.9-0.6-1.7-1.4-2.4-2.3v0.7
		c0.7,0.9,1.5,1.5,2.4,2.1V62L32.3,62L32.3,62z M32.3,63.6c0,0-0.1-0.1-0.1-0.1l-0.2,0.3c0.1,0.1,0.2,0.1,0.3,0.1L32.3,63.6
		L32.3,63.6L32.3,63.6z M32.3,64.4L32.3,64.4h-0.2c-0.3-0.5-0.7-0.8-1.2-0.8c-0.5,0-0.8,0.4-0.3,1.4l0.3-0.1
		c-0.3-0.3-0.5-0.7-0.2-0.9c0.2-0.3,0.5-0.1,0.8,0.4l0,0.1l0,0.3c0.3,0,0.5,0,0.7,0L32.3,64.4L32.3,64.4z M32.3,65.4
		c-0.1,0-0.3,0-0.4-0.1v0.5c0.2,0.1,0.3,0.1,0.4,0.1V65.4L32.3,65.4L32.3,65.4z M30,61.3v-0.6c0.2,0,0.4,0.1,0.4,0.3
		C30.3,61.2,30.2,61.3,30,61.3L30,61.3L30,61.3z M30,66.8L30,66.8c-0.1-0.1-0.1-0.1-0.1-0.1v-0.5c0.1,0,0.1,0.1,0.1,0.1V66.8
		L30,66.8z M29.8,42.4L29.8,42.4c0.1,0,0.1,0,0.1-0.1v0.5c-0.1,0.1-0.1,0.1-0.1,0.1V42.4L29.8,42.4z M30,45.4L30,45.4V46l-0.1-0.1
		v-0.6L30,45.4L30,45.4z M30,48.7L30,48.7v0.7c-0.1,0.1-0.1,0.2-0.1,0.3v-0.7C29.9,48.8,29.9,48.7,30,48.7L30,48.7z M30,59.7
		L30,59.7v0.7c-0.1,0-0.1-0.1-0.1-0.2v-0.7C29.9,59.6,29.9,59.6,30,59.7L30,59.7z M30,60.7L30,60.7v0.6c-0.1,0-0.1-0.1-0.1-0.1v-0.5
		C29.9,60.7,29.9,60.7,30,60.7L30,60.7z M29.8,62L29.8,62v-0.3c0.1,0.1,0.1,0.1,0.1,0.2L29.8,62L29.8,62z M29.8,66.7v-0.5
		c-0.3-0.2-0.6-0.4-0.9-0.6v0.5C29.2,66.3,29.5,66.5,29.8,66.7L29.8,66.7L29.8,66.7z M28.9,43v0.5c0.3-0.2,0.6-0.4,0.9-0.6v-0.5
		C29.5,42.6,29.2,42.8,28.9,43L28.9,43L28.9,43z M29.8,45.4l-0.9-0.5v0.6l0.9,0.4V45.4L29.8,45.4L29.8,45.4z M29.8,48.9
		c-0.4,0.5-0.7,0.9-0.9,1.4v1c0.3-0.6,0.6-1.1,0.9-1.7V48.9L29.8,48.9L29.8,48.9z M29.8,59.5c-0.4-0.5-0.7-1.1-0.9-1.7v1
		c0.3,0.5,0.6,1,0.9,1.4V59.5L29.8,59.5L29.8,59.5z M29.8,60.8c-0.1,0.1-0.1,0.1-0.1,0.3c0,0.1,0,0.2,0.1,0.3V60.8L29.8,60.8
		L29.8,60.8z M29.8,61.7L29.8,61.7c-0.4-0.3-0.7-0.7-0.9-1.1V61l0.4,0.5l-0.4,0.3v0.5l0.6-0.5c0.1,0.1,0.2,0.2,0.3,0.3l0.1-0.1V61.7
		L29.8,61.7z M28.9,48L28.9,48v-0.6l0.2,0.1l-0.2-0.7V46l0.6,2.2L28.9,48L28.9,48z M28.9,66.1L28.9,66.1c-0.7-0.5-1.4-1.1-2-1.7
		v-0.6c0.6,0.7,1.3,1.3,2,1.8V66.1L28.9,66.1z M26.9,44.7L26.9,44.7c0.7-0.6,1.3-1.2,2-1.7v0.5c-0.7,0.6-1.4,1.2-2,1.8V44.7
		L26.9,44.7z M28.9,44.9v0.6l-0.2,0l0.2,0.6v0.9l-0.7-2.3L28.9,44.9L28.9,44.9L28.9,44.9z M28.9,47.4L28.9,47.4V48l-1.9-0.7
		c0.8,1.2,1.6,3,1,3.9l-0.2,0.1c0.5-1.2-0.2-2.5-0.9-3.8v-0.8L28.9,47.4L28.9,47.4z M28.9,50.3v1c-0.4,1.1-0.7,2.2-0.7,3.3
		c0,1.2,0.3,2.3,0.7,3.3v1c-0.7-1.3-1.1-2.7-1.1-4.3C27.9,53,28.3,51.5,28.9,50.3L28.9,50.3L28.9,50.3z M28.9,60.7L28.9,60.7V61
		l-0.4-0.4c-0.1,0.7-0.5,0.8-1.1,0.5c0,0.5,0.5,0.8,1.1,0.9l0.4-0.3v0.5L28,63l-0.1-0.4l0.4-0.4c-1.3-0.4-1.3-1-1-1.8
		c0.4,0.6,0.8,0.5,1-0.3c-0.3-0.4-0.5-0.8-0.7-1.2l-0.7,0.3v-1.2c0.1,0.2,0.2,0.4,0.3,0.7l0.3-0.1c-0.2-0.5-0.4-1-0.6-1.5v-1.6
		c0.1,0.9,0.3,1.8,0.7,2.6c0.3-0.3,0.4-0.7,0.2-1L28,57c0.1,0.4,0.1,0.9-0.2,1.5l0.2,0.3l-0.1,0.1C28.2,59.5,28.5,60.2,28.9,60.7
		L28.9,60.7z M26.9,64.4v-0.6c-0.1-0.2-0.3-0.4-0.5-0.6v0.7C26.6,64,26.8,64.2,26.9,64.4L26.9,64.4L26.9,64.4z M26.4,45.3v0.7
		c0.2-0.2,0.4-0.4,0.5-0.6v-0.6C26.8,44.9,26.6,45.1,26.4,45.3L26.4,45.3L26.4,45.3z M26.9,46.7l-0.5-0.2c0.1,0.3,0.4,0.7,0.5,1
		V46.7L26.9,46.7L26.9,46.7z M26.9,55.6c0-0.4-0.1-0.8-0.1-1.1h-0.3c0,0.3,0,0.6,0,0.8l-0.2,0.1v0.4l0.3,0l0.1,0.7l-0.4,0.1v0.5
		l0.5-0.1c0,0.1,0.1,0.3,0.1,0.4L26.9,55.6L26.9,55.6L26.9,55.6z M26.9,58.1c-0.1-0.2-0.3-0.4-0.5-0.4v0.5c0.2,0.1,0.4,0.6,0.5,1.2
		l0.1-0.1V58.1L26.9,58.1L26.9,58.1z M26.4,59.6v-0.4c0.1,0,0.1,0.1,0.2,0.2L26.4,59.6L26.4,59.6L26.4,59.6z M26.4,53L26.4,53v-0.4
		h0.5L26.7,53H26.4L26.4,53z M26.4,52.1L26.4,52.1v-0.5h0.5l-0.1,0.5H26.4L26.4,52.1z M26.4,63.8L26.4,63.8
		c-0.4-0.5-0.8-1.1-1.2-1.6v-0.8c0.4,0.6,0.8,1.2,1.2,1.8L26.4,63.8L26.4,63.8z M25.2,46.9L25.2,46.9c0.4-0.6,0.8-1.1,1.2-1.6v0.7
		c-0.5,0.6-0.9,1.2-1.2,1.8V46.9L25.2,46.9z M26.4,46.5L26.4,46.5v5.1v0.5h-1.2v-0.3l0.1-0.1h1.1L26.4,46.5L26.4,46.5z M26.4,52.6
		h-1.1l-0.1,0.1V53h1.2V52.6L26.4,52.6L26.4,52.6z M26.4,55.4L26.4,55.4v0.4H26l0.1,0.8l0.3-0.1v0.5l-1.2,0.1v-0.4l0.5-0.1l-0.1-0.8
		c-0.1,0-0.3-0.1-0.4-0.1v-0.4c0,0,0.1,0,0.1,0c0.2-0.1,0.2-0.2,0.2-0.4c0-0.1-0.2-0.3-0.3-0.3v-0.5c0.4,0,0.7,0.2,0.8,1.1
		L26.4,55.4C26.4,55.4,26.4,55.4,26.4,55.4z M26.4,57.7L26.4,57.7v0.5c-0.1-0.1-0.1-0.1-0.2-0.1c-0.5,0-0.4,0.6-0.2,0.9
		c0.2,0.1,0.3,0.1,0.4,0.2v0.4l-0.1,0.1l-0.5-0.1l-0.5,0.3c0,0-0.2,0.1-0.3,0.1v-0.6l0-0.1l0.2,0.2l0.2-0.2L25.2,59v-0.4l0.4,0.3
		c-0.1-0.7,0.1-1.1,0.6-1.1C26.3,57.7,26.4,57.7,26.4,57.7L26.4,57.7z M25.2,62.2v-0.8c-1.2-2-1.8-4.4-1.8-6.9
		c0-2.5,0.7-4.9,1.8-6.9v-0.8c-1.4,2.2-2.3,4.9-2.3,7.7C22.9,57.3,23.8,60,25.2,62.2L25.2,62.2L25.2,62.2z M25.2,51.8L25.2,51.8
		l-0.1,0.3h0.1V51.8L25.2,51.8z M25.2,52.7V53H25L25.2,52.7L25.2,52.7L25.2,52.7z M25.2,54.3L25.2,54.3c-0.3,0.1-0.5,0.4-0.5,0.8
		c0,0.4,0.2,0.6,0.5,0.8v-0.4c-0.1,0-0.2-0.1-0.2-0.3c-0.1-0.1,0-0.4,0.1-0.4c0,0,0.1,0,0.1,0V54.3L25.2,54.3z M25.2,56.7L25.2,56.7
		h-0.1c-0.1-0.3-0.2-0.5-0.3-0.8l-0.2,0.1c0.3,0.6,0,1-0.3,0.7c-0.4-0.3-0.1-0.9,0-1.3l-0.2-0.1c-0.3,0.6-0.4,1.1,0,1.7
		c0.3,0.5,0.6,0.3,0.9,0.1l0.1-0.1V56.7L25.2,56.7z M25.2,58.6L25.2,58.6l-0.4-0.2l-0.2,0.3l0.5,0.4V58.6L25.2,58.6z M25.2,59.3
		L25.2,59.3l-0.3,0.3l0.2,0.2c0,0,0.1,0.1,0.1,0.1L25.2,59.3L25.2,59.3z"/>
	<rect x="56.9" y="36.5" class="st1" width="126.1" height="36.1"/>
	<path class="st0" d="M171.6,60.5v-0.7c0,0,0,0,0,0c0.3,0,0.5-0.1,0.7-0.3v-1.9c-0.2,0.1-0.5,0.2-0.8,0.3v-0.5
		c0.4-0.1,0.6-0.2,0.8-0.4v-0.3c0-0.7-0.3-1-0.8-1.1v-0.5c0.1,0,0.2,0,0.4,0c0.6,0,1.1,0.2,1.4,0.4c0.4,0.3,0.5,0.8,0.5,1.3v2.2
		c0,0.5,0.2,0.7,0.4,0.7c0.2,0,0.3,0,0.4-0.1l0.1,0.4l-1.4,0.6c-0.3,0-0.5-0.1-0.7-0.2c-0.2-0.2-0.3-0.3-0.3-0.4
		C172.2,60.2,171.9,60.4,171.6,60.5L171.6,60.5z M171.6,55.2c-0.7,0.2-1.4,0.5-1.8,0.8c-0.3,0.2-0.4,0.4-0.4,0.6
		c0,0.3,0.5,0.6,0.8,0.6c0.2,0,0.4-0.1,0.5-0.3c0.1-0.4,0.2-0.7,0.3-0.9c0.1-0.1,0.3-0.2,0.5-0.2c0,0,0,0,0.1,0V55.2L171.6,55.2
		L171.6,55.2z M171.6,57.5c-0.5,0.2-1.1,0.3-1.4,0.5c-0.6,0.2-0.9,0.7-0.9,1.3c0,0.7,0.7,1.5,1.7,1.5c0.2,0,0.4-0.1,0.7-0.2v-0.7
		c-0.4,0-0.8-0.3-0.8-0.9c0-0.4,0.2-0.7,0.5-0.9c0.1,0,0.1-0.1,0.2-0.1V57.5L171.6,57.5L171.6,57.5z M144.7,60.5L144.7,60.5v-0.7
		c0,0,0,0,0,0c0.3,0,0.5-0.1,0.7-0.3v-1.9c-0.2,0.1-0.5,0.2-0.8,0.3v-0.5c0.4-0.1,0.6-0.2,0.8-0.4v-0.3c0-0.7-0.3-1-0.8-1.1v-0.5
		c0.1,0,0.2,0,0.4,0c0.6,0,1.1,0.2,1.4,0.4c0.4,0.3,0.5,0.8,0.5,1.3v2.2c0,0.5,0.2,0.7,0.4,0.7c0.2,0,0.3,0,0.4-0.1l0.1,0.4
		l-1.4,0.6c-0.3,0-0.5-0.1-0.7-0.2c-0.2-0.2-0.3-0.3-0.3-0.4C145.3,60.2,144.9,60.4,144.7,60.5L144.7,60.5z M152.4,56.7L152.4,56.7
		c0-0.2-0.2-1.1-0.3-1.3c-0.3-0.1-0.7-0.2-1.3-0.2c-1.4,0-2.2,0.7-2.2,1.7c0,0.9,1.1,1.4,1.7,1.6c0.7,0.2,1,0.6,1,1.1
		c0,0.4-0.3,0.7-0.8,0.7c-0.8,0-1.4-0.8-1.6-1.5l-0.4,0c0,0.5,0.1,1.3,0.2,1.5c0.3,0.2,1,0.5,1.7,0.5c1.1,0,2.4-0.5,2.4-1.8
		c0-0.9-0.8-1.4-1.7-1.7c-0.6-0.2-1-0.5-1-0.9c0-0.4,0.3-0.7,0.8-0.7c0.4,0,0.9,0.3,1.3,1.2L152.4,56.7L152.4,56.7z M153.9,59.3
		L153.9,59.3c0,0.7-0.1,0.8-0.8,0.9v0.4h2.9v-0.4c-0.5-0.1-0.6-0.1-0.6-0.9v-2.8c0.3-0.3,0.6-0.4,1-0.4c0.5,0,0.9,0.4,0.9,1.2v2.1
		c0,0.7-0.1,0.8-0.6,0.9v0.4h2.8v-0.4c-0.6-0.1-0.7-0.1-0.7-0.9V57c0-1.2-0.6-1.8-1.7-1.8c-0.7,0-1.3,0.4-1.7,0.7v-3.7
		c-0.8,0.2-1.6,0.3-2.3,0.4v0.4c0.8,0.1,0.8,0.1,0.8,0.8V59.3L153.9,59.3z M160.6,59.3L160.6,59.3c0,1.1,0.5,1.5,1.5,1.5
		c0.1,0,0.3,0,0.5-0.1l0.9-0.4l-0.1-0.4c-0.2,0.1-0.4,0.1-0.6,0.1c-0.3,0-0.7-0.2-0.7-1.1v-3h1.1c0.2-0.1,0.2-0.5,0.1-0.6h-1.2v-1.5
		l-0.2-0.1l-1.3,0.9v0.7h-0.5l-0.4,0.4l0.1,0.2h0.8L160.6,59.3L160.6,59.3z M164.9,59.3L164.9,59.3c0,0.7,0,0.8-0.8,0.9v0.4h3.3
		v-0.4c-0.9-0.1-1-0.1-1-0.9v-2.2c0.2-0.5,0.5-0.7,0.7-0.7c0.2,0,0.4,0.1,0.6,0.2c0.1,0.1,0.2,0.1,0.4,0c0.3-0.1,0.6-0.4,0.6-0.8
		c0-0.4-0.4-0.7-0.8-0.7c-0.5,0-1,0.4-1.5,1.2v-1.2c-0.7,0.2-1.4,0.4-2.3,0.5V56c0.7,0.1,0.7,0.2,0.7,0.9L164.9,59.3L164.9,59.3z
		 M144.7,55.2c-0.7,0.2-1.4,0.5-1.8,0.8c-0.3,0.2-0.4,0.4-0.4,0.6c0,0.3,0.5,0.6,0.8,0.6c0.2,0,0.4-0.1,0.5-0.3
		c0.1-0.4,0.2-0.7,0.3-0.9c0.1-0.1,0.3-0.2,0.5-0.2c0,0,0,0,0.1,0V55.2L144.7,55.2L144.7,55.2z M144.7,57.5
		c-0.5,0.2-1.1,0.3-1.4,0.5c-0.7,0.2-1,0.7-1,1.3c0,0.7,0.7,1.5,1.7,1.5c0.2,0,0.4-0.1,0.7-0.2v-0.7c-0.4,0-0.8-0.3-0.8-0.9
		c0-0.4,0.2-0.7,0.5-0.9c0.1,0,0.1-0.1,0.2-0.1L144.7,57.5L144.7,57.5L144.7,57.5z M133.6,60.5L133.6,60.5v-0.7
		c0.3,0,0.5-0.1,0.8-0.3v-1.9c-0.2,0.1-0.5,0.2-0.8,0.3v-0.5c0.3-0.1,0.6-0.2,0.8-0.4v-0.3c0-0.7-0.4-1-0.8-1.1v-0.5
		c0.1,0,0.2,0,0.3,0c0.6,0,1.1,0.2,1.4,0.4c0.4,0.3,0.5,0.8,0.5,1.3v2.2c0,0.5,0.1,0.7,0.4,0.7c0.1,0,0.3,0,0.4-0.1l0.2,0.4
		l-1.4,0.6c-0.3,0-0.5-0.1-0.7-0.2c-0.2-0.2-0.3-0.3-0.4-0.4C134.2,60.2,133.9,60.4,133.6,60.5L133.6,60.5z M138,59.3L138,59.3
		c0,0.7-0.1,0.8-0.8,0.9v0.4h3.3v-0.4c-0.9-0.1-1-0.1-1-0.9v-2.2c0.2-0.5,0.5-0.7,0.7-0.7c0.2,0,0.4,0.1,0.6,0.2
		c0.1,0.1,0.2,0.1,0.4,0c0.3-0.1,0.6-0.4,0.6-0.8c0-0.4-0.4-0.7-0.8-0.7c-0.5,0-1,0.4-1.5,1.2v-1.2c-0.7,0.2-1.4,0.4-2.3,0.5V56
		c0.7,0.1,0.8,0.2,0.8,0.9L138,59.3L138,59.3z M133.6,55.2c-0.7,0.2-1.5,0.5-1.8,0.8c-0.3,0.2-0.4,0.4-0.4,0.6
		c0,0.3,0.5,0.6,0.8,0.6c0.3,0,0.4-0.1,0.5-0.3c0.1-0.4,0.2-0.7,0.4-0.9c0.1-0.1,0.3-0.2,0.5-0.2c0,0,0.1,0,0.1,0L133.6,55.2
		L133.6,55.2L133.6,55.2z M133.6,57.5c-0.5,0.2-1.1,0.3-1.4,0.5c-0.6,0.2-0.9,0.7-0.9,1.3c0,0.7,0.7,1.5,1.7,1.5
		c0.2,0,0.4-0.1,0.7-0.2v-0.7c-0.4,0-0.8-0.3-0.8-0.9c0-0.4,0.2-0.7,0.5-0.9c0,0,0.1-0.1,0.2-0.1V57.5L133.6,57.5L133.6,57.5z
		 M120.8,60.5L120.8,60.5v-0.7c0.3,0,0.5-0.1,0.8-0.3v-1.9c-0.2,0.1-0.5,0.2-0.8,0.3v-0.5c0.4-0.1,0.6-0.2,0.8-0.4v-0.3
		c0-0.7-0.4-1-0.8-1.1v-0.5c0.1,0,0.2,0,0.3,0c0.6,0,1.1,0.2,1.4,0.4c0.4,0.3,0.5,0.8,0.5,1.3v2.2c0,0.5,0.2,0.7,0.4,0.7
		c0.2,0,0.3,0,0.4-0.1l0.2,0.4l-1.4,0.6c-0.3,0-0.5-0.1-0.7-0.2c-0.2-0.2-0.3-0.3-0.4-0.4C121.4,60.2,121,60.4,120.8,60.5
		L120.8,60.5z M125,59.3L125,59.3c0,0.7-0.1,0.8-0.8,0.9l0,0.4h2.9v-0.4c-0.5-0.1-0.6-0.1-0.6-0.9v-2.8c0.3-0.3,0.7-0.4,1-0.4
		c0.5,0,0.9,0.4,0.9,1.2v2.1c0,0.7,0,0.8-0.6,0.9v0.4h2.9v-0.4c-0.7-0.1-0.7-0.1-0.7-0.9V57c0-1.2-0.6-1.8-1.8-1.8
		c-0.7,0-1.3,0.4-1.7,0.7v-3.7c-0.7,0.2-1.6,0.3-2.3,0.4v0.4C125,53,125,53,125,53.7L125,59.3L125,59.3z M120.8,55.2
		c-0.7,0.2-1.4,0.5-1.8,0.8c-0.3,0.2-0.4,0.4-0.4,0.6c0,0.3,0.5,0.6,0.8,0.6c0.3,0,0.4-0.1,0.5-0.3c0.1-0.4,0.2-0.7,0.4-0.9
		c0.1-0.1,0.3-0.2,0.5-0.2c0,0,0,0,0.1,0L120.8,55.2L120.8,55.2L120.8,55.2z M120.8,57.5c-0.5,0.2-1.1,0.3-1.4,0.5
		c-0.6,0.2-0.9,0.7-0.9,1.3c0,0.7,0.7,1.5,1.7,1.5c0.2,0,0.4-0.1,0.7-0.2v-0.7c-0.4,0-0.8-0.3-0.8-0.9c0-0.4,0.2-0.7,0.5-0.9
		c0,0,0.1-0.1,0.2-0.1V57.5L120.8,57.5L120.8,57.5z M97.7,60.7L97.7,60.7v-0.5c0,0,0.1,0,0.1,0c0.5,0,1-0.4,1-2
		c0-1.5-0.4-2.4-1.2-2.5v-0.5h0c1.7,0,2.8,1.3,2.8,2.6C100.5,59.8,99.2,60.7,97.7,60.7L97.7,60.7z M102,59.3L102,59.3
		c0,0.7-0.1,0.8-0.7,0.9v0.4h3.2v-0.4c-0.9-0.1-1-0.2-1-0.9v-3.4h1.2c0.2-0.1,0.2-0.4,0.2-0.6h-1.4V55c0-1.1,0-1.6,0-1.8
		c0-0.2,0.2-0.3,0.4-0.3c0.3,0,0.8,0.3,1,0.5c0.1,0.1,0.3,0.1,0.4,0c0.1-0.1,0.3-0.2,0.4-0.4c0-0.1,0-0.3-0.1-0.4
		c-0.2-0.2-0.6-0.4-1.2-0.4c-0.5,0-1,0.2-1.5,0.6c-0.7,0.5-0.9,1.1-1,1.4c-0.1,0.2-0.1,0.6-0.1,0.9v0.2h-0.5l-0.4,0.4l0,0.2h0.8
		L102,59.3L102,59.3z M108.3,52.9L108.3,52.9v0.4c1,0.1,1.1,0.2,1,1.6l-0.2,2.5c-0.1,1.1-0.2,1.7-0.3,2.1c0,0.4-0.3,0.6-0.8,0.7v0.4
		h2.9v-0.4c-0.8-0.1-1.1-0.2-1.1-0.7c0-0.3,0-0.9,0-1.9l0.1-3.1h0l2.3,6h0.4l2.5-6.1h0v4.6c0,1.1,0,1.2-1,1.3v0.4h3.6v-0.4
		c-0.9-0.1-1-0.2-1-1.3l-0.1-4.3c0-1.1,0-1.2,1-1.3v-0.4h-2.5l-2.2,5.2l-2.2-5.2L108.3,52.9L108.3,52.9z M97.7,55.2
		c-1.4,0-2.8,1-2.8,2.9c0,1.3,1,2.6,2.8,2.6v-0.5c-0.7-0.1-1.1-1.1-1.1-2.6c0-1.3,0.4-2,1-2c0,0,0.1,0,0.1,0V55.2L97.7,55.2
		L97.7,55.2z M75.1,60.5L75.1,60.5v-0.7c0.3,0,0.5-0.1,0.8-0.3v-1.9c-0.2,0.1-0.5,0.2-0.8,0.3v-0.5c0.4-0.1,0.6-0.2,0.8-0.4v-0.3
		c0-0.7-0.4-1-0.8-1.1v-0.5c0.1,0,0.2,0,0.3,0c0.6,0,1.1,0.2,1.4,0.4c0.4,0.3,0.5,0.8,0.5,1.3v2.2c0,0.5,0.2,0.7,0.4,0.7
		c0.2,0,0.3,0,0.4-0.1l0.2,0.4L77,60.7c-0.3,0-0.5-0.1-0.7-0.2c-0.2-0.2-0.3-0.3-0.4-0.4C75.7,60.2,75.4,60.4,75.1,60.5L75.1,60.5z
		 M79.5,59.3L79.5,59.3c0,0.7-0.1,0.8-0.8,0.9v0.4h3v-0.4c-0.5-0.1-0.6-0.1-0.6-0.9v-2.8c0.4-0.3,0.7-0.4,1-0.4
		c0.5,0,0.8,0.3,0.8,1.1v2.2c0,0.7,0,0.8-0.6,0.9v0.4h2.8v-0.4c-0.6-0.1-0.7-0.1-0.7-0.9v-2.5c0-1-0.5-1.7-1.6-1.7
		c-0.4,0-0.7,0.1-1,0.3c-0.2,0.2-0.5,0.3-0.7,0.4v-0.8c-0.6,0.2-1.4,0.3-2.2,0.4V56c0.7,0.1,0.7,0.1,0.7,0.9L79.5,59.3L79.5,59.3z
		 M86.4,59.3L86.4,59.3c0,0.7-0.1,0.8-0.9,0.9v0.4h3.2v-0.4c-0.8-0.1-0.8-0.1-0.8-0.9V58c0,0,0.1,0,0.1,0c0.1,0,0.2,0,0.4,0.3
		c0.5,0.8,1.1,1.6,1.6,2.3h2v-0.4c-0.5-0.1-0.6-0.2-0.9-0.5c-0.5-0.5-1.5-2-1.8-2.4c0.4-0.5,0.7-0.7,0.9-1c0.4-0.4,0.6-0.5,1.4-0.7
		v-0.4l-2.5,0.1v0.4c0.5,0,0.5,0.1,0.3,0.4c-0.2,0.2-0.5,0.7-0.8,1c-0.2,0.2-0.4,0.4-0.8,0.4v-5.4c-0.7,0.2-1.6,0.3-2.3,0.4v0.4
		c0.7,0.1,0.8,0.1,0.8,0.8L86.4,59.3L86.4,59.3z M68.7,60.6L68.7,60.6c0.8,0,1.5-0.2,2-0.4c0.6-0.4,1.1-0.9,1.1-1.8
		c0-1.1-1-1.8-2.2-2c0.8-0.2,1.7-0.7,1.7-1.7c0-0.6-0.3-1-0.7-1.3c-0.4-0.3-1.1-0.4-2-0.4v0.5c0.6,0.1,1,0.5,1,1.3
		c0,0.8-0.4,1.2-1,1.3v0.7c0.8,0.2,1.4,0.7,1.4,1.6c0,1.1-0.7,1.6-1.4,1.7L68.7,60.6L68.7,60.6z M75.1,55.2
		c-0.7,0.2-1.4,0.5-1.8,0.8c-0.3,0.2-0.4,0.4-0.4,0.6c0,0.3,0.5,0.6,0.8,0.6c0.3,0,0.4-0.1,0.5-0.3c0.1-0.4,0.2-0.7,0.4-0.9
		c0.1-0.1,0.3-0.2,0.5-0.2c0,0,0,0,0.1,0L75.1,55.2L75.1,55.2L75.1,55.2z M75.1,57.5c-0.5,0.2-1.1,0.3-1.4,0.5
		c-0.6,0.2-0.9,0.7-0.9,1.3c0,0.7,0.7,1.5,1.7,1.5c0.2,0,0.4-0.1,0.7-0.2v-0.7c-0.4,0-0.8-0.3-0.8-0.9c0-0.4,0.2-0.7,0.5-0.9
		c0,0,0.1-0.1,0.2-0.1L75.1,57.5L75.1,57.5L75.1,57.5z M66.2,59v-4.6c0-0.9-0.1-1-0.9-1.1v-0.4h3.4h0v0.5c-0.1,0-0.2,0-0.4,0
		c-0.3,0-0.4,0-0.5,0.1c-0.1,0-0.1,0.2-0.1,0.5v2.2h0.3c0.3,0,0.5,0,0.7-0.1v0.7c-0.2,0-0.4-0.1-0.7-0.1h-0.3V59
		c0,0.8,0.1,1.1,0.8,1.1c0.1,0,0.2,0,0.2,0v0.4c-0.2,0-0.4,0-0.6,0h-2.9v-0.4C66.1,60.1,66.2,60,66.2,59L66.2,59z"/>
	<path class="st0" d="M82.2,39.7h1.5v-1.2h-1.5V39.7L82.2,39.7z M159.6,50.5l1,0.4l1.7-1.6l1.6,1.6l1-0.4l-2-1.8h-1.3L159.6,50.5
		L159.6,50.5z M153.3,43H153h-1v4.3v1.3h-1.5v-1.3V43h-1h-0.3h-1.3c0.4,0.2,0.7,0.7,0.7,1.2c0,1.2-0.9,2.1-2.2,2.3
		c0.3,0.6,0.8,0.9,1.3,0.9c0.3,0,0.6,0,0.8-0.1v1.2c-0.2,0.1-0.5,0.1-0.8,0.1c-1.1,0-2.3-0.9-2.8-2.1c-0.2,0-0.5-0.1-0.8-0.3l0.5-1
		c0.4,0.2,0.7,0.3,1,0.3c0.8,0,1.5-0.5,1.5-1.2c0-0.7-0.7-1.2-1.5-1.2H144h-0.3h-1v4.3v1.3h-1.5v-1.3V43h-1h-0.3H139v1.6h-3
		c-0.2,0-0.3,0.1-0.3,0.3c0,0.2,0.2,0.4,0.5,0.4c0.3-0.1,0.6-0.1,0.8-0.1c1.3,0,2.3,0.8,2.3,1.7c0,0.4-0.2,0.9-0.7,1.3l-1.2-0.7
		c0.2-0.2,0.3-0.4,0.3-0.7c0-0.3-0.4-0.5-0.8-0.5c-0.8,0-1.5,0.5-1.5,1.1c0,0.7,1,1.3,2.2,1.3h1.3v1.1h-1.3c-2,0-3.7-1.1-3.7-2.6
		c0-0.6,0.3-1.1,0.8-1.5c-0.5-0.4-0.8-0.8-0.8-1.1c0-0.7,0.8-1.2,1.7-1.2h1.8V43h-4.2h-0.3h-1v4.3v1.3h-1.5v-1.3v-0.4h-2.2
		c0,0.4-0.5,0.8-1.2,0.8c-0.7,0-1.3-0.5-1.3-1.1c0-0.5,0.5-0.9,1-0.9V43h-1.6v-1.1h7.8h0.3h6.5h0.3h3.5h0.3h5.2h0.3h3.5h0.3h12V43
		h-1.4v1.9h-2c-0.9,0-1.7,0.5-1.7,1.1c0,0.8,1,1.5,2.2,1.5c0.6,0,1.2-0.2,1.8-0.5l0.8,1c-0.8,0.5-1.7,0.7-2.5,0.7
		c-1.6,0-3-0.8-3.5-1.9c-0.5,0.5-1.3,0.8-2.1,0.8c-1.6,0-2.9-1.2-2.9-2.7V43L153.3,43L153.3,43L153.3,43z M158.8,45.3
		c0.4-1,1.6-1.7,3.1-1.7h0.5V43h-6.7L158.8,45.3L158.8,45.3z M155.4,44.8c0,0.8,0.7,1.4,1.5,1.4c0.5,0,1-0.2,1.2-0.6l-2.7-2
		L155.4,44.8L155.4,44.8z M128.3,43v2.7h2.2V43H128.3L128.3,43z M112,43h0.7v2.3c0,1.2,1.1,2.1,2.3,2.1c0.5,0,1-0.2,1.3-0.5v0.4v1.3
		h1.5v-1.3v-2c0.3-0.3,0.7-0.4,1.2-0.4c0.6,0,1,0.4,1,0.9c0,0.5-0.5,1-1,0.9c-0.3,0-0.5,0-0.7-0.1v1.2c0.2,0.1,0.4,0.1,0.7,0.1
		c1.4,0,2.5-0.9,2.5-2.1s-1.1-2.1-2.5-2.1c-0.5,0-0.9,0.1-1.2,0.3V43h4.4v-1.1H112h-0.3h-3.6h-0.3h-3.3V43h0.8v1.5h-1.3v1.2h1.3v1.6
		v1.3h1.5v-1.3V43h1h0.3h1v4.3v1.3h1.5v-1.3V43h1.1H112L112,43z M114.1,45.2V43h2.2v2.3c-0.3,0.6-0.9,1-1.3,0.9
		C114.5,46.2,114.1,45.8,114.1,45.2L114.1,45.2z M107.4,38.8c0,1.2,1.2,2.1,2.7,2.1c1.5,0,2.7-1,2.7-2.1h-1.3c0,0.6-0.6,1.1-1.3,1.1
		c-0.7,0-1.3-0.5-1.3-1.1H107.4L107.4,38.8z M97.5,45.5c0,1.7,1.6,3.1,3.5,3.1c1.6,0,2.8-0.9,2.8-2c0-0.7-0.5-1.4-1.2-1.7
		c0.5-0.4,0.9-0.9,0.8-1.3c0-1-1.2-1.7-2.7-1.7c-1.1,0-2,0.3-2.5,0.9l1,0.9c0.5-0.4,1-0.7,1.5-0.7c0.7,0,1.2,0.2,1.2,0.5
		c0,0.4-0.5,0.8-1,0.8h-0.8v1.2h0.8c0.7,0,1.3,0.5,1.3,1.1c0,0.4-0.6,0.8-1.3,0.8c-1.2,0-2.2-0.9-2.2-2L97.5,45.5L97.5,45.5z
		 M83.3,43h-0.3H82v4.3v1.3h-1.5v-1.3v0.1c-0.5,0.3-1.2,0.5-2,0.5c-1.8,0-3.2-1-3.2-2.3c0-1.2,1.4-2.1,3.2-2.1c0.8,0,1.5,0.2,2,0.5
		V43h-5.8v-1.1h5.4c-0.9-0.7-1.8-1.1-2.5-1.1c-0.4,0-0.8,0.1-1.1,0.3l-0.8-0.9c0.5-0.3,1-0.5,1.5-0.5c0.9,0,2.4,0.8,4.1,2.1
		c-0.9-1.5-1.6-2.4-2.2-2.4c-0.2,0-0.5,0.1-0.7,0.2l-0.8-0.9c0.3-0.1,0.8-0.2,1.5-0.2c1,0,2.3,1.3,3.2,3.4h0.7h0.3H94V43h-4.7v0.8
		c0.3-0.2,0.7-0.3,1.2-0.3c1.6,0,2.8,1,2.8,2.1s-1.3,2.1-2.8,2.1c-0.4,0-0.7,0-0.8-0.1v-1.2c0.2,0.1,0.5,0.1,0.8,0.1
		c0.7,0,1.3-0.4,1.3-0.9s-0.6-0.9-1.3-0.9c-0.4,0-0.9,0.1-1.2,0.3v2.3v1.3h-1.5v-1.3v0.3c-0.3,0.1-0.7,0.2-1.2,0.2
		c-1.6,0-2.8-1-2.8-2.1c0-1.2,1.3-2.1,2.8-2.1c0.5,0,0.9,0.1,1.2,0.2V43L83.3,43L83.3,43z M85.1,45.6c0,0.6,0.7,1.1,1.5,1.1
		c0.5,0,0.9-0.1,1.2-0.3v-1.7c-0.3-0.1-0.7-0.2-1.2-0.2C85.8,44.6,85.1,45.1,85.1,45.6L85.1,45.6z M76.8,45.6c0,0.6,0.8,1.1,1.8,1.1
		c0.6,0,1,0,1.2-0.1l-2.7-1.5C76.9,45.2,76.8,45.4,76.8,45.6L76.8,45.6z M77.7,44.7l2.6,1.5c0.1-0.1,0.2-0.3,0.2-0.5
		c0-0.6-0.9-1.1-2-1.1C78.2,44.6,77.9,44.6,77.7,44.7z"/>
	<path class="st0" d="M95.6,66.2v-0.6h1.9v0.6h-0.6v3.3h-0.6V68h-1.1v0.3c0,0.1,0,0.1-0.1,0.2c0,0-0.1,0.1-0.1,0.1
		c-0.1,0-0.3-0.1-0.5-0.4c-0.2-0.2-0.4-0.4-0.4-0.5c0-0.1,0-0.1,0.1-0.1c0,0,0.1-0.1,0.1-0.1h0.3v-1.1c0-0.1,0-0.2-0.1-0.2
		C94.3,66,94.3,66,94.2,66c0,0-0.1,0-0.1,0.1c0,0-0.1,0.1-0.1,0.2c0,0.1,0,0.1,0,0.2c0,0.1,0.1,0.1,0.1,0.1V67
		c-0.2,0-0.4-0.1-0.5-0.2c-0.2-0.2-0.2-0.3-0.2-0.6c0-0.2,0.1-0.4,0.2-0.6c0.2-0.2,0.3-0.2,0.6-0.2c0.2,0,0.5,0.1,0.6,0.3
		c0.2,0.2,0.3,0.4,0.3,0.6v1.1h1.1v-1.2H95.6L95.6,66.2z M97.9,69.6h0.6v-3.3h0.6v-0.6h-1.9v0.6h0.6V69.6L97.9,69.6z M99,66.2v-0.6
		h2.9v0.6h-0.5v0.7c0,0.3-0.1,0.5-0.2,0.7c-0.1,0.2-0.3,0.3-0.4,0.3h-0.2c-0.1,0-0.1,0-0.1,0l1.1,1.5l-0.5,0.3L99.2,67l0.5-0.4
		c0.1,0.2,0.2,0.3,0.3,0.5c0.1,0.1,0.3,0.2,0.4,0.2c0.1,0,0.2,0,0.2-0.1c0.1-0.1,0.1-0.2,0.1-0.3v-0.7H99L99,66.2z M101.7,66.2h2.7
		v0.5H103c-0.3,0-0.5,0.1-0.7,0.3c-0.2,0.2-0.3,0.4-0.3,0.6c0,0.3,0.1,0.6,0.3,1c0.2,0.3,0.5,0.7,0.9,0.9l0.4-0.4
		c-0.3-0.2-0.6-0.5-0.7-0.7c-0.2-0.3-0.3-0.5-0.3-0.8c0-0.1,0-0.2,0.1-0.2c0.1-0.1,0.1-0.1,0.2-0.1h1.4v2.2h0.6v-3.3h0.6v-0.6h-4
		L101.7,66.2L101.7,66.2z M109.6,69.7l-1.7-2.6l0.5-0.4c0.1,0.2,0.2,0.3,0.3,0.4c0.1,0.1,0.1,0.2,0.2,0.2c0.1,0,0.1,0,0.2-0.1
		c0.1-0.1,0.1-0.1,0.1-0.2v-0.9h-1.5v-0.6h4.4v0.6h-0.6v3.3h-0.6v-1.7h-0.7l-0.3-0.6h1v-1h-1.1v0.9c0,0.2-0.1,0.4-0.2,0.6
		c-0.1,0.2-0.2,0.2-0.4,0.2c0,0-0.1,0-0.1,0c0,0-0.1,0-0.1-0.1l1,1.5L109.6,69.7L109.6,69.7z M112,66.2h1.8v0.7c0,0.1,0,0.2-0.1,0.3
		c-0.1,0.1-0.1,0.1-0.2,0.1c-0.1,0-0.3-0.1-0.4-0.2c-0.1-0.1-0.2-0.3-0.3-0.5l-0.5,0.4l1.9,2.6l0.5-0.3l-1.1-1.5c0,0,0,0,0.1,0h0.2
		c0.2,0,0.3-0.1,0.4-0.3c0.1-0.2,0.2-0.4,0.2-0.7v-0.7h0.5v-0.6H112L112,66.2L112,66.2z M116.9,69.6v-0.8c-0.1,0.1-0.2,0.1-0.3,0.1
		c-0.1,0-0.2,0-0.4,0c-0.3,0-0.6-0.1-0.9-0.3c-0.2-0.2-0.4-0.5-0.4-0.8c0-0.3,0.1-0.6,0.4-0.8c0.3-0.2,0.6-0.3,0.9-0.3
		c0.2,0,0.3,0,0.4,0.1l-0.2,0.5c0.1,0,0,0-0.1,0c-0.1,0-0.1,0-0.2,0s-0.2,0.1-0.3,0.2c-0.1,0.1-0.2,0.3-0.2,0.4
		c0,0.1,0.1,0.3,0.2,0.4c0.1,0.1,0.2,0.2,0.4,0.2c0.1,0,0.2,0,0.3-0.1c0.1-0.1,0.2-0.1,0.3-0.2v-1.8h-2.1v-0.6h4.8v0.6h-2v0.7
		c0.1-0.1,0.1-0.1,0.3-0.2c0.1,0,0.2-0.1,0.4-0.1c0.3,0,0.5,0.1,0.7,0.3c0.2,0.2,0.3,0.5,0.3,0.8c0,0.2-0.1,0.5-0.2,0.7
		c-0.1,0.2-0.3,0.5-0.6,0.7l-0.5-0.4c0.2-0.2,0.4-0.3,0.4-0.5c0.1-0.2,0.2-0.3,0.2-0.5c0-0.1,0-0.3-0.1-0.4
		c-0.1-0.1-0.2-0.1-0.3-0.1c-0.1,0-0.2,0-0.3,0.1c-0.1,0.1-0.2,0.2-0.3,0.3v1.9L116.9,69.6L116.9,69.6z M120,69.6h0.6v-3.3h0.6v-0.6
		h-1.9v0.6h0.6L120,69.6L120,69.6z M121.1,66.2v-0.6h2.9v0.6h-0.5v0.7c0,0.3-0.1,0.5-0.2,0.7c-0.1,0.2-0.3,0.3-0.4,0.3h-0.2
		c-0.1,0-0.1,0-0.1,0l1.1,1.5l-0.5,0.3l-1.9-2.6l0.5-0.4c0.1,0.2,0.2,0.3,0.3,0.5c0.1,0.1,0.3,0.2,0.4,0.2c0.1,0,0.2,0,0.2-0.1
		c0.1-0.1,0.1-0.2,0.1-0.3v-0.7H121.1L121.1,66.2z M128.2,69.6v-0.8c-0.1,0.1-0.2,0.1-0.3,0.1c-0.1,0-0.2,0-0.4,0
		c-0.3,0-0.6-0.1-0.9-0.3c-0.2-0.2-0.4-0.5-0.4-0.8c0-0.3,0.1-0.6,0.4-0.8c0.3-0.2,0.6-0.3,0.9-0.3c0.2,0,0.3,0,0.4,0.1l-0.2,0.5
		c0.1,0,0,0-0.1,0c-0.1,0-0.1,0-0.2,0c-0.1,0-0.2,0.1-0.3,0.2c-0.1,0.1-0.2,0.3-0.2,0.4c0,0.1,0.1,0.3,0.2,0.4
		c0.1,0.1,0.2,0.2,0.4,0.2c0.1,0,0.2,0,0.3-0.1c0.1-0.1,0.2-0.1,0.3-0.2v-1.8H126v-0.6h4.8v0.6h-2v0.7c0.1-0.1,0.1-0.1,0.3-0.2
		c0.1,0,0.2-0.1,0.4-0.1c0.3,0,0.5,0.1,0.7,0.3c0.2,0.2,0.3,0.5,0.3,0.8c0,0.2-0.1,0.5-0.2,0.7c-0.1,0.2-0.3,0.5-0.6,0.7l-0.5-0.4
		c0.2-0.2,0.4-0.3,0.4-0.5c0.1-0.2,0.2-0.3,0.2-0.5c0-0.1,0-0.3-0.1-0.4c-0.1-0.1-0.2-0.1-0.3-0.1c-0.1,0-0.2,0-0.3,0.1
		c-0.1,0.1-0.2,0.2-0.3,0.3v1.9L128.2,69.6L128.2,69.6z M131.2,69.6h0.6v-3.3h0.6v-0.6h-1.9v0.6h0.6V69.6L131.2,69.6z M137,69.6
		c-0.5,0-0.9-0.2-1.4-0.7c-0.4-0.5-0.7-1-0.9-1.7l0.6-0.2c0.2,0.6,0.4,1.1,0.7,1.5c0.3,0.4,0.6,0.6,1,0.6c0.1,0,0.3-0.1,0.4-0.2
		c0.1-0.1,0.2-0.3,0.1-0.4c0-0.2-0.1-0.3-0.2-0.4c-0.1-0.1-0.2-0.2-0.4-0.2h-0.6l-0.2-0.6h0.8c0.1,0,0.2,0,0.4-0.1
		c0.1-0.1,0.1-0.2,0.1-0.3c0-0.1,0-0.1-0.1-0.2c-0.1-0.1-0.1-0.2-0.2-0.3h-2.6v-0.6h4v0.6h-0.7c0.1,0.1,0.1,0.3,0.1,0.5
		c0,0.2,0,0.3-0.1,0.4c-0.1,0.1-0.1,0.2-0.2,0.3c0.2,0.1,0.3,0.2,0.4,0.4c0.1,0.2,0.1,0.4,0.1,0.5c0,0.3-0.1,0.6-0.3,0.9
		C137.6,69.4,137.3,69.6,137,69.6L137,69.6z M141.7,69.6h0.6v-3.3h0.6v-0.6h-4.5v0.6h1.8v0.3h-0.6c-0.3,0-0.5,0.1-0.6,0.2
		c-0.2,0.2-0.3,0.3-0.3,0.6c0,0.1,0,0.3,0.1,0.4c0.1,0.1,0.2,0.2,0.4,0.3c-0.1,0-0.1,0.1-0.2,0.2c0,0.1-0.1,0.2-0.1,0.3
		c0,0.3,0.1,0.5,0.4,0.7c0.2,0.2,0.5,0.3,0.9,0.3c0.3,0,0.6,0,0.8-0.1c0.2-0.1,0.4-0.2,0.6-0.4L141.7,69.6L141.7,69.6z M140.3,68.7
		c-0.2,0-0.3,0-0.5-0.1c-0.1-0.1-0.2-0.1-0.2-0.2c0-0.1,0-0.2,0.1-0.3c0.1-0.1,0.2-0.1,0.4-0.1h0.6l-0.2-0.4h-0.9
		c-0.1,0-0.2,0-0.2-0.1c-0.1-0.1-0.1-0.1-0.1-0.2c0-0.1,0-0.1,0.1-0.1c0.1,0,0.1-0.1,0.2-0.1h1.3v-0.9h0.9v1.8
		c-0.2,0.2-0.4,0.4-0.6,0.5C140.8,68.7,140.6,68.7,140.3,68.7L140.3,68.7z M142.8,66.2v-0.6h3.8v0.6h-0.6v3.3h-0.6V68h-1.2v0.4
		c0,0,0,0.1-0.1,0.1c0,0-0.1,0-0.1,0c-0.1,0-0.3-0.1-0.5-0.4c-0.3-0.2-0.4-0.4-0.4-0.5c0-0.1,0-0.1,0-0.2c0,0,0.1-0.1,0.1-0.1h0.3
		v-1.2L142.8,66.2L142.8,66.2z M144.1,67.4h1.2v-1.2h-1.2V67.4z"/>
	<g>
		<path class="st1" d="M89.1,80c0.1-0.7,0.3-1.2,0.7-1.6c0.3-0.4,0.7-0.6,1.1-0.6c0.1,0,0.3,0,0.3,0.1c0.1,0,0.1,0.1,0.1,0.2
			c0,0,0,0.1-0.1,0.1c-0.1,0.1-0.2,0.2-0.2,0.3c-0.1,0.1-0.1,0.2-0.2,0.5c-0.1,0.3-0.2,0.6-0.2,0.9c-0.1,0.4,0,0.7,0.1,1
			c0.1,0.3,0.3,0.4,0.6,0.4c0.5,0,1-0.1,1.3-0.3c-0.1,0.3-0.3,0.6-0.6,0.9c-0.4,0.2-0.8,0.4-1.2,0.4c-0.6,0-1.1-0.2-1.4-0.6
			C89.1,81.2,89,80.7,89.1,80L89.1,80z M89.3,77.2h4.7l-0.1,0.5h-4.7L89.3,77.2L89.3,77.2z M92,80.5c0.3,0,0.6-0.1,0.8-0.3
			c0.3-0.2,0.4-0.5,0.5-0.9c0.1-0.4,0-0.7-0.2-1c-0.2-0.3-0.4-0.4-0.7-0.4c-0.2,0-0.4,0-0.5,0.1c-0.1,0-0.2,0.1-0.2,0.2
			c0,0,0,0.1,0,0.1c0,0,0.1,0,0.1,0c0.1,0,0.2,0.1,0.2,0.2c0,0.1,0,0.3,0,0.5c0,0.2-0.1,0.4-0.3,0.5c-0.1,0.1-0.3,0.2-0.4,0.2
			c0,0-0.1,0-0.1,0c0,0-0.1,0-0.1,0c-0.1,0-0.1,0-0.1,0c0,0,0,0,0,0.1c0,0.2,0.1,0.3,0.3,0.5C91.4,80.5,91.7,80.5,92,80.5L92,80.5z
			 M95.8,81.2c-0.3,0.3-0.7,0.5-1.1,0.5c-0.4,0-0.7-0.2-0.9-0.5c-0.2-0.3-0.3-0.7-0.2-1.2c0.1-0.5,0.3-0.9,0.6-1.2
			c0.3-0.3,0.7-0.5,1.1-0.5c0.3,0,0.5,0.1,0.6,0.2c0.2,0.2,0.2,0.3,0.2,0.6l-0.3,0c0,0-0.1,0-0.2,0c-0.1,0-0.2,0.1-0.3,0.3
			C95.1,79.5,95,79.7,95,80c0,0.2,0,0.4,0.1,0.6c0.1,0.1,0.2,0.2,0.4,0.2c0.1,0,0.2,0,0.3-0.1c0-0.2,0.1-0.5,0.3-0.9
			c0.1-0.4,0.2-0.7,0.3-0.9c0-0.1,0-0.3,0-0.3c0-0.1-0.1-0.1-0.1-0.1c-0.1,0-0.1,0-0.1,0c0,0,0,0,0-0.1c0-0.1,0.1-0.2,0.2-0.2
			c0.1-0.1,0.3-0.1,0.5-0.1c0.3,0,0.5,0.1,0.6,0.2c0.2,0.2,0.3,0.4,0.3,0.6c0.3-0.3,0.7-0.4,1.1-0.4c0.4,0,0.7,0.1,0.9,0.4
			c0.2,0.3,0.2,0.7,0.2,1.2c-0.1,0.4-0.2,0.7-0.5,1c-0.3,0.3-0.6,0.4-0.9,0.4c-0.2,0-0.3-0.1-0.4-0.2c-0.1-0.1-0.1-0.3-0.1-0.4
			c0.1,0,0.2-0.1,0.3-0.2c0.1-0.1,0.2-0.3,0.2-0.5c0-0.2,0-0.4-0.1-0.6c-0.1-0.2-0.2-0.2-0.4-0.2c-0.1,0-0.3,0-0.4,0.1
			c0,0.1-0.1,0.4-0.2,0.6c-0.1,0.3-0.2,0.5-0.2,0.6c0,0.1,0,0.3,0,0.4c0,0.1,0.1,0.2,0.2,0.2h0.1c0,0,0,0,0.1,0c0,0,0,0,0,0.1
			c0,0.2-0.1,0.3-0.3,0.5C97.1,82,96.9,82,96.7,82c-0.2,0-0.4-0.1-0.6-0.3C95.9,81.6,95.8,81.5,95.8,81.2L95.8,81.2z M93.8,77.2
			l-0.1,0.5h6.8l0.1-0.5H93.8L93.8,77.2z M103.5,81.5c-0.5,0-0.8-0.1-1-0.4c-0.2-0.3-0.3-0.6-0.2-1c0-0.1,0.1-0.4,0.2-0.6
			c0.1-0.3,0.1-0.5,0.2-0.6c0-0.2,0-0.3,0-0.4c0-0.1-0.1-0.2-0.2-0.3c0-0.1,0.1-0.2,0.3-0.2c0.1,0,0.3,0,0.6,0
			c0.3,0,0.5,0.1,0.6,0.2c0.1,0.1,0.2,0.4,0.1,0.6c0,0.2-0.1,0.4-0.2,0.7c-0.1,0.3-0.1,0.5-0.2,0.7c0,0.2,0,0.3,0.1,0.4
			c0.1,0.1,0.2,0.2,0.3,0.2c0.1,0,0.3,0,0.4-0.1c0-0.2,0.1-0.5,0.3-0.9c0.1-0.4,0.2-0.7,0.3-0.9c0-0.1,0-0.2,0-0.3
			c0-0.1-0.1-0.1-0.1-0.1c-0.1,0-0.1,0-0.1,0c0,0,0-0.1,0-0.1c0-0.1,0.1-0.2,0.2-0.2c0.1-0.1,0.3-0.1,0.5-0.1c0.4,0,0.6,0.1,0.8,0.4
			s0.2,0.6,0.1,1c0,0.2-0.1,0.4-0.2,0.7c-0.1,0.3-0.2,0.5-0.2,0.7c0,0.1,0,0.3,0,0.4c0,0.1,0.1,0.2,0.2,0.2c0,0,0.1,0,0.1,0
			c0.1,0,0.1,0,0.2,0c0,0,0,0,0,0s0,0,0,0.1c0,0.2-0.2,0.4-0.4,0.5c-0.2,0.2-0.5,0.3-0.7,0.3c-0.2,0-0.4-0.1-0.6-0.2
			c-0.2-0.2-0.3-0.4-0.3-0.6C104.2,81.4,103.8,81.5,103.5,81.5L103.5,81.5z M102.3,77.2h5l-0.1,0.5h-5L102.3,77.2L102.3,77.2z
			 M109.9,74.8c0.8,0,1.5,0.3,2.2,1c0.2,0.1,0.3,0.2,0.3,0.3c0.1,0.1,0.2,0.1,0.2,0.1c0,0,0.1,0,0.1,0c0,0,0,0,0,0.1
			c0,0.2-0.2,0.4-0.4,0.6c-0.3,0.2-0.5,0.3-0.8,0.3c-0.1,0-0.3-0.1-0.4-0.2c-0.1-0.1-0.3-0.3-0.4-0.5c-0.1-0.2-0.3-0.4-0.4-0.5
			c-0.2-0.1-0.3-0.2-0.5-0.2c-0.2,0-0.4,0.1-0.5,0.2c-0.2,0.1-0.3,0.3-0.3,0.5c0,0,0,0.1,0,0.1c0,0.1,0,0.1,0,0.2
			c0,0.1-0.1,0.2-0.2,0.2c-0.1,0.1-0.3,0.1-0.4,0.1c-0.2,0-0.4-0.1-0.6-0.2c-0.1-0.1-0.2-0.3-0.1-0.5c0.1-0.5,0.3-0.9,0.8-1.2
			C108.8,74.9,109.3,74.8,109.9,74.8L109.9,74.8z M107.2,77.2l-0.1,0.5h2.7l0.1-0.5H107.2L107.2,77.2z M107.5,78.8
			c0-0.1,0-0.2,0-0.3c0-0.1-0.1-0.1-0.1-0.1c-0.1,0-0.1,0-0.1,0c0,0,0-0.1,0-0.1c0-0.1,0.1-0.2,0.2-0.2c0.1-0.1,0.3-0.1,0.5-0.1
			c0.4,0,0.6,0.1,0.8,0.4c0.2,0.3,0.2,0.6,0.1,1c0,0.1-0.1,0.4-0.2,0.7c-0.1,0.3-0.2,0.5-0.2,0.7c0,0.2,0,0.3,0,0.4
			c0,0.1,0.1,0.2,0.2,0.2c0,0,0.1,0,0.1,0c0.1,0,0.1,0,0.2,0c0,0,0,0,0,0c0,0,0,0,0,0.1c0,0.2-0.2,0.4-0.4,0.5
			c-0.2,0.2-0.5,0.3-0.7,0.3c-0.3,0-0.6-0.2-0.8-0.5c-0.2-0.3-0.2-0.7-0.1-1.2c0-0.2,0.1-0.5,0.3-0.9
			C107.4,79.1,107.5,78.9,107.5,78.8L107.5,78.8z M110.8,80.3c0,0.2,0.1,0.3,0.3,0.4c0.1,0.1,0.3,0.2,0.5,0.2c0.1,0,0.2,0,0.4-0.1
			c0,0,0.1,0,0.1,0c0,0,0,0,0,0c0,0,0,0,0,0.1c0,0.1,0,0.1,0,0.2c-0.1,0.3-0.2,0.5-0.4,0.7c-0.2,0.2-0.5,0.3-0.8,0.3
			c-0.3,0-0.5-0.1-0.7-0.3c-0.2-0.2-0.4-0.4-0.4-0.8c-0.1-0.2-0.1-0.3-0.2-0.4c0-0.1-0.1-0.2-0.2-0.2c0,0-0.1,0-0.1,0c0,0,0,0,0-0.1
			c0,0,0-0.1,0.1-0.1c0,0,0.1,0,0.1,0c0.4-0.1,0.7-0.3,1-0.5c0.3-0.2,0.4-0.4,0.4-0.7c0-0.2,0-0.4-0.1-0.5c-0.1-0.1-0.2-0.2-0.4-0.2
			c0,0-0.1,0-0.1,0c0,0,0,0,0-0.1c0-0.1,0.1-0.2,0.3-0.3c0.2-0.1,0.4-0.1,0.6-0.1c0.3,0,0.6,0.1,0.8,0.4c0.2,0.3,0.3,0.6,0.2,0.9
			c-0.1,0.3-0.2,0.5-0.5,0.8C111.5,80.1,111.2,80.3,110.8,80.3L110.8,80.3z M109.7,77.2h3.3l-0.1,0.5h-3.3L109.7,77.2L109.7,77.2z
			 M112.9,77.2l-0.1,0.5h4.8l0.1-0.5H112.9L112.9,77.2z M114.8,81.2c-0.4,0.3-0.8,0.5-1.1,0.5c-0.4,0-0.7-0.2-0.9-0.5
			c-0.2-0.3-0.3-0.7-0.2-1.2c0.1-0.5,0.3-0.9,0.6-1.2c0.3-0.3,0.7-0.5,1.1-0.5c0.3,0,0.5,0.1,0.6,0.3c0.2,0.2,0.2,0.3,0.2,0.6
			l-0.2,0c0,0-0.1,0-0.1,0c-0.2,0-0.3,0.1-0.5,0.2c-0.1,0.2-0.2,0.4-0.3,0.6c0,0.2,0,0.4,0.1,0.6c0.1,0.1,0.2,0.2,0.4,0.2
			c0.1,0,0.2,0,0.3-0.1c0-0.2,0.1-0.6,0.3-0.9c0.1-0.4,0.2-0.7,0.3-1c0-0.1,0-0.2,0-0.3c0-0.1-0.1-0.1-0.1-0.1c-0.1,0-0.1,0-0.1,0
			c0,0,0-0.1,0-0.1c0-0.1,0.1-0.2,0.2-0.2c0.1-0.1,0.3-0.1,0.5-0.1c0.4,0,0.6,0.1,0.8,0.4c0.2,0.3,0.2,0.6,0.1,1
			c0,0.1-0.1,0.4-0.2,0.7c-0.1,0.3-0.2,0.5-0.2,0.7c0,0.2,0,0.3,0,0.4c0,0.1,0.1,0.2,0.2,0.2c0,0,0.1,0,0.1,0c0.1,0,0.1,0,0.2,0
			c0,0,0,0,0,0c0,0,0,0,0,0.1c0,0.2-0.2,0.4-0.4,0.5c-0.2,0.2-0.5,0.3-0.7,0.3c-0.2,0-0.4-0.1-0.6-0.2
			C115,81.7,114.9,81.5,114.8,81.2L114.8,81.2z M117.9,78.8c0-0.1,0-0.2,0-0.3c0-0.1-0.1-0.1-0.1-0.1c-0.1,0-0.1,0-0.1,0
			c0,0,0-0.1,0-0.1c0-0.1,0.1-0.2,0.2-0.2c0.1-0.1,0.3-0.1,0.5-0.1c0.4,0,0.6,0.1,0.8,0.4c0.2,0.3,0.2,0.6,0.1,1
			c0,0.1-0.1,0.4-0.2,0.7c-0.1,0.3-0.2,0.5-0.2,0.7c0,0.2,0,0.3,0,0.4c0,0.1,0.1,0.2,0.2,0.2c0,0,0.1,0,0.1,0c0.1,0,0.1,0,0.2,0
			c0,0,0,0,0,0c0,0,0,0,0,0.1c0,0.2-0.2,0.4-0.4,0.5c-0.2,0.2-0.5,0.3-0.7,0.3c-0.3,0-0.6-0.2-0.8-0.5c-0.2-0.3-0.2-0.7-0.1-1.2
			c0-0.2,0.1-0.5,0.3-0.9C117.8,79.1,117.9,78.9,117.9,78.8L117.9,78.8z M117.6,77.2h2.7l-0.1,0.5h-2.7L117.6,77.2L117.6,77.2z
			 M121.2,80.3c0,0.2,0.1,0.3,0.2,0.4c0.1,0.1,0.3,0.2,0.5,0.2c0.1,0,0.2,0,0.4-0.1c0,0,0.1,0,0.1,0c0,0,0,0,0,0c0,0,0,0,0,0.1
			s0,0.1,0,0.2c-0.1,0.3-0.2,0.5-0.4,0.7c-0.2,0.2-0.5,0.3-0.8,0.3c-0.3,0-0.5-0.1-0.7-0.3c-0.2-0.2-0.4-0.4-0.4-0.8
			c-0.1-0.2-0.1-0.3-0.2-0.4c0-0.1-0.1-0.2-0.2-0.2c0,0-0.1,0-0.1,0c0,0,0,0,0-0.1c0,0,0-0.1,0.1-0.1c0,0,0.1,0,0.1,0
			c0.4-0.1,0.7-0.3,1-0.5c0.3-0.2,0.4-0.4,0.4-0.7c0-0.2,0-0.4-0.1-0.5c-0.1-0.1-0.2-0.2-0.4-0.2c0,0-0.1,0-0.1,0c0,0,0,0,0-0.1
			c0-0.1,0.1-0.2,0.3-0.3c0.2-0.1,0.4-0.1,0.6-0.1c0.3,0,0.6,0.1,0.8,0.4c0.2,0.3,0.3,0.6,0.2,0.9c-0.1,0.3-0.2,0.5-0.5,0.8
			C121.9,80.1,121.6,80.3,121.2,80.3L121.2,80.3z M120.1,77.2l-0.1,0.5h3.3l0.1-0.5H120.1z"/>
		<path class="st1" d="M126.8,80c0.1-0.7,0.3-1.2,0.7-1.6c0.3-0.4,0.7-0.6,1.1-0.6c0.1,0,0.3,0,0.3,0.1c0.1,0,0.1,0.1,0.1,0.2
			c0,0,0,0.1-0.1,0.1c-0.1,0.1-0.2,0.2-0.2,0.3c-0.1,0.1-0.1,0.2-0.2,0.5c-0.1,0.3-0.2,0.6-0.2,0.9c-0.1,0.4,0,0.7,0.1,1
			c0.1,0.3,0.3,0.4,0.6,0.4c0.5,0,1-0.1,1.3-0.3c-0.1,0.3-0.3,0.6-0.6,0.9c-0.4,0.2-0.8,0.4-1.2,0.4c-0.6,0-1.1-0.2-1.4-0.6
			C126.8,81.2,126.7,80.7,126.8,80L126.8,80z M127,77.2h4.7l-0.1,0.5h-4.7L127,77.2L127,77.2z M129.7,80.5c0.3,0,0.6-0.1,0.8-0.3
			c0.3-0.2,0.4-0.5,0.5-0.9c0.1-0.4,0-0.7-0.2-1c-0.2-0.3-0.4-0.4-0.7-0.4c-0.2,0-0.4,0-0.5,0.1c-0.1,0-0.2,0.1-0.2,0.2
			c0,0,0,0.1,0,0.1c0,0,0.1,0,0.1,0c0.1,0,0.2,0.1,0.2,0.2c0,0.1,0,0.3,0,0.5c0,0.2-0.1,0.4-0.3,0.5c-0.1,0.1-0.3,0.2-0.4,0.2
			c0,0-0.1,0-0.1,0c0,0-0.1,0-0.1,0c-0.1,0-0.1,0-0.1,0c0,0,0,0,0,0.1c0,0.2,0.1,0.3,0.3,0.5C129.2,80.5,129.4,80.5,129.7,80.5
			L129.7,80.5z M133.5,81.2c-0.3,0.3-0.7,0.5-1.1,0.5c-0.4,0-0.7-0.2-0.9-0.5c-0.2-0.3-0.3-0.7-0.2-1.2c0.1-0.5,0.3-0.9,0.6-1.2
			c0.3-0.3,0.7-0.5,1.1-0.5c0.3,0,0.5,0.1,0.6,0.2c0.2,0.2,0.2,0.3,0.2,0.6l-0.3,0c0,0-0.1,0-0.2,0c-0.1,0-0.2,0.1-0.3,0.3
			c-0.1,0.2-0.2,0.4-0.3,0.6c0,0.2,0,0.4,0.1,0.6c0.1,0.1,0.2,0.2,0.4,0.2c0.1,0,0.2,0,0.3-0.1c0-0.2,0.1-0.5,0.3-0.9
			c0.1-0.4,0.2-0.7,0.3-0.9c0-0.1,0-0.3,0-0.3c0-0.1-0.1-0.1-0.1-0.1c-0.1,0-0.1,0-0.1,0c0,0,0,0,0-0.1c0-0.1,0.1-0.2,0.2-0.2
			c0.1-0.1,0.3-0.1,0.5-0.1c0.3,0,0.5,0.1,0.6,0.2c0.2,0.2,0.3,0.4,0.3,0.6c0.3-0.3,0.7-0.4,1.1-0.4c0.4,0,0.7,0.1,0.9,0.4
			c0.2,0.3,0.2,0.7,0.2,1.2c-0.1,0.4-0.2,0.7-0.5,1c-0.3,0.3-0.6,0.4-0.9,0.4c-0.2,0-0.3-0.1-0.4-0.2c-0.1-0.1-0.1-0.3-0.1-0.4
			c0.1,0,0.2-0.1,0.3-0.2c0.1-0.1,0.2-0.3,0.2-0.5c0-0.2,0-0.4-0.1-0.6c-0.1-0.2-0.2-0.2-0.4-0.2c-0.1,0-0.3,0-0.4,0.1
			c0,0.1-0.1,0.4-0.2,0.6c-0.1,0.3-0.2,0.5-0.2,0.6c0,0.1,0,0.3,0,0.4c0,0.1,0.1,0.2,0.2,0.2h0.1c0,0,0,0,0.1,0c0,0,0,0,0,0.1
			c0,0.2-0.1,0.3-0.3,0.5c-0.2,0.1-0.4,0.2-0.6,0.2c-0.2,0-0.4-0.1-0.6-0.3C133.7,81.6,133.6,81.5,133.5,81.2L133.5,81.2z
			 M131.5,77.2l-0.1,0.5h6.8l0.1-0.5H131.5L131.5,77.2z M139.8,80.1c0.1-0.5,0.3-0.9,0.6-1.2c0.3-0.3,0.7-0.5,1.1-0.5
			c0.3,0,0.5,0.1,0.6,0.2c0.2,0.2,0.2,0.3,0.2,0.6c-0.1,0-0.2,0-0.3,0c-0.1,0-0.2,0-0.3,0.1l0.4,1.3c0-0.2,0.1-0.5,0.2-0.8
			c0.1-0.4,0.2-0.7,0.2-0.8c0-0.1,0-0.2,0-0.3c0-0.1-0.1-0.1-0.1-0.1c0,0-0.1,0-0.1,0c0,0,0-0.1,0-0.1c0-0.1,0.1-0.2,0.2-0.2
			c0.1-0.1,0.3-0.1,0.5-0.1c0.4,0,0.6,0.1,0.8,0.4c0.2,0.3,0.2,0.6,0.1,1c0,0.1-0.1,0.4-0.2,0.7c-0.1,0.3-0.2,0.5-0.2,0.7
			c0,0.1,0,0.3,0,0.4c0,0.1,0.1,0.2,0.2,0.2c0,0,0.1,0,0.1,0c0.1,0,0.1,0,0.2,0c0,0,0,0,0,0c0,0,0,0,0,0.1c0,0.2-0.2,0.4-0.4,0.5
			c-0.2,0.2-0.5,0.3-0.7,0.3c-0.2,0-0.4-0.1-0.6-0.2c-0.2-0.1-0.3-0.3-0.3-0.6c-0.2,0.2-0.4,0.3-0.6,0.4c-0.2,0.1-0.4,0.1-0.6,0.1
			c-0.4,0-0.7-0.2-0.9-0.5C139.7,81,139.7,80.6,139.8,80.1L139.8,80.1z M141.8,80.9l-0.4-1.4c-0.1,0.1-0.1,0.1-0.2,0.3
			c0,0.1-0.1,0.2-0.1,0.3c0,0.2,0,0.4,0.1,0.6c0.1,0.2,0.2,0.2,0.4,0.2C141.6,80.9,141.7,80.9,141.8,80.9L141.8,80.9z M140,77.2h4.9
			l-0.1,0.5H140L140,77.2L140,77.2z M143.3,76.6c0,0.1-0.1,0.3-0.4,0.4c-0.2,0.1-0.4,0.2-0.6,0.2c-0.1,0-0.3-0.1-0.4-0.2
			c-0.1-0.1-0.2-0.3-0.2-0.6c0-0.2-0.1-0.3-0.1-0.4c-0.1-0.1-0.2-0.2-0.3-0.2c0,0-0.1,0-0.1,0c0,0-0.1,0-0.1,0c0,0,0,0,0,0
			c0,0,0,0,0,0c0-0.1,0.1-0.2,0.2-0.3c0.1-0.1,0.3-0.2,0.5-0.3c0.1-0.1,0.3-0.1,0.4-0.1c0.1,0,0.2,0,0.3,0.1
			c0.1,0.1,0.2,0.2,0.2,0.3l0.3,0.7c0,0.1,0.1,0.2,0.1,0.2C143.1,76.5,143.2,76.5,143.3,76.6C143.2,76.5,143.2,76.5,143.3,76.6
			C143.3,76.6,143.3,76.6,143.3,76.6L143.3,76.6z M144.8,76.6C144.8,76.6,144.8,76.5,144.8,76.6C144.8,76.5,144.8,76.5,144.8,76.6
			c-0.2,0-0.3-0.1-0.4-0.3c-0.1-0.1-0.1-0.3-0.1-0.6c0-0.3,0-0.6-0.2-0.8c-0.2-0.2-0.4-0.3-0.6-0.3c-0.2,0-0.4,0-0.5,0.1
			c-0.2,0.1-0.2,0.2-0.3,0.3c0,0,0,0,0,0c0,0,0.1,0,0.1,0c0.1,0,0.2,0.1,0.3,0.3c0.1,0.2,0.1,0.4,0,0.7c0,0.3,0,0.5,0.2,0.7
			c0.1,0.2,0.3,0.3,0.5,0.3c0.2,0,0.3-0.1,0.5-0.2C144.7,76.8,144.8,76.7,144.8,76.6L144.8,76.6z M145.4,74.8c0.2,0,0.3,0.1,0.4,0.2
			c0.1,0.1,0.2,0.3,0.1,0.4c0,0.2-0.1,0.3-0.3,0.4c-0.2,0.1-0.3,0.2-0.5,0.2c-0.2,0-0.3-0.1-0.5-0.2c-0.1-0.1-0.2-0.3-0.1-0.4
			c0-0.2,0.1-0.3,0.3-0.4C145,74.8,145.2,74.8,145.4,74.8L145.4,74.8z M146.8,81.2c-0.3,0.3-0.7,0.5-1.1,0.5c-0.4,0-0.7-0.2-0.9-0.5
			c-0.2-0.3-0.3-0.7-0.2-1.2c0.1-0.5,0.3-0.9,0.6-1.2c0.3-0.3,0.7-0.5,1.1-0.5c0.3,0,0.5,0.1,0.6,0.2c0.2,0.2,0.2,0.3,0.2,0.6
			l-0.3,0c0,0-0.1,0-0.2,0s-0.2,0.1-0.3,0.3c-0.1,0.2-0.2,0.4-0.3,0.6c0,0.2,0,0.4,0.1,0.6c0.1,0.1,0.2,0.2,0.4,0.2
			c0.1,0,0.2,0,0.3-0.1c0-0.2,0.1-0.5,0.3-0.9c0.1-0.4,0.2-0.7,0.3-0.9c0-0.1,0-0.3,0-0.3c0-0.1-0.1-0.1-0.1-0.1c-0.1,0-0.1,0-0.1,0
			c0,0,0,0,0-0.1c0-0.1,0.1-0.2,0.2-0.2c0.1-0.1,0.3-0.1,0.5-0.1c0.3,0,0.5,0.1,0.6,0.2c0.2,0.2,0.3,0.4,0.3,0.6
			c0.3-0.3,0.7-0.4,1.1-0.4c0.4,0,0.7,0.1,0.9,0.4c0.2,0.3,0.2,0.7,0.2,1.2c-0.1,0.4-0.2,0.7-0.5,1c-0.3,0.3-0.6,0.4-0.9,0.4
			c-0.2,0-0.3-0.1-0.4-0.2c-0.1-0.1-0.1-0.3-0.1-0.4c0.1,0,0.2-0.1,0.3-0.2c0.1-0.1,0.2-0.3,0.2-0.5c0-0.2,0-0.4-0.1-0.6
			c-0.1-0.2-0.2-0.2-0.4-0.2c-0.1,0-0.3,0-0.4,0.1c0,0.1-0.1,0.4-0.2,0.6c-0.1,0.3-0.2,0.5-0.2,0.6c0,0.1,0,0.3,0,0.4
			c0,0.1,0.1,0.2,0.2,0.2h0.1c0,0,0,0,0.1,0c0,0,0,0,0,0.1c0,0.2-0.1,0.3-0.3,0.5c-0.2,0.1-0.4,0.2-0.6,0.2c-0.2,0-0.4-0.1-0.6-0.3
			C146.9,81.6,146.8,81.5,146.8,81.2L146.8,81.2z M144.8,77.2l-0.1,0.5h6.8l0.1-0.5H144.8z"/>
		<path class="st1" d="M113.9,85.1c-2.3-1.1-2.8-0.8-2.4-0.9c8.9-1,17.7-2.5,33.3,0.4C130.8,83,122.4,83.9,113.9,85.1z"/>
	</g>
</g>
</svg>
