<?xml version="1.0" encoding="utf-8"?>
<!-- Generator: Adobe Illustrator 26.0.1, SVG Export Plug-In . SVG Version: 6.00 Build 0)  -->
<svg version="1.1" id="Layer_1" xmlns="http://www.w3.org/2000/svg" xmlns:xlink="http://www.w3.org/1999/xlink" x="0px" y="0px"
	 viewBox="0 0 202 120" style="enable-background:new 0 0 202 120;" xml:space="preserve">
<style type="text/css">
	.st0{fill:#176FC1;}
	.st1{fill:#FFFFFF;}
	.st2{fill:#CE0F3E;}
</style>
<g>
	<path id="path5579" class="st0" d="M19,80.9h41.5V39.1H19V80.9L19,80.9z"/>
	<path id="path5583" class="st0" d="M61.6,80.9H183V39.2H61.6V80.9z"/>
	<g id="g5585" transform="translate(404.21829,63.064865)">
		<path id="path5587" class="st1" d="M-231.4,6.1l0,0.1l0,0.1l0,0.1l0,0.1l0,0.1l-0.1,0.1l-0.1,0.1l-0.1,0.1l-0.1,0.1l-0.1,0.1
			l-0.1,0.1l-0.1,0.1l0,0l-0.1,0l-0.1,0l0,0l-0.1,0l-0.1,0l-0.1,0l-0.1,0l0,0l-0.1,0l-0.1,0h-0.1l-0.1,0l-0.1,0l-0.1,0l-0.1,0
			l-0.1,0l0,0l-0.1,0l0,0l0,0l0,0l0,0l0,0l0,0l0,0l-0.1-0.1l0-0.1l0-0.1l0-0.1l0-0.1V6.6l0-0.1l0-0.1l0-0.1l0-0.1l0.1-0.1l0.1-0.1
			l0.1-0.1l0.1-0.1l0.1-0.1l0.1-0.1l0.1-0.1l0.1-0.1l0.1,0l0.1,0l0.1,0l0.1,0l0.1,0l0.1,0l0.1,0l0.1,0h0l0.1,0l0.1,0h0.1h0.1l0.1,0
			l0.1,0l0.1,0l0,0l0.1,0l0,0l0.1,0l0,0l0,0l0,0l0,0l0,0l0,0.1l0,0l0.1,0.1l0,0.1l0,0.1l0,0.1l0,0.1V6.1z M-231,3.5l-0.1,0.6
			l-0.1-0.1l-0.1-0.1l-0.1-0.1l-0.1-0.1l-0.1-0.1l-0.1-0.1l-0.1,0l-0.1,0l-0.1,0l-0.1,0l-0.1,0l-0.1,0l-0.1,0l-0.1,0l-0.1,0l-0.1,0
			l0,0h-0.3l-0.1,0l-0.1,0l-0.1,0l-0.1,0l-0.1,0l-0.1,0l-0.1,0.1l-0.1,0l-0.1,0.1l-0.1,0.1l-0.1,0.1l-0.1,0.1l-0.1,0.1l-0.1,0.1
			l-0.1,0.1l-0.1,0.1l-0.1,0.1l-0.1,0.1l-0.1,0.1l-0.1,0.1L-235,5l-0.1,0.1l-0.1,0.1l-0.1,0.1l-0.1,0.1l-0.1,0.1l-0.1,0.1l0,0.1
			l0,0.2l0,0.1l0,0.2l0,0.1l0,0.2l0,0.1l0,0.1v0.1l0,0.1v0.1l0,0.1l0,0.1l0,0.1l0,0.1l0,0.1l0.1,0.1l0,0.1l0.1,0.1l0.1,0.1l0.1,0.1
			l0.1,0.1l0.1,0.1l0.1,0.1l0.1,0.1l0.1,0.1l0.1,0.1l0.1,0.1l0.1,0l0.1,0l0.1,0l0.1,0l0.1,0l0.1,0l0.1,0l0.1,0h0.1l0,0l0,0l0.1,0
			l0.1,0l0.1,0l0.1,0l0.1,0l0.1,0l0.1-0.1l0.1,0l0,0l0.1,0l0.1-0.1l0.1-0.1l0.1-0.1l0.1-0.1l0.1-0.1l0.1-0.1l0.1-0.1h0l-0.1,0.6h1.8
			l1-5.7H-231z M-235.5,1.9l0.1-0.1l0.1-0.1l0-0.1l0-0.1l0-0.1l0-0.1l0-0.1V1l0-0.1l0-0.1l0-0.1l0-0.1l-0.1-0.1l-0.1-0.1l-0.1-0.1
			l-0.1-0.1l-0.1,0l-0.1,0l-0.1,0l-0.1,0l-0.1,0h-0.1l-0.1,0l-0.1,0l-0.1,0l-0.1,0.1l-0.1,0.1l-0.1,0.1l-0.1,0.1l-0.1,0.1l-0.1,0.1
			l-0.1,0.1l0,0.1l-0.1,0.1l0,0.1l0,0.1l0,0.1l0,0.1l0,0.1v0.1l0,0.1l0,0.1l0,0.1l0,0.1l0.1,0.1l0.1,0.1l0.1,0.1l0.1,0.1l0.1,0
			l0.1,0l0.1,0l0.1,0l0.1,0l0.1,0l0.1,0l0.1,0l0.1,0l0.1,0l0.1-0.1l0.1-0.1l0.1-0.1l0.1-0.1L-235.5,1.9L-235.5,1.9z M-238.6,9.2
			l1-5.7h1.8l-1.1,5.7H-238.6z M-240.8,6.1l0,0.1l0,0.1l0,0.1l0,0.1l0,0.1l-0.1,0.1l-0.1,0.1l-0.1,0.1l-0.1,0.1l-0.1,0.1l-0.1,0.1
			l-0.1,0.1l-0.1,0l0,0l-0.1,0l-0.1,0l-0.1,0l-0.1,0l-0.1,0l-0.1,0l0,0l-0.1,0l-0.1,0h-0.1l-0.1,0l-0.1,0l-0.1,0l-0.1,0l0,0l-0.1,0
			l0,0l-0.1,0l0,0l0,0l0,0l0,0l0,0l0,0l0,0l-0.1-0.1l-0.1-0.1l0-0.1l0-0.1l0-0.1V6.6l0-0.1l0-0.1l0-0.1l0-0.1L-243,6l0.1-0.1
			l0.1-0.1l0.1-0.1l0.1-0.1l0.1-0.1l0.1-0.1l0.1-0.1l0.1,0l0.1,0l0,0l0.1,0l0.1,0l0.1,0l0.1,0l0,0h0l0.1,0l0.1,0h0.1h0.1l0.1,0
			l0.1,0l0.1,0l0.1,0l0.1,0l0,0l0,0l0,0l0,0l0,0l0,0l0,0l0,0.1l0,0l0.1,0.1l0,0.1l0,0.1l0,0.1l0,0.1V6.1z M-239.7,0l-0.7,4.1l0-0.1
			l-0.1-0.1l-0.1-0.1l-0.1-0.1l-0.1-0.1l-0.1,0l-0.1,0l-0.1,0l-0.1,0l-0.1,0l-0.1,0l-0.1,0l-0.2,0l-0.1,0l0,0h-0.3l-0.1,0l-0.1,0
			l-0.1,0l-0.1,0l-0.1,0l-0.1,0l-0.1,0.1l-0.1,0l-0.1,0.1l-0.1,0.1l-0.1,0.1l-0.1,0.1l-0.1,0.1l-0.1,0.1l-0.1,0.1l-0.1,0.1l-0.1,0.1
			l-0.1,0.1l-0.1,0.1l-0.1,0.1l-0.1,0.1l-0.1,0.1l-0.1,0.1l-0.1,0.1l-0.1,0.1l0,0.1l-0.1,0.1l0,0.1l0,0.2l0,0.1l0,0.2l0,0.1l0,0.2
			l0,0.1l0,0.1v0.1l0,0.1l0,0.1l0,0.1l0,0.1l0,0.1l0,0.1l0,0.1l0,0.1l0.1,0.1l0.1,0.1l0.1,0.1l0.1,0.1l0.1,0.1l0.1,0.1l0.1,0.1
			l0.1,0.1l0.1,0.1l0.1,0.1l0.1,0.1l0.1,0l0.1,0l0.1,0l0.1,0l0.1,0l0.1,0l0.1,0l0.1,0h0.1l0,0l0,0l0.1,0l0.1,0l0.1,0l0.1,0l0.1,0
			l0.1,0l0.1-0.1l0.1,0l0,0l0.1,0l0.1-0.1l0.1-0.1l0.1-0.1l0.1-0.1l0.1-0.1l0.1-0.1l0.1-0.1h0l-0.1,0.6h1.8L-238,0H-239.7z
			 M-245.6,4.6l0,0.1l0,0.1v0.2l0,0.1l0,0.3l0,0.1l0,0.1l-0.6,3.5h-1.8l0.5-2.8v0l0,0v0l0,0l0,0l0-0.1l0-0.1l0-0.1l0-0.1v0l0-0.1
			l0-0.1V5.5l0-0.1l0-0.1l0-0.1l0-0.1l0,0l0,0l0,0l0,0l0,0l0,0l0,0l0,0l-0.1,0l-0.1,0l-0.1,0h-0.2l-0.1,0l-0.1,0l0,0l-0.1,0l-0.1,0
			l0,0l-0.1,0l0,0l0,0l-0.1,0l0,0l0,0l0,0l0,0l-0.1,0.1l-0.1,0.1l-0.1,0.1l-0.1,0.1l0,0.1l0,0.1l0,0.1l0,0.1l-0.5,2.9h-1.8l1-5.7
			h1.8l-0.1,0.7h0l0.1-0.1l0.1-0.1l0.1-0.1l0.1-0.1l0.1-0.1l0.1-0.1l0.1-0.1l0.1-0.1l0.1,0l0.1,0l0.1,0l0.1,0l0.1,0l0.1,0l0.1,0h0.2
			l0.1,0l0.1,0l0.1,0l0.1,0l0.1,0l0.1,0l0.1,0l0.1,0.1l0.1,0l0.1,0.1l0.1,0.1l0.1,0.1l0,0.1l0,0.1l0,0.1l0,0.1l0,0.1l0,0.1l0,0.1
			L-245.6,4.6L-245.6,4.6L-245.6,4.6z M-253,0.8l-1.6,8.4h1.9l1.5-8.4H-253L-253,0.8z M-257,0L-257,0l-0.2-0.1l-0.1,0l-0.1,0l-0.1,0
			h-0.2l-0.1,0l-0.1,0l-0.1,0l-0.1,0l-0.1,0l-0.1,0l-0.1,0.1l-0.1,0.1l-0.1,0.1l-0.1,0.1l-0.1,0.1l-0.1,0.1l-0.1,0.1l-0.1,0.1
			l-0.1,0.1l-0.1,0l0,0.1l0,0.1l0,0l0,0.1l0,0l0,0.1l0,0l-0.1,0.1l-0.1,0.1l-0.1,0.1l0,0.1l0,0.1l0,0.1l0,0.1l0,0.1l-0.1,0.2
			l-0.1,0.2l0,0.2l0,0.2l-0.1,0.7h-0.6l-0.3,1.7h0.6l-0.7,4h1.8l0.7-4h1.2l0.3-1.7h-1.2l0.2-0.9l0-0.1l0-0.1l0-0.1l0-0.1l0-0.1
			l0-0.1l0-0.1l0-0.1l0.1-0.1l0,0l0.1,0l0.1,0l0.1,0l0.1,0l0.1,0l0.1,0h0.1l0.1,0l0.1,0l0.1,0l0.1,0l0,0l0.1,0l0.1,0l0,0l0,0l0,0
			l0,0l0.3-1.7L-257,0L-257,0L-257,0z M-263.7,6.1l0,0.1l0,0.1l0,0.1l0,0.1l-0.1,0.1l-0.1,0.1L-264,7l-0.1,0.1l-0.2,0.2l-0.1,0.1
			l-0.1,0.1l0,0l-0.1,0l-0.1,0l-0.1,0l-0.1,0l-0.1,0l-0.1,0l-0.1,0l0,0l-0.1,0l-0.1,0h-0.1l-0.1,0l0,0l-0.1,0l-0.1,0l-0.1,0l-0.1,0
			l-0.1,0l0,0l0,0l0,0l0,0l0,0l0,0l-0.1-0.1l-0.1-0.1l0-0.1l0-0.1l0-0.1l0-0.1V6.6l0-0.1l0-0.1l0-0.1l0-0.1l0-0.1l0-0.1l0.1-0.1
			l0.1-0.1l0.1-0.1l0.1-0.1l0.1-0.1l0.1-0.1l0.1,0l0,0l0.1,0l0.1,0l0.1,0l0.1,0l0.1,0l0.1,0h0l0.1,0l0.1,0h0.1h0.1l0.1,0l0.1,0
			l0.1,0l0.1,0l0,0l0.1,0l0,0l0.1,0l0,0l0,0l0,0l0,0l0,0.1l0,0l0,0.1l0,0.1l0,0.1l0,0.1l0,0.1V6.1L-263.7,6.1z M-261.9,5.4l0-0.1
			l0-0.1l0-0.1l0-0.1l-0.1-0.1l-0.1-0.1l-0.1-0.1l-0.1-0.1l-0.1-0.1l-0.1-0.1l-0.1-0.1l-0.1-0.1l-0.1-0.1l-0.1-0.1l-0.2-0.1
			l-0.1-0.1l-0.1,0l-0.1,0l-0.1,0l-0.1,0l-0.1,0l-0.1,0l-0.1,0l-0.1,0l-0.2,0v0h-0.2l-0.2,0l-0.1,0l-0.1,0l0,0l-0.2,0l-0.1,0l-0.1,0
			l-0.1,0l-0.3,0.1l-0.1,0.1l-0.1,0.1l-0.1,0.1l-0.1,0.1l-0.1,0.1l-0.1,0.1l-0.1,0.1l-0.1,0.1l-0.1,0.1l-0.1,0.1l-0.1,0.1l-0.1,0.1
			l-0.1,0.1l-0.2,0.3l-0.1,0.1l-0.1,0.2l-0.1,0.1l-0.1,0.2l0,0.2l0,0.2l0,0.2l0,0.2l0,0.2l0,0.2v0.2v0.2l0,0.1l0,0.2l0,0.1l0,0.1
			l0,0.1l0,0.1l0.1,0.1l0.1,0.1l0.1,0.1l0.1,0.1l0.1,0.1l0.1,0.1l0.1,0.1l0.1,0.1L-267,9l0.1,0.1l0.1,0.1l0.1,0.1l0.1,0.1l0.1,0
			l0.1,0l0.1,0l0.1,0l0.1,0l0.1,0l0.1,0l0.1,0l0.2,0l0.1,0l0.1,0l0.1,0l0,0l0.2,0l0.1,0l0.1,0l0.1,0l0.1-0.1l0.1-0.1l0.1-0.1
			l0.3-0.1l0.1-0.1l0.1-0.1l0.1-0.1l0.2-0.2l0.1-0.1l0.1-0.1l0.1-0.1l0.1-0.1l0.1-0.1l0.1-0.1l0.1-0.1l0.1-0.2l0.1-0.2l0.1-0.2
			l0.1-0.2l0.1-0.2l0-0.2l0.1-0.4l0-0.2l0-0.2l0-0.2l0-0.1L-261.9,5.4L-261.9,5.4z M-272.9,3.5l-2.2,2.1l1-5.6h-1.8l-1.7,9.2h1.7
			l0.4-2.3l1.5,2.3h2.5l-2.1-3.1l3-2.6H-272.9z M-278,4.6L-278,4.6l0-0.2l0-0.1l0-0.1l0-0.1l0-0.1l0-0.1l0-0.1l0-0.1l-0.1-0.1
			l-0.1-0.1l-0.1-0.1l-0.1-0.1l-0.1,0l-0.1-0.1l-0.1,0l-0.1,0l-0.1,0l-0.1,0l-0.1,0l-0.1,0l-0.1,0h-0.2l-0.1,0l-0.1,0l-0.1,0l-0.1,0
			l-0.1,0l-0.2,0.1l-0.1,0.1l-0.1,0.1l-0.1,0.1l-0.1,0.1l-0.1,0.1L-281,4l-0.1,0.1l-0.1,0.1h0l0.1-0.7h-1.8l-1,5.7h1.8l0.5-2.9
			l0-0.1l0-0.1l0-0.1l0.1-0.1l0-0.1l0.1-0.1l0.1-0.1l0.1-0.1l0,0l0.1-0.1l0,0l0,0l0,0l0,0l0.1,0l0.1,0l0,0l0.1,0l0.1,0l0.1,0l0.1,0
			l0.1,0h0.2l0.1,0l0.1,0l0.1,0l0,0l0,0l0,0l0,0l0,0l0,0l0,0l0,0l0,0.1l0,0.1l0,0.1l0,0.1l0,0.1v0.1l0,0.1l0,0.1l0,0.1l0,0.1l0,0
			l0,0.1l0,0l0,0.1l0,0l0,0.1l0,0l0,0l0,0l0,0l-0.5,2.8h1.8l0.6-3.5l0-0.1l0-0.1l0-0.1l0-0.1V5.1l0-0.1V4.8l0-0.1L-278,4.6L-278,4.6
			z M-286.2,6.1l0,0.1l0,0.1l0,0.1l0,0.1l0,0.1l-0.1,0.1l-0.1,0.1l-0.1,0.1l-0.1,0.1l-0.1,0.1l-0.1,0.1l-0.1,0.1l-0.1,0l0,0l-0.1,0
			l-0.1,0l-0.1,0l0,0l-0.1,0l-0.1,0h0l-0.1,0l-0.1,0h-0.1l-0.1,0l-0.1,0l-0.1,0l0,0l-0.1,0l0,0l-0.1,0l0,0l0,0l0,0l0,0l0,0l0,0l0,0
			l-0.1-0.1l0-0.1l0-0.1l0-0.1l0-0.1V6.6l0-0.1l0-0.1l0-0.1l0-0.1l0-0.1l0.1-0.1l0.1-0.1l0.1-0.1l0.1-0.1l0.1-0.1l0.1-0.1l0.1-0.1
			l0,0l0.1,0l0.1,0l0.1,0l0.1,0l0.1,0l0.1,0l0.1,0l0,0l0.1,0l0.1,0l0.1,0h0.1l0.1,0h0.1l0.1,0l0.1,0l0.1,0l0,0l0,0l0,0l0,0l0,0l0,0
			l0,0l0,0.1l0,0l0.1,0.1l0,0.1l0,0.1l0,0.1l0,0.1V6.1L-286.2,6.1z M-285.8,4L-285.8,4l-0.1-0.2l-0.1-0.1l-0.1-0.1l-0.1-0.1
			l-0.1-0.1l-0.1,0l-0.1,0l-0.1,0l-0.1,0l-0.1,0l-0.1,0l-0.1,0l-0.1,0l-0.1,0l-0.1,0l-0.1,0h-0.3l-0.1,0l-0.1,0l-0.1,0l-0.1,0
			l-0.1,0l-0.1,0l-0.1,0.1l-0.1,0.1l-0.1,0.1l-0.1,0.1l-0.1,0.1l-0.1,0.1L-289,4l-0.1,0.1l-0.1,0.1l-0.1,0.1l-0.1,0.1l-0.1,0.1
			l-0.1,0.1l-0.1,0.1l-0.1,0.1l-0.1,0.1l-0.1,0.1l-0.1,0.1l-0.1,0.1l-0.1,0.1l0,0.1l-0.1,0.1l0,0.1l0,0.1l0,0.2l0,0.1l0,0.2l0,0.1
			l0,0.1v0.1l0,0.1l0,0.1l0,0.1l0,0.1l0,0.1l0,0.1l0,0.1l0,0.1l0.1,0.1l0.1,0.1l0.1,0.1l0.1,0.1l0.2,0.2l0.1,0.1l0.1,0.1l0.1,0.1
			l0.1,0.1l0.1,0.1l0.1,0l0.1,0l0.1,0l0.1,0l0.1,0l0.1,0l0.1,0l0.1,0h0.1l0,0l0,0l0.1,0l0.1,0l0.1,0l0.1,0l0.1,0l0.1,0l0.1,0
			l0.1-0.1l0,0l0.1,0l0.1-0.1l0.1-0.1l0.1-0.1l0.1-0.1l0.1-0.1l0.1-0.1l0.1-0.1h0l-0.1,0.6h1.8l1-5.7h-1.8L-285.8,4z M-292.7,3.2
			l0,0.1l0,0.1l0,0.1l0,0.1l0,0.1l0,0l0,0l0,0l0,0l0,0l0,0l0,0l0,0l-0.1,0l-0.1,0l-0.1,0l-0.1,0l-0.1,0l-0.1,0l-0.1,0h0l-0.1,0h0
			l0,0h-0.2l0.3-1.6h0.3l0.1,0l0.1,0l0.1,0l0.1,0l0.1,0l0.1,0l0.1,0l0.1,0l0,0l0,0l0,0l0,0l0,0l0,0l0,0l0,0l0,0.1l0,0.1L-292.7,3.2z
			 M-292.8,6.4l0,0.1l0,0.1l0,0.1l0,0.1l0,0.1l0,0.1l-0.1,0.1l-0.1,0.1l-0.1,0.1l-0.1,0l-0.1,0l-0.1,0l-0.1,0l-0.2,0l-0.1,0l-0.1,0
			l-0.1,0l-0.1,0h-0.1l-0.1,0h-0.3l0,0l0,0h-0.2l0.3-1.8h0.7l0.1,0l0.1,0l0.1,0l0.1,0l0.1,0l0.1,0l0.1,0l0.1,0l0,0l0,0l0,0l0,0l0,0
			l0,0l0,0l0,0l0,0l0,0.1L-292.8,6.4L-292.8,6.4L-292.8,6.4z M-290.9,2l0-0.1l0-0.1l0-0.1l0-0.1l0-0.1l0-0.1l-0.1-0.1l-0.1-0.1
			l-0.1-0.1l-0.1-0.1l-0.1-0.1l-0.1,0l-0.1,0l-0.1,0l-0.1,0l-0.1,0l-0.1,0l-0.1,0l-0.1,0l-0.1,0l-0.1,0l-0.1,0l-0.1,0h-2.8l-1.5,8.4
			h2.9l0.1,0l0.1,0l0.1,0l0.1,0l0.1,0l0.1,0l0.1,0l0.1,0l0.1,0l0.1,0l0.1,0l0.1,0l0.1,0l0.1-0.1l0.1-0.1l0.1-0.1l0.1-0.1l0.1-0.1
			l0.1-0.1l0.1-0.1l0.1-0.1l0.1-0.1l0.1-0.1l0.1-0.1l0.1-0.1l0.1-0.1l0.1-0.1l0-0.1l0.1-0.1l0-0.1l0-0.2l0-0.2l0-0.2l0-0.2l0-0.2
			l0-0.2l0-0.1l0-0.1l0-0.1l0-0.1l0-0.2l-0.1-0.1l0-0.1l0-0.1l0-0.1l0-0.1l0-0.1l-0.1,0l-0.1-0.1l-0.1,0l-0.1,0l-0.1,0l-0.1,0
			l-0.1,0l-0.1,0l-0.1,0l-0.1,0l-0.1,0v0l0.1-0.1l0.1-0.1l0.1-0.1l0.1-0.1l0.1-0.1l0.1-0.1l0.1-0.1l0.1-0.1l0.1-0.1l0.1-0.1l0-0.1
			l0-0.1l0.1-0.1l0-0.1l0-0.1l0-0.1l0-0.1l0-0.1l0-0.1l0-0.1V2.2l0-0.1L-290.9,2L-290.9,2z M-303.2,9.2h1.7l1.7-9.2h-1.7L-303.2,9.2
			z M-305.5,6.1l0,0.1l0,0.1l-0.1,0.3l0,0.1l-0.1,0.1l-0.1,0.1l-0.1,0.1l-0.1,0.1l-0.1,0.1l-0.1,0.1l-0.1,0.1l-0.1,0l-0.1,0l-0.1,0
			l-0.1,0l-0.1,0l-0.1,0l-0.1,0l-0.1,0h0l-0.1,0l-0.1,0h-0.1l-0.1,0l-0.1,0l-0.1,0l-0.1,0l-0.1,0l0,0l0,0l0,0l0,0l0,0l0,0l0,0l0,0
			l0,0l-0.1-0.1l0-0.1l0-0.1l0-0.1l0-0.1V6.6l0-0.1l0-0.1l0-0.1l0-0.1l0-0.1l0.1-0.1l0.1-0.1l0.1-0.1l0.1-0.1l0.1-0.1l0.1-0.1
			l0.1-0.1l0.1,0l0.1,0l0.1,0l0.1,0l0.1,0l0.1,0l0.1,0l0.1,0l0,0l0.1,0l0.1,0l0.1,0h0.1l0.1,0h0.1l0,0l0.1,0l0.1,0l0,0l0,0l0,0l0,0
			l0,0l0.1,0.1l0,0.1l0,0l0.1,0.1l0,0.1l0,0.1l0,0.1l0,0.1V6.1L-305.5,6.1z M-305.1,4L-305.1,4l-0.1-0.2l-0.1-0.1l-0.1-0.1l-0.1-0.1
			l-0.1-0.1l-0.1,0l-0.1,0l-0.1,0l-0.1,0l-0.1,0l-0.1,0l-0.1,0l-0.2,0l-0.1,0l0,0h-0.3l-0.1,0l-0.1,0l-0.1,0l-0.1,0l-0.1,0l-0.1,0
			l-0.1,0.1l-0.1,0.1l-0.1,0.1l-0.1,0.1l-0.1,0.1l-0.1,0.1l-0.1,0.1l-0.1,0.1l-0.1,0.1l-0.1,0.1l-0.1,0.1l-0.1,0.1l-0.1,0.1
			l-0.1,0.1l-0.1,0.1l-0.1,0.1l-0.1,0.1l-0.1,0.1l-0.1,0.1l-0.1,0.1l0,0.1l0,0.1l0,0.1l0,0.1l0,0.2l0,0.1l0,0.2l0,0.1l0,0.1v0.3
			l0,0.1l0,0.1l0,0.1l0,0.1l0,0.1l0,0.1l0,0.1l0.1,0.2l0.1,0.1l0.1,0.1l0.1,0.1l0.1,0.1l0.1,0.1l0.1,0.1l0.1,0.1l0.1,0.1l0.1,0.1
			l0.1,0l0.1,0l0.1,0l0.1,0l0.1,0l0.1,0l0.1,0l0.1,0h0.1l0,0l0,0l0.1,0l0.1,0l0.1,0l0.1,0l0.1,0l0.1,0l0.1,0l0.1-0.1l0,0l0,0
			l0.1-0.1l0.1-0.1l0.1-0.1l0.1-0.1l0.1-0.1l0.1-0.1l0.1-0.1h0l-0.1,0.6h1.7l1-5.7h-1.7L-305.1,4L-305.1,4z M-309.7,3.4l0.3,0
			l-0.4,1.9l0,0l0,0l-0.1,0l-0.1,0l-0.1,0l-0.1,0l-0.1,0l-0.1,0l-0.1,0l-0.1,0h-0.1l-0.2,0l-0.1,0l-0.1,0l-0.1,0l-0.1,0l-0.1,0
			l-0.1,0l-0.1,0l-0.1,0l-0.1,0l-0.1,0l-0.1,0l-0.1,0l0,0.1l0,0.1l-0.1,0.1l-0.1,0.1l-0.1,0.1l-0.1,0.1l-0.1,0.2l0,0.2l-0.1,0.2
			l0,0.2l-0.4,2.3h-1.7l1-5.7h1.7l-0.2,0.9h0l0.1-0.1l0.1-0.1l0.1-0.1l0.1-0.1l0.1-0.1l0.1-0.1l0.1-0.1l0.2-0.1l0.1-0.1l0.1,0l0.1,0
			l0.1,0l0.1,0l0.1,0H-309.7z M-313.6,3.5h-1l0.3-1.7h-1.8l-0.3,1.7h-0.6l-0.3,1.7h0.6l-0.7,4h1.8l0.7-4h1L-313.6,3.5z M-318,4.6
			L-318,4.6l0-0.2l0-0.1l0-0.1l0-0.1l0-0.1l0-0.1l0-0.1l0-0.1l-0.1-0.1l-0.1-0.1l-0.1-0.1l-0.1-0.1l-0.1,0l-0.1-0.1l-0.1,0l-0.1,0
			l-0.1,0l-0.1,0l-0.1,0l-0.1,0l-0.1,0h-0.2l-0.1,0l-0.1,0l-0.1,0l-0.1,0l-0.1,0l-0.2,0.1l-0.1,0.1l-0.1,0.1l-0.1,0.1l-0.1,0.1
			l-0.1,0.1L-321,4l-0.1,0.1l-0.1,0.1h0l0.1-0.7h-1.8l-1.1,5.7h1.8l0.5-2.9l0-0.1l0-0.1l0-0.1l0-0.1l0-0.1l0-0.1l0.1-0.1l0.1-0.1
			l0,0l0,0l0,0l0,0l0,0l0,0l0,0l0,0l0.1,0l0.1,0l0,0l0.1,0l0.1,0l0.1,0h0.2l0.1,0l0.1,0l0.1,0l0,0l0,0l0,0l0,0l0,0l0,0l0,0l0,0
			l0,0.1l0,0.1l0,0.1l0,0.1l0,0.1v0.1l0,0.1l0,0.1l0,0.1l0,0.1l0,0l0,0.1l0,0l0,0.1l0,0l0,0.1l0,0l0,0l0,0l0,0l-0.5,2.8h1.8l0.6-3.5
			l0-0.3l0-0.1l0-0.1l0-0.1l0-0.1V4.8l0-0.1L-318,4.6z M-327.7,5.5h2l0-0.1l0-0.1l0-0.1l0-0.1l0-0.1l0-0.1l0-0.1l-0.1-0.1l-0.1,0
			l-0.1,0l-0.1,0l-0.1,0l-0.1,0l-0.1,0l-0.1,0h-0.2l-0.1,0h0l-0.1,0l-0.1,0l-0.1,0l-0.1,0l-0.1,0.1l-0.1,0l-0.1,0.1l-0.1,0.1
			l-0.1,0.1l-0.1,0.1l0,0.1l-0.1,0.1l0,0.1L-327.7,5.5L-327.7,5.5z M-324.1,5.3l0,0.2l0,0.2l0,0.2l0,0.2l0,0.2l0,0.2l0,0.2v0l0,0.2
			h-3.7l0,0.2l0,0.1l0,0.1l0,0.1l0,0.1l0,0.1l0,0.1l0,0l0,0l0,0.1l0,0l0,0l0,0l0,0l0,0l0,0l0,0l0.1,0l0,0l0.1,0l0.1,0l0.1,0h0.2h0.1
			h0.1l0.1,0l0.1,0l0.1,0l0,0l0,0l0.1,0l0.1,0l0.1,0l0.1,0l0.1,0l0.1-0.1l0.1-0.1l0-0.1l0-0.1h1.7l-0.1,0.1l-0.1,0.1l-0.1,0.1
			l-0.1,0.1l-0.1,0.1l-0.1,0.1l-0.1,0.1l-0.1,0.1l-0.1,0.1l-0.1,0.1l-0.1,0.1l-0.1,0.1l-0.1,0.1l-0.2,0.1l-0.1,0.1l-0.1,0.1l-0.1,0
			l-0.1,0l-0.1,0.1l-0.1,0l-0.1,0l-0.1,0l-0.1,0l-0.1,0l-0.1,0l0,0l-0.1,0l-0.1,0l-0.1,0l-0.1,0l-0.1,0l-0.1,0l-0.1,0l-0.1,0l-0.1,0
			l-0.1,0l-0.1,0l-0.1,0l-0.1-0.1l-0.1,0l-0.1,0l-0.2-0.1l-0.1-0.1l-0.2-0.2l-0.1-0.1l-0.1-0.1l-0.1-0.1l-0.1-0.1l-0.1-0.1l-0.1-0.1
			l-0.1-0.1l0-0.1l0-0.1l0-0.1l0-0.1l0-0.1l0-0.2V7l0-0.2l0-0.2l0-0.2l0-0.2l0-0.2l0-0.2l0-0.2l0-0.2l0.1-0.2l0.1-0.2l0.1-0.1
			l0.1-0.1l0.1-0.1l0.1-0.1l0.1-0.1l0.1-0.1l0.1-0.1l0.1-0.1l0.1-0.1l0.1-0.1l0.1-0.1l0.1-0.1l0.1-0.1l0.1-0.1l0.1-0.1l0.1-0.1
			l0.1,0l0.1-0.1l0.1,0l0.1-0.1l0.1,0l0.1,0l0.1,0l0.1,0l0,0l0.1,0h0.3l0.1,0l0.2,0l0.1,0l0.1,0l0.1,0l0.1,0l0.1,0.1l0.1,0l0.1,0.1
			l0.1,0.1l0.1,0.1l0.1,0.1l0.1,0.1l0.1,0.1l0.1,0.1l0.1,0.1l0.1,0.1l0.1,0.1l0,0.1l0,0.1l0,0.1l0,0.1l0,0.1L-324.1,5.3L-324.1,5.3z
			 M-329.4,1l-0.2-0.1l-0.2-0.1l-0.2-0.1l-0.2-0.1l-0.1,0l-0.1,0l-0.1,0l-0.2,0l-0.1,0h-0.1l-0.1,0h-0.1l-0.2,0l-0.2,0l-0.2,0
			l-0.2,0l-0.2,0.1l-0.2,0.1l-0.2,0.1l-0.2,0.1l-0.2,0.1l-0.2,0.1l-0.2,0.1l-0.2,0.1l-0.2,0.1l-0.2,0.1l-0.2,0.1l-0.2,0.1l-0.3,0.3
			l-0.1,0.2l-0.1,0.2l-0.1,0.2l-0.1,0.2l-0.1,0.2l-0.1,0.2l-0.1,0.2l-0.1,0.2l-0.1,0.2l-0.1,0.2l-0.1,0.2l-0.1,0.2l0,0.2l0,0.2
			l0,0.2l0,0.2l0,0.2l0,0.2v0.2l0,0.2l0,0.2l0,0.2l0,0.2l0,0.2l0.1,0.2l0.1,0.2l0.1,0.2l0.1,0.2l0.1,0.2l0.1,0.2l0.1,0.1l0.1,0.1
			l0.1,0.1l0.1,0.1l0.1,0.1l0.1,0.1l0.2,0.1l0.2,0.1l0.2,0.1l0.2,0.1l0.2,0.1l0.2,0l0.2,0l0.2,0l0.2,0l0.2,0h0.1l0.1,0l0.1,0l0.1,0
			l0.1,0l0.1,0l0.1,0l0.1,0l0.1,0l0.1,0l0.1,0l0.1,0l0.1,0l0.1,0L-331,9l0.1,0l0.5-2.6l-0.1,0.1l-0.1,0.1l-0.1,0.1l-0.1,0.1
			l-0.1,0.1l-0.1,0.1l-0.1,0.1l-0.1,0.1l-0.1,0.1l-0.1,0l-0.1,0l-0.1,0l-0.1,0l-0.1,0l-0.1,0h-0.2l-0.1,0l-0.1,0l-0.1,0l-0.1,0
			l-0.1,0l-0.1,0l-0.1,0l-0.1,0l-0.1-0.1l-0.1,0l-0.1-0.1l-0.1-0.1l-0.1-0.1l0-0.1l-0.1-0.2l0-0.1l-0.1-0.1l0-0.1l0-0.1l0-0.1l0-0.1
			l0-0.1l0-0.1l0-0.1V5.5l0-0.1l0-0.1l0-0.1l0-0.1l0-0.1l0-0.1l0-0.1l0-0.1l0-0.1l0-0.1l0-0.1l0.1-0.2l0.1-0.1l0.1-0.1l0.1-0.1
			l0.1-0.1l0.1-0.1l0.1-0.1l0.1-0.1l0.1-0.1l0.1-0.1l0.1-0.1l0.1-0.1l0.1-0.1l0.1-0.1l0.1,0l0.1,0l0.1,0l0.1,0l0.1,0l0.1,0l0.1,0
			l0.1,0l0.1,0h0.2l0.1,0l0.1,0l0.1,0l0.1,0l0.1,0l0.1,0.1l0.1,0.1l0.1,0.1l0.1,0.1l0.1,0.1l0.1,0.1l0.1,0.1l0.1,0.1l0.1,0.1l0,0.1
			L-329.4,1L-329.4,1L-329.4,1z"/>
	</g>
	<g id="g5589" transform="translate(400.36819,82.463852)">
		<path id="path5591" class="st1" d="M-230.5-28l0.2-2.4h-1.4l0.1,0.1l0.1,0.1l0,0.1l0,0.1l0,0.1l0,0.1v0.1l0,0.1l0,0.1l0,0.1l0,0.1
			l0,0.1l0,0.1l0,0.1l-0.1,0.1l-0.1,0.1l-0.1,0.1l-0.1,0.1l0,0l0,0l-0.1,0.1l-0.1,0.1l-0.1,0.1l-0.1,0l-0.1,0.1l-0.1,0l-0.1,0
			l-0.2,0l-0.2,0l-0.2,0l-0.2,0l-0.2,0v0.1l0,0.1l0,0.1l0,0.1l0,0.1l0.1,0.1l0.1,0.1l0.1,0.1l0,0l0,0l0,0l0,0l0.1,0.1l0.1,0l0.1,0
			l0.1,0l0.1,0l0.2,0l0.1,0l0.1,0l0.1,0l0,0l0.1,0l0.1,0l0.1,0l0.1-0.1l0.1-0.1l0.1-0.1l0.1-0.1l0.1-0.1l0.1-0.1l0.1-0.1l0.1-0.1
			l0.1-0.1L-230.5-28z M-238.9-32v-0.1v-0.1l0-0.1l0-0.1l0-0.1l0-0.1l0-0.1l-0.1-0.1l0-0.1l-0.1,0l-0.1-0.1l-0.1,0l-0.1,0l-0.1,0
			l-0.1,0l-0.1,0l-0.1,0l-0.1,0l-0.1,0l-0.1,0l-0.2,0l-0.2,0h-0.2l-0.2,0l-0.3,0l-0.3,0l-0.3,0l-0.3,0l-0.2,0.1l-0.2,0l-0.1,0
			l-0.1,0l-0.1,0l-0.1,0l-0.1,0l-0.1,0l-0.1,0l-0.1,0l-0.1,0l-0.1,0.1l-0.1,0.1l-0.1,0l0,0.1l0,0.1l0,0.1l0,0.1l0,0.1l0,0.1l0,0.1
			l0,0.1v0.1v0.1v0.1l0,0.1v0l0,0l0,0l0,0l0,0l0,0h0l0,0l0,0l0,0v0l0,0h4l-0.1-0.1l0.1-0.1l0.1-0.1l0.1-0.1l0.1-0.1l0-0.1l0-0.1
			L-238.9-32L-238.9-32L-238.9-32z M-237.5-31.3h13.3l-0.1,0.9h-0.9l-0.5,5.3h-1.7l0.5-5.3h-1.6l-0.5,5.3h-1.7l0.1-1.2l-0.1,0.1
			l-0.1,0.1l-0.1,0.1l-0.1,0.1l-0.1,0.1l-0.1,0.1l-0.1,0l-0.1,0.1l-0.1,0l-0.1,0l0,0l-0.1,0l-0.3,0l-0.1,0l-0.1,0h-0.1l-0.2,0
			l-0.2,0l-0.2,0l-0.2,0l-0.1,0l-0.1,0l-0.1,0l-0.1,0l-0.1,0l-0.1,0l-0.1,0l-0.1,0l-0.1,0l-0.1-0.1l-0.1,0l-0.1-0.1l-0.1,0l-0.1-0.1
			l-0.1-0.1l-0.1-0.1l0-0.1l-0.1-0.1l0-0.1l0-0.1l-0.1-0.2l-0.1-0.2l-0.1-0.2l-0.1-0.2l0-0.2l0-0.2l0-0.2l0-0.2l0-0.2v-0.2l0.3-0.1
			l0,0l0,0h0h0l0.1,0l0.1,0l0.1,0l0.1,0h0.1l0.1,0l0.1,0l0.1,0l0.1,0l0.1,0l0.1-0.1l0.1-0.1l0.1-0.1l0.1,0l0,0l0,0l0,0l0,0l0,0l0,0
			l0-0.1l0-0.1l0-0.1l0-0.1v-0.1l0-0.1l0-0.1l0-0.1l0-0.1l0-0.1l0-0.1l0-0.1l0,0l0,0l-0.1,0l-0.1,0l-0.1,0l-0.1,0h-3.1l-0.1,1.4h-3
			l-0.1,0l-0.1,0l0,0l0,0l0,0l0,0l-0.1,0l0,0l0,0l0,0l0,0l0,0l0,0v0.1v0v0l0,0l0,0l0,0l0,0l0,0l0,0l0,0l0,0l0.1,0l0.1,0l0.1,0h1.8
			l0.1,0l0.2,0l0.1,0l0.1,0l0.1,0l0.1,0l0.1,0l0.1,0l0.1,0.1l0.1,0l0.1,0l0.1,0.1l0.1,0.1l0.1,0.1l0.1,0.1l0.1,0.1l0,0.1l0,0.1
			l0,0.1l0,0.1l0,0.1l0,0.1l0,0.1l0,0.1l0,0.1l0,0.1l0,0.1v0.1l0,0.1l0,0.1l0,0.1l0,0.1l0,0.1l0,0.1l0,0.1l0,0.1l-0.1,0.1l0,0.1
			l-0.1,0.1l-0.1,0.2l-0.1,0.1l-0.1,0.1l-0.1,0.1l-0.1,0.1l-0.2,0.2l-0.1,0.1l-0.1,0.1l-0.1,0.1l-0.1,0.1l-0.1,0l-0.1,0.1l-0.1,0
			l-0.1,0l-0.1,0l-0.3,0l-0.1,0h-0.1h-0.2h-0.2l-0.2,0l-0.2,0l-0.2,0l-0.3-0.1l-0.3-0.1l-0.3-0.1l-0.3-0.1l-0.2-0.1l-0.2-0.1
			l-0.1-0.1l-0.1,0l-0.1-0.1l-0.1,0l-0.1,0l-0.1,0l-0.1-0.1l-0.1-0.1l-0.1-0.1l-0.1-0.1l-0.1-0.1l-0.1-0.1l0.6-1.4v0l0,0l0,0l0,0
			l0.1,0.1l0.1,0.1l0.1,0.1l0.1,0.1l0.2,0.1l0.2,0.1l0.2,0.1l0.2,0.1l0.2,0.1l0.2,0.1l0.2,0.1l0.2,0l0.2,0l0.2,0l0.1,0l0.1,0l0.1,0
			l0.1,0l0.1,0l0.1,0l0.1,0l0.1,0l0.1,0l0.1,0l0.1,0l0.1,0l0.1,0l0.1,0l0,0l0.1-0.1l0-0.1l0-0.1l0-0.1l0-0.1l0-0.1v-0.1l0,0l0,0l0,0
			l0,0l0,0l-0.1,0l-0.1,0l0,0l-0.1,0l0,0l-0.1,0l-0.1,0l-0.1,0h-1.5l-0.1,0l-0.1,0l-0.2,0l-0.1,0l-0.1,0l-0.1,0l-0.1,0l-0.2-0.1
			l-0.1,0l-0.1-0.1l-0.1,0l-0.1-0.1l-0.1-0.1l-0.1-0.1l-0.1-0.1l-0.1-0.1l-0.1-0.1l0-0.1l-0.1-0.1l0-0.1l0-0.1l0-0.1l0-0.1l0-0.1
			l0-0.1v-0.1l0-0.1v-0.2l0-0.1l0-0.1l0-0.1l0-0.1l0-0.1l0-0.1l0-0.1l0.1-0.1l0-0.1l0.1-0.1l0.1-0.1l0.1-0.1l0.1-0.1l0.1-0.1
			l0.1-0.1l0.1-0.1l0.1-0.1l0.2-0.1l0.2-0.1l0.2-0.1l0.2,0l0.2,0l0.2,0l0.2,0h1.7l0-0.4h-4.9l-0.5,5.3h-1.7l0.5-5.3h-0.9l0.1-0.9
			h0.7l0-0.1l0-0.1l0-0.1l0-0.1l0-0.1l0-0.1l0-0.1v-0.1l0-0.2l0-0.1l0-0.2l0-0.1l0-0.1l0.1-0.1l0.1-0.1l0.1-0.1l0.1-0.1l0.1-0.1
			l0.1-0.1l0.1-0.1l0.1-0.1l0.1-0.1l0.1-0.1l0.1-0.1l0.1-0.1l0.1-0.1l0.2-0.1l0.2-0.1l0.2-0.1l0.2,0l0.2,0l0.2,0l0.2,0l0.2,0l0.2,0
			l0.2,0l0.2,0l0.2,0h0.5l0.3,0l0.3,0l0.2,0l0.2,0l0.2,0l0.2,0l0.2,0l0.2,0l0.2,0l0.2,0.1l0.2,0.1l0.2,0.1l0.1,0.1l0.1,0.1l0.1,0.1
			l0.1,0.1l0.1,0.1l0.1,0.1l0.1,0.1l0.1,0.1l0.1,0.1l0.1,0.1l0,0.1l0,0.1l0.1,0.2l0,0.1l0,0.1l0,0.1v0.1l0,0.1l0,0.1v0.1l0,0.1
			l0,0.1l0,0.1l0,0.1l0,0.1l0,0l0,0L-237.5-31.3L-237.5-31.3z M-245.6-32L-245.6-32l0.2-0.2l0.1-0.1l0.1-0.1l0.1-0.1l0-0.1l0-0.1
			l0-0.1l0-0.1l0-0.1l0-0.1l0-0.1l0-0.1l-0.1-0.1l-0.1-0.1l-0.1-0.1l-0.1-0.1l-0.1-0.1l-0.1-0.1l-0.1,0l-0.1,0l-0.1,0l-0.1,0l-0.1,0
			h-0.1l-0.1,0l-0.1,0l-0.1,0l-0.1,0l-0.1,0.1l-0.1,0.1l-0.1,0.1l-0.1,0.1l-0.1,0.1l-0.1,0.1l-0.1,0.1l-0.1,0.1l0,0.1l0,0.1l0,0.1
			l0,0.1l0,0.1l0,0.1l0,0.1l0,0.1l0,0.1l0,0l0,0.1l0,0l0,0l0.1,0.1l0.1,0.1l0.1,0.1l0.1,0.1l0.1,0.1l0.1,0l0.1,0l0.1,0l0.1,0l0.1,0
			l0.1,0l0.1,0l0.1,0l0.1,0l0.1-0.1l0.1,0L-245.6-32L-245.6-32z M-253.4-30.4h4.6l-0.1,0.5h-2.3l-0.2,0l-0.2,0l-0.2,0l-0.2,0
			l-0.2,0.1l-0.1,0.1l-0.1,0.1l-0.1,0l-0.1,0l-0.1,0.1l-0.1,0.1l-0.1,0.1l-0.1,0.1l-0.1,0.1l0,0.1l0,0.1l0,0.1l0,0.1l0,0.1l0,0.1
			l0,0.1l0,0.1v0.2l0,0.1l0,0.1l0,0.1l0,0.1l0,0.1l0,0.1l0,0.1l0,0l0.1,0.1l0.1,0.1l0.1,0.1l0.1,0l0.1,0l0.1,0.1l0.1,0.1l0.1,0.1
			l0.1,0.1l0.1,0l0.1,0l0.2,0l0.2,0l0.2,0h1.5l0.1,0l0.1,0l0,0l0,0l0,0l0,0l0,0l0,0l0,0l0,0l0,0.1v0.1l0,0.1l0,0.1l0,0.1l0,0.1l0,0
			l-0.1,0l-0.1,0l-0.1,0l-0.1,0l-0.2,0h-0.2l-0.3,0l-0.3,0l-0.3,0l-0.2,0l-0.2,0l-0.2,0l-0.2,0l-0.2-0.1l-0.2-0.1l-0.2-0.1l-0.2-0.1
			l-0.2-0.1l-0.2-0.1l-0.2,1.1l0.2,0.1l0.1,0.1l0.2,0.1l0.2,0.1l0.1,0.3l0.1,0.2l0.1,0.2l0.1,0.2l0,0.1l0.1,0.1l0.1,0.1l0.1,0.1
			l0.1,0.1l0,0.1l0.1,0l0.1,0.1l0.1,0.1l0.1,0l0.1,0.1l0.1,0l0.1,0l0.1,0l0.1,0l0.2,0l0.2,0l0.2,0l0.2,0l0.2,0l0.2,0l0.2,0l0.2,0
			l0.2,0l0.1,0l0.1,0l0,0l0.1-1.1l-0.4,0l-0.4,0l-0.2,0l-0.1,0l-0.1,0l-0.1,0l-0.1,0l-0.1,0l-0.1,0l-0.1,0l0,0l0,0l0,0l0,0v-0.1l0,0
			l0,0l0,0h0.1h0.2h0.2l0.2,0l0.2,0h0.2l0.2,0l0.2,0l0.2,0l0.2,0l0.2,0l0.2,0l0.1,0l0.1,0l0.1-0.1l0.1-0.1l0.1,0l0.1,0l0.1-0.1
			l0.1,0l0.1-0.1l0-0.1l0-0.1l0-0.1l0-0.1l0-0.1l0-0.1l0-0.1l0-0.1l0-0.1l0-0.1l0-0.1V-27v-0.1v-0.1l0-0.1l0-0.1l0-0.2l0-0.1l0-0.1
			l0-0.1l0-0.1l0-0.1l-0.1-0.1l-0.1,0l-0.1-0.1l-0.1,0l-0.1,0l-0.1,0l-0.1,0l-0.1-0.1l-0.1-0.1l-0.2,0l-0.2,0l-0.2,0h-1.8l-0.1,0
			h-0.1l-0.1,0l-0.1,0l0,0l0,0l0,0l0,0l0,0l0,0l0,0v0l0-0.1l0-0.1l0-0.1l0,0l0.1,0l0.1,0l0.1,0l0.1,0h3.4l0.1-1.5h1l0.1-0.9h-7.3
			L-253.4-30.4z M-263.2-25.6L-263.2-25.6l0,0.1v0.2l0,0.1l0,0.1l0,0.1l0,0.1l-0.1,0.1l0,0.1l-0.1,0.1l-0.1,0.1l-0.1,0l-0.1,0
			l-0.1,0l-0.1,0l-0.1,0l-0.1,0l-0.1,0l-0.1,0h-0.1l-0.1,0l-0.2,0l-0.1,0l-0.1,0l-0.1,0l-0.1-0.1l-0.1-0.1l-0.1-0.1l0-0.1l0-0.1
			l0-0.1l0-0.1v-0.2l0-0.1l0-0.1l0.1-0.2l0-0.1l0.1-0.1l0.1-0.1l0.1-0.1l0.1-0.1l0.1,0l0.1,0l0.1,0l0.1,0l0.1,0l0.1,0h0.1h0.1l0.1,0
			l0.1,0l0.1,0l0.1,0l0.1,0l0.1,0l0.1,0.1l0,0.1l0.1,0.1L-263.2-25.6L-263.2-25.6z M-264-28.4l0-0.1l0-0.1l0-0.3l0-0.3l0-0.3l0-0.2
			l0-0.2l0-0.2l0-0.1l0-0.1h1.7l-0.2,2.3l-0.1,0.1l-0.1,0l-0.1,0.1l-0.1,0l-0.1,0l-0.1,0l-0.1,0l-0.1,0l-0.1,0l-0.1,0l-0.1,0l-0.1,0
			l-0.1,0l-0.1,0l-0.1,0l-0.1,0h-0.1l-0.1,0l-0.1,0l-0.1,0l-0.1,0l-0.1,0l0,0l0-0.1l0-0.1l0-0.1l0-0.1l0-0.1v-0.1V-28.4L-264-28.4z
			 M-266-30.4h0.5l0,0.1l0,0.1l0,0.2l0,0.2l0,0.3l0,0.3l0,0.4l0,0.4l0,0.1v0.1l0,0.1v0.1l0,0.1l0,0.1l0,0.1l0,0.1l0,0.1l0,0.1
			l0.1,0.1l0.1,0.1l0,0.1l0.1,0.1l0.1,0.1l0.1,0.1l0.1,0.1l0.1,0.1l0.1,0.1l0.1,0.1l0.1,0.1l0.1,0.1l0.1,0l0.1,0l0.1,0l0.1,0l0.1,0
			l0.2,0l0.1,0l0.1,0l0.1,0h0.2l0.2,0l0.2,0l0.2,0l0,0l0.2,0l0.1,0l0.2-0.1l0.1-0.1l-0.1,1.4h1.7l0.3-2.9l0-0.1l0.1-0.1l0.1,0l0.1,0
			l0.1,0l0.1,0l0.1,0l0.1,0l0.1,0l0.1,0l0.1,0l0.1,0l0.1,0l0.1,0h0.1l0.1,0l0.1,0l0.1,0l0.1,0l0.1,0l0.1,0l0.1,0l0.1,0l0.1,0l0,0
			l0,0.1l0,0.1l0,0.1l0,0.1l0,0.1v0.2l0,0.1l0,0.1l0,0.1l0,0.1l0,0.1l-0.1,0.1l-0.1,0.1l-0.1,0l-0.1,0l-0.1,0l-0.1,0l-0.1,0l-0.1,0
			l-0.1,0l-0.1,0l-0.1,0l-0.1,0l-0.1,0l-0.1,0l-0.1,0l-0.1,0l0,0l-0.1,1.2l0,0l0,0l0,0l0,0l0.1,0l0.1,0l0.1,0l0.1,0l0.1,0l0.1,0
			l0.2,0l0.2,0l0.1,0l0.1,0l0.1,0l0.1,0l0.1,0l0.1,0l0.1,0l0.1,0l0.1,0l0.1,0l0.1,0l0.1,0l0.1,0l0.1,0l0.1-0.1l0.1-0.1l0.1-0.1
			l0.1-0.1l0.1-0.1l0.1-0.1l0.1-0.1l0.1-0.1l0.1-0.1l0.1-0.1l0.1-0.1l0-0.1l0-0.1l0.1-0.2l0-0.1l0-0.1l0-0.1l0-0.1l0-0.1v-0.1l0-0.1
			l0-0.1l0-0.2l0-0.1l0-0.1l0-0.1l0-0.1l-0.1-0.1l-0.1-0.1l-0.1-0.1l-0.1-0.1l-0.1-0.1l-0.1-0.1l-0.1-0.1l-0.1-0.1l-0.1-0.1l-0.1,0
			l-0.1-0.1l-0.1,0l-0.1,0l-0.1,0l-0.1,0l-0.1,0l-0.1,0l-0.1,0l-0.1,0l-0.1,0h-0.3l-0.2,0l-0.2,0l-0.2,0l-0.2,0.1l-0.2,0.1l-0.2,0.1
			l-0.2,0.1l0.1-1h4l0.1-0.9h-9.5L-266-30.4L-266-30.4z M-265.8-31.7l0.1,0l0.1-0.1l0.1-0.1l0.1-0.1l0.1-0.1l0.1-0.1l0.1-0.1
			l0.1-0.1l0.1-0.1l0.1-0.1l0.1-0.1l0.1-0.2l0.1-0.2l0.1-0.2l0.1-0.2l0.1-0.2h-1.8l0,0.1l0,0.1l0,0.1l0,0.1l0,0.1l-0.1,0.1l-0.1,0.1
			l-0.1,0l-0.1,0l-0.1,0l-0.1,0l-0.1,0l-0.1,0l-0.1,0l-0.1,0l-0.1,0h-0.2l-0.1,0l-0.1,0l-0.1,0l-0.1,0l0,0l-0.1,0l0,0l0,0l0,0l0,0
			l0,0l-0.1,0l0-0.1l-0.1-0.1l0-0.1l0-0.1l0-0.1l0-0.1l0-0.1h-1.8l0,0.2l0,0.2l0,0.2l0.1,0.2l0.1,0.2l0.1,0.1l0.1,0.1l0.1,0.1
			l0.1,0.1l0.1,0.1l0.1,0.1l0.1,0.1l0.1,0.1l0.1,0.1l0.1,0.1l0.1,0.1l0.1,0l0.1,0.1l0.1,0l0.1,0l0.1,0l0.1,0l0.1,0l0.1,0l0.1,0
			l0.1,0l0.1,0l0.1,0h0.2l0.2,0l0.2,0l0.1,0l0.1,0l0.1,0l0.1,0l0.3-0.1l0.1,0l0.1,0L-265.8-31.7L-265.8-31.7z M-273.3-30.4l0.1-0.9
			h6.9l-0.1,0.9h-0.9l-0.5,5.3h-1.7l0.5-5.3h-0.9v0h-0.7l-0.5,5.3h-1.7l0.3-2.7h-1.3l0.1-0.7l0.1-0.5h1.3l0.1-1.5H-273.3
			L-273.3-30.4z M-273.7-27.2l0-0.1l0,0l0-0.1l0-0.1l0-0.1l-0.1-0.1l-0.1-0.1l-0.1-0.1l-0.1-0.1l-0.1-0.1l-0.1-0.1l-0.1-0.1
			l-0.1-0.1l-0.1-0.1l0.1,0l0.1-0.1l0.2-0.1l0.1-0.1l0.1-0.1l0.1-0.1l0.1-0.1l0.1-0.1l0-0.1l0-0.1l0.1-0.2l0,0l0,0l0-0.1l0-0.1v-0.1
			l0-0.1l0-0.1l0-0.1l0-0.1l0-0.1l0-0.1l0-0.1l0-0.1l-0.1-0.1l-0.1-0.1l-0.1-0.1l-0.1-0.1l-0.1-0.1l-0.1-0.1l-0.1-0.1l-0.1,0l-0.1,0
			l-0.1,0l-0.1,0l-0.1,0l-0.1,0l-0.1,0l-0.1,0l-0.2,0l-0.2,0l-0.2,0l-0.2,0l-0.2,0l-0.2,0l-0.1,0l-0.2,0l-0.2,0l-0.2,0l-0.2,0.1
			l-0.2,0.1l-0.2,0.1l-0.2,0.1l-0.2,0.1l-0.2,0.1l0.5,1.2l0.2-0.1l0.2-0.1l0.2-0.1l0.2,0l0.2,0l0.2,0l0.4,0h0.1l0.1,0l0.1,0l0.1,0
			l0.1,0l0.1,0l0.1,0l0.1,0l0,0l0,0l0,0l0,0l0,0l0,0.1l0,0.1l0,0.1l0,0.1l0,0.1l0,0l0,0l0,0l0,0l0,0l0,0l0,0l0,0l0,0l-0.1,0l-0.1,0
			l-0.1,0h-1.4l-0.1,1.1h1.2l0.1,0l0.1,0l0.1,0l0.1,0l0.1,0l0,0l0,0l0.1,0.1l0,0.1l0,0l0,0.1l0,0.1l0,0.1v0.1v0.1l0,0.1l0,0.1l0,0.1
			l0,0.1l0,0.1l-0.1,0.1l-0.1,0.1l-0.1,0l-0.1,0l-0.1,0l-0.1,0l-0.1,0l-0.1,0l-0.1,0l-0.1,0l-0.1,0h-0.1l-0.1,0h-0.1l-0.2,0l-0.1,0
			l-0.1,0l-0.1,0l-0.1,0l-0.1,0l-0.1,0l-0.1,0l-0.1,0l-0.1-0.1l-0.1-0.1l-0.1-0.1L-278-27l-0.1-0.1l-0.1-0.1l-0.1-0.1l-0.1-0.1
			l-0.1-0.1l-0.1-0.1l-0.1-0.1l-0.9,1.2l0.1,0.1l0.1,0.1l0.1,0.1l0.1,0.1l0.1,0.1l0.2,0.2l0.1,0.1l0.1,0.1l0.1,0.1l0.1,0.1l0.1,0.1
			l0.1,0.1l0.1,0.1l0.1,0.1l0.1,0l0.1,0l0.1,0l0.1,0l0.1,0l0.1,0l0.1,0l0.1,0l0.1,0l0.1,0h0.1l0.1,0h0.1l0.1,0h0.1l0.1,0l0.1,0
			l0.1,0l0.1,0l0.1,0l0.1,0l0.1,0l0.1,0l0.1,0l0.1,0l0.1,0l0.1-0.1l0.1-0.1l0.1-0.1l0.1-0.1l0.1-0.1l0.1-0.1l0.1-0.1l0.1-0.1l0-0.1
			l0.1-0.1l0-0.1l0-0.1l0-0.1l0-0.1l0-0.1l0-0.1l0,0l0-0.1l0-0.1l0-0.1l0-0.1l0-0.1L-273.7-27.2L-273.7-27.2z M-291.6-30.4h3.9
			l-0.3,2.8l-0.1,0l-0.1,0.1l-0.1,0l-0.1,0.1l-0.1,0l-0.1,0.1l-0.1,0l-0.1,0l-0.1,0l-0.1,0l-0.1,0l-0.1,0l-0.1,0l-0.1,0l-0.1,0h-0.1
			l-0.1,0l-0.1,0l-0.1,0l-0.1,0l-0.1,0l-0.1,0l0,0l0-0.1l0-0.1l0-0.1l0-0.1l0-0.1v-0.1v-0.1v-0.1l0-0.1l0-0.1l0-0.1l0-0.1l0-0.1
			l0-0.1l0,0l0.1-0.1l0.1-0.1l0.1,0l0.1,0l0.1,0l0.1,0l0.1,0l0.1,0l0.1,0h0.1l0.1,0l0.1,0l0.1,0l0.1,0.1l0.1,0.1l0.1,0.1l0.1,0.1
			l0.1-1.3l-0.1,0l-0.1,0l-0.1,0l-0.1,0l-0.1,0l-0.1,0l-0.1,0l-0.1,0l-0.1,0l-0.1,0l-0.1,0l-0.1,0l-0.2,0l-0.2,0l-0.1,0l-0.1,0
			l-0.1,0l-0.1,0l-0.1,0l-0.1,0l-0.1,0l-0.1,0l-0.1,0l-0.1,0l-0.1,0l-0.1,0.1l-0.1,0.1l-0.1,0.1l-0.1,0.1l-0.1,0.1l-0.1,0.1
			l-0.1,0.1l-0.1,0.1L-291-29l-0.1,0.1l-0.1,0.1l-0.1,0.1l0,0.1l0,0.1l0,0.1l0,0.1l0,0.1l0,0.1l0,0.1l0,0.1l0,0.1l0,0.1v0.3l0,0.1
			l0,0.1l0,0.1l0,0.1l0,0.1l0.1,0.2l0,0.1l0,0.1l0,0.1l0,0.1l0.1,0.1l0.1,0.1l0.1,0.1l0.1,0.1l0.1,0l0.1,0.1l0.1,0l0.1,0l0.1,0
			l0.1,0l0.1,0l0.1,0l0.1,0l0.1,0l0.1,0l0.1,0h0.1l0.2,0l0.2,0l0.2,0l0.2-0.1l0.2-0.1l0.2-0.1l0.2-0.1l0.2-0.1l-0.1,1h1.7l0.3-2.9
			l0.1-0.1l0.1-0.1l0.1-0.1l0.1-0.1l0.1,0l0.1,0l0.1,0l0.1,0l0.1,0l0.1,0l0.1,0l0.1,0l0.1,0l0.1,0l0.1,0l0.1,0l0.1,0l0.1,0l0.1,0
			l0.1,0l0.1,0l0.1,0l0.1,0l0,0l0,0.1l0,0.1l0,0.1l0,0.1l0,0.1v0.1l0,0.1l0,0.1l0,0.1l0,0.1l0,0.1l0,0.1l0,0.1l0,0.1l0,0l-0.1,0
			l-0.1,0l-0.1,0l-0.1,0l-0.1,0l-0.1,0l-0.1,0l-0.1,0l-0.1,0l-0.1,0l-0.1,0l-0.1,0l-0.1,0l-0.1,0l-0.1,0l-0.1,1.6l0.1,0.1l0.1,0l0,0
			l0,0l0.1,0l0.1,0l0.1,0h0.1l0.1,0h0.3l0.1,0l0.1,0l0.1,0l0.1,0l0.1,0l0.1,0l0.1,0l0.1,0l0.1,0l0.1,0l0.1-0.1l0.1-0.1l0.1-0.1
			l0.1-0.1l0.1-0.1l0.1-0.1l0.1-0.1l0.1-0.1l0.1-0.1l0.1-0.1l0.1-0.1l0.1-0.1l0.1-0.1l0.1-0.1l0.1-0.1l0-0.1l0.1-0.2l0-0.1l0-0.1
			l0-0.2l0-0.1l0-0.1V-28l0-0.1l0-0.1l0-0.1l0-0.1l0-0.1l0-0.1l-0.1-0.2l-0.1-0.1l-0.1-0.1l-0.1-0.1l-0.1-0.1l-0.1-0.1l-0.1-0.1
			l-0.1-0.1l-0.1-0.1l-0.1-0.1l-0.1-0.1l-0.1,0l-0.1,0l-0.1-0.1l-0.1,0l-0.1,0l-0.1,0l-0.1,0l-0.1,0l-0.1,0h-0.2l-0.1,0l-0.1,0
			l-0.1,0l-0.2,0l-0.2,0l-0.2,0.1l-0.2,0.1l-0.2,0.1l-0.2,0.1l0.1-1h4.6l0.1-0.9h-10.2L-291.6-30.4L-291.6-30.4z M-291.4-31.7
			l-0.1,0l-0.1,0l-0.1,0l-0.1,0l-0.1-0.1l-0.1-0.1l-0.1-0.1l-0.1-0.1l-0.1-0.1l0,0l0,0l0-0.1l0,0l0-0.1l0-0.1l0-0.1l0-0.1l0-0.1
			l0-0.1l0-0.1l0-0.1l0-0.1l0-0.1l0.1-0.1l0.1-0.1l0.1-0.1l0.1-0.1l0.1-0.1l0.1-0.1l0.1-0.1l0.1,0l0.1,0l0.1,0l0.1,0h0.1l0.1,0
			l0.1,0l0.1,0l0.1,0l0.1,0l0.1,0.1l0.1,0.1l0.1,0.1l0.1,0.1l0.1,0.1l0.1,0.1l0,0.1l0,0.1l0,0.1v0.1l0,0.1l0,0.1l0,0.1l0,0.1
			l-0.1,0.1l-0.1,0.1l-0.1,0.1l-0.1,0.1l-0.1,0.1l-0.1,0.1l-0.1,0.1l-0.1,0l-0.1,0.1l-0.1,0l-0.1,0l-0.1,0l-0.1,0L-291.4-31.7
			L-291.4-31.7z M-296.4-27.3l-0.2,0.1l-0.1,0l-0.1,0l-0.1,0l-0.1,0l-0.1,0h-0.1l-0.1,0l-0.1,0l-0.1,0l-0.1,0l-0.1,0l0,0l-0.1,0
			l0-0.1l0-0.1l0-0.1l0-0.1l0-0.1v-0.1l0-0.1l0-0.1l0-0.1l0-0.1l0-0.1l0-0.1l0,0l0,0l0,0l0.1,0l0.1,0l0.1,0l0.1,0l0.4,0.4l0.8,0.7
			L-296.4-27.3z M-292.1-31.3h-0.4l0-0.1l-0.1-0.2l-0.1-0.2l-0.1-0.2l-0.1-0.2l-0.1-0.2l-0.1-0.2l-0.1-0.2l-0.1-0.2l-0.1-0.2
			l-0.1-0.2l-0.1-0.2l-0.1-0.1l-0.1-0.2l-0.1-0.1l-0.1-0.1l-0.1-0.1l-0.1-0.1l-0.1-0.1l-0.1-0.1l-0.1-0.1l-0.1-0.1l-0.1-0.1l-1.2,1
			l0.2,0.1l0.2,0.1l0.2,0.1l0.1,0.1l0.2,0.1l0.2,0.1l0.1,0.1l0.1,0.2l0.1,0.2l0.1,0.2l0.1,0.2l0.1,0.2l0.1,0.2l0.1,0.2l0.1,0.2h-0.6
			l0-0.1l-0.1-0.2l-0.1-0.2l-0.1-0.2l-0.1-0.2l-0.2-0.2l-0.2-0.2l-0.2-0.2l-0.2-0.2l-0.2-0.1l-0.2-0.1l-0.8,1.1l0.1,0l0.1,0l0.1,0
			l0.1,0l0.1,0l0.1,0l0.1,0l0.1,0l0.1,0.1l0.1,0.1l0.1,0.1l0,0h-3.4l-0.1,0.9h4.6l-0.2,2.6l-0.1,0.1l-0.1,0l-0.1,0l-0.1,0l0,0l0,0
			l-1.2-1.2l0.1,0l0.1,0h0.1l0.1,0l0.1,0l0.1,0l0.1,0l0.2,0l0.1,0l0.1,0l0.1,0l0.1,0l0.1-1.1l0,0l0,0l0,0l-0.1,0l-0.1,0l-0.2,0
			l-0.2,0l-0.2,0l-0.3,0l-0.3,0h-0.1l0,0l-0.1,0l-0.1,0l-0.1,0l-0.2,0l-0.1,0l-0.1,0l-0.1,0l-0.1,0l-0.1,0l-0.1,0l-0.1,0l-0.1,0.1
			l-0.1,0.1l-0.1,0.1l-0.1,0.1l-0.1,0.1l-0.1,0.1l-0.1,0.1l-0.1,0.1l-0.1,0.1l-0.1,0.1l-0.1,0.1l-0.1,0.1l0,0.1l-0.1,0.1l0,0.1
			l0,0.1l0,0.1l0,0.1l0,0.1l0,0.1v0.1l0,0.1l0,0.1l0,0.1l0,0.1l0,0.1l0,0.1l0,0.1l0,0.1l0.1,0.1l0.1,0.1l0.1,0.1l0.1,0.1l0.1,0.1
			l0.1,0.1l0.1,0.1l0.1,0.1l0.1,0.1l0.1,0.1l0.1,0l0.1,0l0.1,0l0.1,0l0.1,0l0.1,0l0.1,0l0.1,0l0.1,0l0.1,0h0.2l0.3,0l0.1,0h0l0.1,0
			l0.1,0l0.1,0l0.1,0l0.1,0l0.1,0l0.1,0l0.1,0l0.1,0l0.1-0.1l0.1-0.1l0.1-0.1l0.1,0l-0.1,1.2h1.7l0.5-5.3h1.1l0.1-0.7L-292.1-31.3
			L-292.1-31.3z M-323.3-31.3h22l-0.1,0.9h-1.6l-0.1,1.1l0.1,0.1l0.1,0.1l0.1,0.2l0,0.1l0,0.1l0,0.1l0,0.1l0,0.1l0,0.1l0,0.1l0,0.1
			l0,0.1l0,0.1l0,0.2l0,0.2l0,0.1l0,0.1l0,0.1l0,0.1l0,0.1l0,0.1l0,0.1l-0.1,0.1l-0.1,0.1l-0.1,0.1l-0.1,0.1l-0.1,0.1l-0.1,0.1
			l-0.1,0.1l-0.1,0.1l-0.1,0.1l-0.1,0.1l-0.1,0.1l-0.1,0.1l-0.1,0.1l-0.1,0.1l-0.1,0.1l-0.1,0.1l-0.1,0l-0.1,0l-0.1,0l-0.1,0l-0.1,0
			l-0.1,0l-0.1,0l-0.2,0h-0.3l-0.3,0l-0.2,0l-0.2,0l-0.1,0l-0.1,0l-0.1,0l-0.1,0l0,0l0,0l0,0l0,0l0.1-1.3l0,0l0.1,0l0.1,0l0.2,0
			l0.2,0l0.1,0l0.1,0h0.1l0.1,0l0.1,0l0.1,0l0.1,0l0.2-0.1l0.1-0.1l0.1-0.1l0.1-0.1l0.1-0.1l0.1-0.1l0-0.1l0-0.1l0-0.1l0-0.1l0-0.2
			l0-0.1l0-0.1v-0.1l0-0.1l0-0.1l0-0.1l0-0.1l0-0.1l0,0l0,0l0,0l0,0l0,0l0,0l0,0l0,0l0,0l0,0l0,0l-0.1,0l-0.1,0h-0.1h-0.1l-0.1,0
			l-0.1,0l-0.1,0l-0.1,0l-0.1,0.1l-0.1,0.1l-0.1,0.1l-0.1,0.1l-0.1,0.1l0,0.1l0,0.1l-0.1,0.6h-1.6l0.1-0.7l0-0.1l0-0.1l0-0.1l0-0.1
			l-0.1-0.1l0,0l-0.1,0l-0.1,0l-0.1,0l-0.1,0l-0.1,0l-0.1,0h-0.1l-0.1,0l0,0l0,0l0,0l0,0l0,0l0,0l0,0l0,0l0,0l0,0l0,0l0,0l0,0.1
			l0,0.1l0,0.1l0,0.1l0,0.1l0,0.1l0,0.1l0,0.2l0,0.2l0,0.1l0,0.1l0,0.1l0,0.1l0,0.1l0,0l0,0.1l0,0l0,0l0.1,0.1l0.1,0.1l0.1,0.1
			l0.1,0l0.1,0l0.1,0l0.1,0h0.1l0.1,0l0.1,0l0.1,0l0.1,0l0.1,0l0.1-0.1l0.1-0.1l0.1-0.1l-0.1,1.4l0,0l0,0l0,0l0,0l-0.1,0l-0.1,0
			l-0.2,0l-0.2,0l-0.2,0l-0.3,0l-0.2,0l-0.1,0l-0.1,0l-0.1,0l-0.1,0l-0.1,0l-0.2-0.1l-0.1-0.1l-0.1-0.1l-0.1-0.1l-0.1-0.1l-0.1-0.1
			l-0.1-0.1l-0.1-0.2l-0.1-0.1l-0.1-0.1l-0.1-0.1l-0.1-0.1l0-0.1l0-0.1l0-0.1l0-0.1l0-0.1l0-0.1l0-0.1l0-0.1l0-0.1l0-0.1l0-0.1
			l0-0.1l0-0.1l0-0.1l0-0.1l0-0.1l0-0.1l0.1-0.1l0.1-0.1l0.1-0.2l0.1-0.1l0.1-0.1l0.1-0.1l0.1-0.1l0.1-0.1l0.1-0.1l0.1-0.1l0.1-0.1
			l0.1-0.1l0.1-0.1l0.1-0.1l0.1-0.1l0.1-0.1l0.1,0l0.1,0l0.1,0l0.1,0l0.1,0l0.1,0l0.1,0l0.1,0l0.1,0l0.2,0l0.1,0l0.1,0l0.1,0l0.1,0
			l0.1,0l0.1,0l0.1,0.1l0.1,0.1l0.1,0.1l0.1,0.1l0.1,0.1l0.1,0.1l0.1,0.1l0.1,0.1l0.1,0.1l0.1-0.1l0.1-0.1l0.1-0.2l0.2-0.2l0.1-0.1
			l0.1-0.1l0.1,0l0.1,0l0.1,0l0.1,0l0.1,0l0.1,0l0.1,0l0.1,0l0.1,0l0.1,0l0.1-0.6h-7.5l-0.2,1.7h-2.2l-0.1,0l-0.1,0l-0.1,0.1
			l-0.1,0.1l-0.1,0.1l-0.1,0.1l-0.1,0.1l-0.1,0.1l-0.1,0.1l-0.1,0.1l-0.1,0.1l0,0.1l0,0.1l0,0.1l0,0.1l0,0.1v0.2l0,0.1l0,0.1l0,0
			l0,0l0,0l0,0l0,0l0,0l0,0l0,0l0,0l0,0l0.1,0l0.1,0l0.1,0l0.1,0.1l0.1,0l0.1,0l0.1,0l0.1,0l0.1,0l0.1,0h0.1l0.1,0l0.1,0l0.1,0
			l0.1,0l0.1,0l0.1,0l0.1,0l0.1,0l0.1,0l0.1,0l0.1,0l0.1-0.1l0.1-0.1l0.1-0.1l0.1-0.1l0.1-0.1l0.1-0.1l0.1-0.1l0.1-0.1l0.1-0.1
			l0-0.1l0,0l0.4,1.6l-0.2,0.2l-0.2,0.1l-0.2,0.1l-0.2,0.1l-0.2,0.1l-0.2,0.1l-0.2,0.1l-0.3,0.1l-0.2,0l-0.1,0l1.8,2.2l-1.2,1
			l-1.5-2l-1.7,1.6l-1.1-1l2.1-1.8l-0.1,0l-0.3-0.1l-0.1,0l-0.1,0l-0.1-0.1l-0.1-0.1l-0.1-0.1l-0.1-0.1l-0.1-0.1l-0.1-0.1l-0.1-0.1
			l-0.1-0.1l-0.1-0.1l-0.1-0.1l-0.1-0.1l-0.1-0.1l-0.1-0.1l0-0.1l0-0.1l0-0.1l0-0.1l0-0.1l0-0.2v-0.1l0-0.2l0-0.2l0-0.2l0-0.1l0-0.2
			l0.1-0.2l0.1-0.1l0.1-0.1l0.1-0.1l0.1-0.1l0.1-0.1l0.1-0.1l0.1-0.1l0.1-0.1l0.1-0.1l0.1-0.1l0.1-0.1l0.2-0.1l0.2-0.1l0.2-0.1
			l0.2-0.1l0.2-0.1l0.2,0l0.1,0l0.1,0h0.1l0.1,0h0.8l0-0.5h-10l-0.5,5.3h-1.7l0.2-2.1h-1.6l0.1-1.2h1.7l0.2-2h-2l0,0.1l0,0.1l0,0.1
			l0,0.1l0,0.1l0,0.1l0,0.1l0,0.1l0,0.1l0,0.1l0,0.1v0.1l0,0.1v0.1l0,0.1l0,0.1l0,0.1l0,0.1l0,0.1l0,0.1l0,0.1l0,0.1l0,0.1l0,0.1
			l-0.1,0.1l0,0.1l-0.1,0.1l-0.1,0.1l-0.1,0.1l-0.1,0.1l-0.1,0.1l-0.1,0.1l-0.1,0.1l-0.1,0.1l-0.1,0.1l-0.1,0l-0.1,0l-0.1,0l-0.1,0
			l-0.1,0l-0.1,0l-0.1,0l-0.1,0l-0.1,0l-0.1,0h-0.2l-0.1,0l0,0.1v0.1l0,0.1l0,0.1l0,0.1l0,0.1l0.1,0.1l0.1,0.1l0.1,0l0.1,0.1l0.1,0
			l0.1,0l0.1,0l0.1,0l0.1,0l0.1,0l0.2,0l0.2,0l0.2,0l0.2,0l0.2,0l0.1,0l0.1,0l0,0l-0.1,1.3l0,0v0l0,0l0,0l-0.1,0l-0.2,0l-0.1,0
			l-0.1,0l-0.1,0l-0.1,0l-0.1,0l-0.1,0h-0.1l-0.1,0l-0.2,0l-0.2,0l-0.2,0l-0.2,0l-0.2,0l-0.2,0l-0.2-0.1l-0.1-0.1l-0.1,0l-0.1,0
			l-0.1,0l-0.1,0l-0.1-0.1l0,0l-0.1,0l0,0l-0.1-0.1l0-0.1l0-0.1l0-0.1l0-0.1l0-0.1l0-0.1l-0.1-0.2l-0.1-0.2l0-0.2l0-0.2l0-0.2l0-0.2
			l0-0.2l0-0.2h-0.6l0.1-1.1h1.4l0.1,0l0.1,0l0.1,0h0.1l0.2,0l0.1,0l0.1,0l0.1,0l0.1,0l0.1,0l0.1-0.1l0.1-0.1l0.1-0.1l0-0.1l0-0.1
			l0-0.1l0-0.1l0-0.1l0-0.1l0-0.1l0-0.1l0-0.1l0-0.1l0,0l0,0l0,0l0,0l-0.1-0.1l0,0l0,0l-0.1-0.1l-0.1,0h0l0,0l0,0h-2.3l0.1-0.9h6.8
			l0-0.1l-0.1-0.2l-0.1-0.2l-0.1-0.1l-0.1-0.1l-0.1-0.1l-0.1-0.1l-0.1-0.1l-0.1-0.1l-0.3-0.2l-0.1-0.1l-0.2-0.1l-0.2-0.1l-0.2-0.1
			l-0.2-0.1l1.1-1l0.1,0l0.1,0.1l0.1,0.1l0.1,0.1l0.1,0.1l0.1,0.1l0.1,0.1l0.1,0.1l0.1,0.1l0.1,0.1l0.1,0.1l0.1,0.1l0.1,0.1l0.1,0.1
			l0.1,0.1l0.1,0.1l0.2,0.3l0.1,0.2l0.1,0.2l0.1,0.2l0.1,0.2L-323.3-31.3L-323.3-31.3z M-318.3-28.4L-318.3-28.4l0-0.2l0-0.1l0-0.1
			l0-0.1l0,0l0,0l0,0h-1.5l0,0l0,0l0,0l0,0l0,0.1l0,0.1l0,0.1l0,0l0,0.1l0,0.1l0,0.1l0,0.1l0,0.2l0,0.2l0,0.1l0,0.1l0,0.1l0,0.1l0,0
			l0,0l0,0l0,0l-0.1,0.1l-0.1,0l-0.1,0l-0.1,0l-0.1,0l-0.1,0l-0.1,0l-0.1,0l0,0l0,0l0,0l0,0l0,0l0,0l0,0l0-0.1l0,0l0-0.1l0,0l0-0.1
			l0,0v-0.2l0-0.1l0-0.1l0-0.1l0-0.1l0-0.1l0-0.1l0-0.1l0.1-0.1l0.1,0l0.1,0l0.1,0l0.1,0l0.1,0l0.1,0h3.2l0.1-1h-3.6l-0.1,0l-0.1,0
			l-0.1,0l-0.1,0l-0.1,0l-0.1,0l-0.1,0l-0.1,0l-0.1,0.1l-0.1,0.1l-0.1,0.1l-0.1,0.1l-0.1,0.1l-0.1,0.1l-0.1,0.1l-0.1,0.1l-0.1,0.1
			l-0.1,0.1l-0.1,0.1l-0.1,0.1l0,0.1l0,0.1l0,0.2l0,0.2l0,0.1l0,0.1l0,0.1l0,0.1l0,0.1l0,0.1l0,0.1l0,0.1l0,0.1l0,0.1l0,0.1l0,0.1
			l0,0.1l0.1,0.1l0.1,0.1l0.1,0.1l0.1,0.1l0.1,0.1l0.1,0.1l0.1,0.1l0.1,0.1l0.1,0.1l0.1,0l0.1,0l0.1,0l0.1,0l0.1,0l0.1,0l0.1,0
			l0.1,0l0.1,0l0.1,0h0.1l0.1,0l0.1,0l0.1,0l0.1,0l0.1,0l0.1,0l0.1,0l0.1,0l0.1,0l0.1,0l0.1,0l0.1-0.1l0.1-0.1l0.1-0.1l0.1-0.1
			l0.1-0.1l0.1-0.1l0.1-0.1l0.1-0.1l0.1-0.1l0.1-0.1l0.1-0.1l0.1-0.1l0-0.1l0-0.1l0-0.1l0-0.1l0-0.1l0-0.1l0-0.1l0-0.1l0-0.1v-0.2
			l0-0.1L-318.3-28.4L-318.3-28.4z"/>
	</g>
	<path id="path5593" class="st1" d="M22.8,77h33.8V43H22.8V77z"/>
	<g id="g5595" transform="translate(242.7173,75.431854)">
		<path id="path5597" class="st2" d="M-191.8-15.7l-6.7-6.6l-1.6,0h-2.7V-23l2.7,0l1.6,0l7.2,7.3L-191.8-15.7z M-194-15.6l-4.5-4.4
			h-1.6l-2.7,0l0-0.8l2.7,0l1.6,0l5,5.1L-194-15.6z M-200.1-6l-2.5,2.4l-0.1-0.5l2.5-2.6l4-4.1v-4.3h0.8l0,4.3L-200.1-6z
			 M-200.1-8.9l1.8-1.8v-4.3h0.8l0,4.3l-2.6,2.5l-2.5,2.5l-0.1-0.5L-200.1-8.9z M-205.6-14l-1.4-1.5l1.4-1.4l2.9-2.9l2.6,2.8
			l1.5,1.6l-1.5,1.5l-2.8,2.8L-205.6-14z M-205.6-7.6l-1.6,0l-7.2-7.3l0.5-0.1l6.7,6.6h1.6l2.7,0v0.8L-205.6-7.6z M-211.7-15
			l4.5,4.4l1.6,0l2.7,0v0.8l-2.7,0l-1.6,0l-5-5.1L-211.7-15z M-203.1-24.4l-2.6,2.7l-1.8,1.8v4.3h-0.8l0-4.3l2.6-2.5l2.5-2.5
			L-203.1-24.4z M-205.6-24.6l2.5-2.4l0.1,0.5l-2.5,2.6l-4,4.1v4.3h-0.8l0-4.3L-205.6-24.6z M-198.3-24.3v-4.7l-4.8,0l-2.6,2.7
			l-6,6.4h-4.5v4.6l8.8,9.1v4.5h4.5l2.9-2.9l6-6h4.4v-5.1L-198.3-24.3z"/>
	</g>
</g>
</svg>
