<?xml version="1.0" encoding="utf-8"?>
<!-- Generator: Adobe Illustrator 26.0.1, SVG Export Plug-In . SVG Version: 6.00 Build 0)  -->
<svg version="1.1" id="Layer_1" xmlns="http://www.w3.org/2000/svg" xmlns:xlink="http://www.w3.org/1999/xlink" x="0px" y="0px"
	 viewBox="0 0 202 120" style="enable-background:new 0 0 202 120;" xml:space="preserve">
<style type="text/css">
	.st0{fill:#004A7F;}
	.st1{fill:#F06321;}
	.st2{fill:#AE282E;}
	.st3{fill:#FFFFFF;}
</style>
<g id="layer1" transform="translate(-122.10512,-47.344444)">
	<g id="g651" transform="matrix(0.96229857,0,0,0.96229857,4.6085251,2.3884509)">
		<path id="path150" class="st0" d="M172.8,125.6h5.8l4.5-16.8h-5.7L172.8,125.6z"/>
		<path id="path152" class="st0" d="M202.4,125.6h5.8l4.5-16.8h-5.8L202.4,125.6z"/>
		<path id="path154" class="st0" d="M232,125.6h5.7l4.5-16.8h-5.8L232,125.6z"/>
		<path id="path156" class="st0" d="M197,114.6h5.8c0.8-3.8-1.6-5.7-7.3-5.7c-6.6,0-11,3.2-12.5,8.7c-1.3,5.1,1.4,8.1,7.5,8.1
			c6.2,0,9.9-1.9,11.4-6.3h-5.8c-0.8,1.9-2.3,2.9-4.3,2.9c-2.8,0-3.9-1.7-3.1-4.9c0.9-3.3,3.1-5.2,5.8-5.2
			C196.4,112.2,197.2,113,197,114.6"/>
		<path id="path158" class="st0" d="M226.6,114.6h5.8c0.8-3.8-1.7-5.7-7.3-5.7c-6.5,0-11,3.2-12.4,8.7c-1.4,5.1,1.3,8.1,7.5,8.1
			c6.2,0,9.8-1.9,11.4-6.3h-5.8c-0.8,1.9-2.3,2.9-4.4,2.9c-2.8,0-3.9-1.7-3-4.9c0.8-3.3,3-5.2,5.8-5.2
			C225.9,112.2,226.8,113,226.6,114.6"/>
		<path id="path160" class="st1" d="M150.6,99.5c7.7-7.6,17-9.6,20.7-4.4c3.7,5.2,0.5,15.7-7.2,23.3c-7.7,7.7-17,9.7-20.8,4.4
			C139.7,117.6,142.9,107.1,150.6,99.5"/>
		<path id="path162" class="st2" d="M155.7,95.4c-0.8,0.6-1.7,1.4-2.5,2.1c-6.7,6.7-9.5,15.8-6.2,20.4c3.4,4.6,11.7,2.9,18.6-3.8
			c3.7-3.6,6.2-7.8,7.2-11.7c0.3-2.9-0.1-5.4-1.4-7.3C168.4,91,162.1,91.3,155.7,95.4"/>
		<path id="path164" class="st3" d="M165.4,96.3v0.2c-0.1,1-0.6,2.1-1.6,3.2c-1.5,1.5-3.6,2-4.4,1.2c-1-0.9-0.4-2.9,1.1-4.5
			c1.6-1.5,3.6-2,4.5-1.1C165.2,95.5,165.4,95.8,165.4,96.3 M159.5,122.2c-3.6,2.7-7.3,4.1-11,3.5c1.5,0.1,2.8-1.6,3.8-3.9
			c1-2.3,1.6-4.5,2.1-6.5c0.7-3.2,0.8-5.5,0.4-6c-0.6-0.8-2-0.6-3.6,0.3c-0.8,0.5-1.8,0.2-0.6-1.3c1.2-1.5,6-5,7.7-5.5
			c1.9-0.5,4.1,0.2,3.3,2.3C161.2,106.6,154.6,124,159.5,122.2"/>
		<path id="path166" class="st0" d="M250.8,123l1.3-4.9h3.2v-2.6h-2.4l1.1-4.1h1.3v-2.5h-4.3l-4.5,16.8h8.8V123L250.8,123z
			 M255.2,118.1h0.6c2.9,0,4.2,0.5,3.7,2.5c-0.5,1.8-1.9,2.4-4.3,2.4v2.7c2.4,0,4.1-0.2,5.9-1.4c1.2-0.8,2-2,2.4-3.3
			c0.6-2.3-0.4-3.9-3.1-4.2c2.5-0.5,4.1-1.8,4.6-3.8c0.5-1.5,0.1-2.7-1-3.4c-0.9-0.6-2.4-0.7-4.5-0.7h-4.3v2.5h2.2
			c2.7,0,4,0.3,3.6,2c-0.5,1.6-2,2.1-4.7,2.1h-1L255.2,118.1z"/>
		<path id="path168" class="st0" d="M271.1,113.9v2.1c-0.5,0.2-0.8,0.6-1,1.2h-3.4C267.2,115.5,268.7,114.4,271.1,113.9
			 M271.1,123.8c-0.4,0.1-0.8,0.2-1.3,0.2c-1.5,0-2.2-0.6-1.9-1.8c0.3-1.3,1.4-1.8,3.2-1.9v-2c-3.9,0.3-6,1.3-6.7,3.8
			c-0.6,2.3,0.8,3.8,3.9,3.8c1,0,2-0.2,2.8-0.5V123.8z M274.3,120.3l-0.1,0.2c-0.5,1.8-1.6,2.9-3.2,3.3v1.7c0.8-0.3,1.6-0.8,2.3-1.4
			l-0.3,1.6h3.4c0.2-0.8,0.3-1.7,0.6-2.6l1.3-4.7c0.1-0.4,0.2-0.8,0.2-1.2v-0.6c-0.1-1.9-1.8-2.9-4.8-2.9c-1,0-1.8,0.1-2.6,0.2v2.1
			c0.5-0.3,1.1-0.4,1.9-0.4c1.7,0,2.4,0.8,1.9,2.5l-0.1,0.2H273c-0.7,0-1.4,0.1-2,0.1v2L274.3,120.3z"/>
		<path id="path170" class="st0" d="M279.5,125.7h3.4l1.6-6c0.6-2.1,2.5-3.7,4.6-3.7c2,0,2.8,1.2,2.1,3.6l-1.6,6.2h3.4l1.9-7.2
			c0.8-3-0.7-4.9-4.1-4.9c-2.2,0-4,0.8-5.5,2.4l0.4-2.1h-3.4c-0.3,1.9-0.6,3-0.7,3.4L279.5,125.7z"/>
		<path id="path172" class="st0" d="M296.1,125.7h3.4l1.7-6.3l4.6,6.3h4.7l-5.2-6.7l7-5h-4.3l-6.5,4.7l2.6-9.8h-3.4L296.1,125.7z"/>
	</g>
</g>
</svg>
