<?xml version="1.0" encoding="utf-8"?>
<!-- Generator: Adobe Illustrator 26.0.1, SVG Export Plug-In . SVG Version: 6.00 Build 0)  -->
<svg version="1.1" id="Layer_1" xmlns="http://www.w3.org/2000/svg" xmlns:xlink="http://www.w3.org/1999/xlink" x="0px" y="0px"
	 viewBox="0 0 202 120" style="enable-background:new 0 0 202 120;" xml:space="preserve">
<style type="text/css">
	.st0{fill:#00836C;}
	.st1{fill:#FFFFFF;}
	.st2{fill:#EF8123;}
</style>
<g id="g12" transform="matrix(1.25,0,0,-1.25,704.51625,853.02)">
	<path id="path148" class="st0" d="M-550.2,618.3h134.7v31.4h-134.7V618.3z"/>
	<path id="path160" class="st1" d="M-516.3,634c0-7.8-6.3-14.1-14.1-14.1c-7.8,0-14.1,6.3-14.1,14.1c0,7.8,6.3,14.1,14.1,14.1
		C-522.6,648.1-516.3,641.8-516.3,634"/>
	<path id="path164" class="st1" d="M-511.4,629.1c0,0.6,0,1.2,0,1.8c0,2.3,0,4.7,0,7c-0.1,0.6,0,1.2-0.1,1.8c0,0.4,0,0.9,0,1.3
		c0,0.2,0,0.3-0.1,0.5c-0.1,0.2,0.1,0.3,0.3,0.2c0.7,0,1.3,0,2,0c0.4,0,0.9,0,1.3,0c0-0.3,0-0.6,0-0.9c0-0.5-0.1-1-0.1-1.5
		c0-0.4,0-0.8,0-1.2c0-1.2,0-2.3,0-3.5c0-1.2,0-2.4,0-3.5c0-0.7,0-1.4,0-2.1c0-0.6,0-1.2,0.1-1.7c0-0.3,0.1-0.7,0.1-1
		c-0.3,0-0.5,0-0.8,0c-0.6,0-1.2,0-1.8,0c-0.3,0-0.6,0-0.8,0c-0.2-0.1-0.2,0.1-0.2,0.3c0,0.2,0,0.4,0.1,0.5c0,0.5,0,1,0.1,1.5
		C-511.4,628.9-511.4,629-511.4,629.1L-511.4,629.1z"/>
	<path id="path168" class="st1" d="M-501.8,627.9c0.7-0.1,1.5-0.1,2.2-0.1c0.9,0,1.8,0.2,2.5,0.6c0.6,0.3,1.1,0.8,1.4,1.4
		c0.2,0.3,0.4,0.7,0.5,1c0.3,0.7,0.5,1.5,0.5,2.3c0.1,0.8,0.1,1.5,0,2.3c0,0.7-0.2,1.4-0.5,2.1c-0.2,0.5-0.5,1-0.9,1.4
		c-0.3,0.4-0.7,0.7-1.2,0.9c-0.3,0.1-0.6,0.3-0.9,0.3c-1,0.3-2.1,0.2-3.2,0.2c-0.2,0-0.5,0-0.7,0c0-3.2,0-6.3,0-9.5
		C-501.8,629.8-501.8,628.8-501.8,627.9L-501.8,627.9z M-505.1,629c0,1.5,0,3,0,4.5c0,0.9,0,1.8,0,2.7c0,1.4,0,2.8-0.1,4.1
		c-0.1,0.4,0,0.8-0.1,1.2c0,0.1-0.2,0.5,0.1,0.4c0.5-0.1,0.9-0.1,1.4-0.1c0.5,0,1.1-0.1,1.6-0.1c0.4,0.1,0.9,0,1.4,0.1
		c0.7,0,1.4,0.1,2,0.1c0.8,0,1.5,0,2.3-0.1c0.5-0.1,1.1-0.2,1.6-0.4c0.5-0.2,1-0.5,1.5-0.8c0.6-0.5,1.1-1,1.5-1.7
		c0.4-0.6,0.7-1.4,0.8-2.1c0.1-0.5,0.2-1,0.2-1.5c0.1-0.6,0-1.2,0-1.7c-0.1-0.4-0.1-0.9-0.2-1.3c-0.1-0.4-0.2-0.8-0.3-1.2
		c-0.2-0.8-0.6-1.5-1.1-2.1c-0.3-0.4-0.6-0.7-1-1c-0.6-0.5-1.4-0.9-2.1-1.2c-0.5-0.1-1-0.3-1.5-0.4c-1.1-0.2-2.3-0.2-3.4-0.1
		c-0.5,0-1,0.1-1.5,0.1c-0.7,0.1-1.4,0.1-2.1,0c-0.4,0-0.7-0.1-1.1-0.2c0,0.3,0.1,0.6,0.1,0.9C-505.2,627.7-505.2,628.4-505.1,629
		L-505.1,629z"/>
	<path id="path172" class="st1" d="M-485.5,627.9c0.5,0,1-0.1,1.5-0.1c0.3,0.1,0.7,0.1,1,0.3c0.1,0.1,0.3,0.2,0.4,0.3
		c0.1,0.1,0.3,0.3,0.4,0.4c0.1,0.1,0.2,0.3,0.3,0.5c0.1,0.3,0.2,0.6,0.2,0.9c0,0.3,0.1,0.6,0,0.9c-0.1,0.2,0,0.5-0.1,0.7
		c-0.1,0.3-0.2,0.6-0.4,0.8c-0.1,0.1-0.2,0.3-0.3,0.4c-0.1,0.2-0.3,0.2-0.4,0.4c-0.2,0-0.3,0.2-0.5,0.2c-0.2,0.1-0.5,0.2-0.7,0.1
		c-0.3,0.1-0.7,0-1.1,0.1c-0.3,0.1-0.4-0.1-0.3-0.4C-485.5,631.6-485.5,629.7-485.5,627.9L-485.5,627.9z M-485.5,635.2
		c0.5,0,1.1,0,1.5,0.1c0.2,0.1,0.5,0.2,0.8,0.3c0.2,0.1,0.4,0.3,0.6,0.5c0.2,0.2,0.3,0.5,0.4,0.8c0.1,0.2,0.1,0.4,0.1,0.6
		c0,0.3,0.1,0.7,0,1c0,0.2-0.1,0.4-0.2,0.6c-0.1,0.3-0.3,0.5-0.5,0.7c-0.2,0.2-0.4,0.3-0.7,0.4c-0.6,0.2-1.3,0.2-1.9,0.1
		c-0.2,0-0.1-0.3-0.1-0.5C-485.5,638.3-485.5,636.7-485.5,635.2L-485.5,635.2z M-488.8,629.1c0,1,0,2,0,2.9c0,1.3,0,2.7,0,4
		c0,0.6,0,1.3,0,1.9c0,0.8,0,1.6-0.1,2.4c0,0.3,0,0.7-0.1,1c0,0.1-0.1,0.4,0,0.5c0.7,0,1.3,0,2,0c0.8,0,1.6,0,2.3,0
		c0.8,0,1.6,0.1,2.3-0.1c0.3-0.1,0.6-0.1,0.9-0.2c0.4-0.1,0.7-0.2,1-0.4c0.2-0.1,0.4-0.2,0.6-0.4c0.3-0.2,0.5-0.5,0.7-0.8
		c0.2-0.3,0.3-0.6,0.4-0.9c0.1-0.4,0.1-0.8,0-1.1c0-0.4-0.1-0.7-0.3-1c-0.2-0.4-0.4-0.7-0.7-1c-0.3-0.3-0.6-0.5-0.9-0.6
		c-0.3-0.2-0.6-0.3-0.9-0.4c-0.2,0-0.3-0.1-0.5-0.1c0.2,0,0.4-0.1,0.6-0.1c0.2-0.1,0.5-0.2,0.7-0.3c0.4-0.2,0.7-0.4,1-0.6
		c0.4-0.3,0.7-0.6,0.9-1c0.2-0.4,0.4-0.9,0.4-1.4c0.1-0.7,0-1.4-0.2-2.1c-0.1-0.4-0.3-0.7-0.6-1.1c-0.2-0.2-0.4-0.5-0.6-0.6
		c-0.3-0.3-0.7-0.5-1-0.6c-0.4-0.2-0.9-0.3-1.3-0.4c-0.6-0.1-1.1-0.1-1.7-0.1c-0.8,0-1.6,0-2.4,0c-0.5,0-1,0-1.6,0
		c-0.3,0-0.7,0-1.1,0c-0.2,0,0,0.3-0.1,0.5c0,0.3,0.1,0.6,0.1,1C-488.8,628.2-488.8,628.7-488.8,629.1L-488.8,629.1z"/>
	<path id="path176" class="st1" d="M-474.9,629.1c0.1,2,0,4.1,0,6.1c0,1.5,0,3-0.1,4.6c0,0.3,0,0.6,0,0.9c0,0.3,0,0.5,0,0.8
		c0,0.1,0,0.3,0,0.4c0.4,0,0.8,0,1.2,0c0.4,0,0.8,0,1.1,0c0.4,0,0.8,0,1.2,0c0.2,0.1,0.1-0.2,0.1-0.4c-0.1-0.3,0-0.6-0.1-1
		c0-0.4,0-0.8,0-1.1c-0.1-0.3,0-0.7,0-1.1c0-0.8,0-1.6,0-2.5c0-1.9,0-3.8,0-5.7c0-0.4,0-0.9,0-1.3c0.1-0.4,0-0.9,0.1-1.3
		c0-0.4,0.1-0.7,0.1-1.1c0-0.2-0.3,0-0.4-0.1c-0.3,0-0.5,0-0.8,0c-0.4,0-0.8,0-1.2,0c-0.2,0-0.5,0-0.7,0c-0.2,0-0.4,0-0.6,0
		c0,0.3,0,0.5,0.1,0.8c0,0.4,0,0.8,0,1.2C-474.9,628.6-474.9,628.9-474.9,629.1L-474.9,629.1z"/>
	<path id="path180" class="st1" d="M-461.5,627.5c0.4,0,0.7,0,1.1,0.1c0.2,0.1,0.4,0,0.5,0.1c0.2,0,0.3,0.1,0.4,0.2
		c0.2,0.1,0.4,0.3,0.5,0.5c0.1,0.1,0.1,0.3,0.2,0.4c0.1,0.4,0.1,0.8,0.1,1.2c0,0.2,0,0.3-0.1,0.5c0,0.2-0.1,0.3-0.2,0.5
		c-0.1,0.2-0.2,0.4-0.4,0.5c-0.1,0.1-0.3,0.2-0.4,0.3c-0.2,0.1-0.5,0.2-0.8,0.2c-0.2,0.1-0.4,0-0.7,0.1c-0.2,0-0.4,0.1-0.3-0.2
		c0-1.2,0-2.5,0-3.7c0-0.2,0-0.4,0-0.6C-461.6,627.6-461.6,627.5-461.5,627.5L-461.5,627.5z M-458.9,635.3c0,0.3,0,0.6-0.1,0.8
		c-0.1,0.2-0.2,0.3-0.3,0.5c-0.1,0.1-0.2,0.2-0.3,0.3c-0.1,0.1-0.2,0.1-0.4,0.2c-0.2,0.1-0.3,0.1-0.5,0.1c-0.3,0.1-0.7,0.1-1,0.1
		c-0.1-0.2,0-0.4,0-0.6c-0.1-0.2,0-0.3-0.1-0.5c0-1,0-2,0-3c0.3,0,0.6,0,1,0c0.2,0.1,0.4,0,0.6,0.1c0.2,0,0.3,0.1,0.5,0.3
		c0.1,0.1,0.2,0.2,0.2,0.3c0.2,0.2,0.3,0.5,0.4,0.8C-459,634.9-458.9,635.1-458.9,635.3L-458.9,635.3z M-459.8,632.7
		c0.4,0,0.9,0,1.3-0.1c0.2,0,0.4-0.1,0.6-0.1c0.1,0,0.3-0.1,0.4-0.2c0.2-0.1,0.3-0.2,0.5-0.2c0.1-0.1,0.3-0.2,0.4-0.3
		c0.1-0.1,0.2-0.3,0.3-0.4c0-0.1,0.1-0.2,0.1-0.4c0.1-0.2,0.1-0.4,0.1-0.6c0.1-0.4,0.1-0.8,0-1.3c-0.1-0.2-0.1-0.5-0.2-0.7
		c-0.1-0.2-0.1-0.4-0.3-0.5c-0.1-0.3-0.4-0.5-0.6-0.7c-0.2-0.1-0.4-0.3-0.7-0.4c-0.2-0.1-0.3-0.2-0.5-0.2c-0.1-0.1-0.3-0.1-0.5-0.1
		c-0.2,0-0.5-0.1-0.7-0.1c-1,0-1.9,0-2.9,0c-0.7,0-1.3,0-2,0c0,0.2,0,0.4,0.1,0.7c0,0.3,0,0.7,0.1,1c0,1,0,2.1,0,3.2
		c0,0.4,0,0.8,0,1.2c0,0.7,0,1.5,0,2.2c0,0.5,0,1,0,1.5c0,0.7,0,1.4,0,2.2c0.6,0,1.2,0,1.8,0c0.4,0,0.9,0,1.3,0c0.8,0,1.5,0,2.3-0.1
		c0.2-0.1,0.5-0.1,0.7-0.2c0.3-0.1,0.5-0.2,0.8-0.3c0.1,0,0.2-0.2,0.4-0.2c0.2-0.1,0.3-0.3,0.5-0.5c0.1-0.1,0.2-0.3,0.2-0.4
		c0.1-0.1,0.1-0.3,0.1-0.4c0.1-0.3,0.1-0.6,0.1-0.8c0-0.2,0-0.3-0.1-0.5c0-0.2-0.1-0.3-0.2-0.5c-0.1-0.2-0.2-0.3-0.3-0.5
		c-0.1-0.1-0.2-0.2-0.3-0.3c-0.1-0.1-0.3-0.2-0.4-0.3c-0.1-0.1-0.3-0.2-0.4-0.2c-0.1-0.1-0.3-0.1-0.4-0.2c-0.2-0.1-0.4-0.1-0.6-0.1
		C-459.3,632.8-459.6,632.8-459.8,632.7L-459.8,632.7L-459.8,632.7L-459.8,632.7L-459.8,632.7z"/>
	<path id="path184" class="st1" d="M-448.9,631c-0.1,0.2-0.1,0.5-0.2,0.6c0,0.1-0.1,0.3-0.1,0.4c0,0.1-0.1,0.3-0.1,0.4
		c-0.1,0.2-0.2,0.5-0.2,0.7c-0.1,0.2-0.1,0.4-0.3,0.6c0,0.2-0.1,0.2-0.1,0.4c-0.1,0.2-0.2,0.4-0.3,0.6c-0.1,0.1-0.1,0.4-0.2,0.1
		c0-0.1-0.1-0.2-0.2-0.3c-0.1-0.3-0.2-0.5-0.3-0.8c-0.1-0.1-0.1-0.3-0.2-0.4c0-0.2-0.1-0.3-0.1-0.5c-0.1-0.2-0.2-0.4-0.2-0.6
		c-0.1-0.2-0.2-0.5-0.2-0.7c-0.1-0.1-0.1-0.3-0.1-0.4c0-0.1-0.2-0.3,0.1-0.3c0.3,0,0.6,0,1,0C-450.2,631-449.6,631-448.9,631
		L-448.9,631z M-444.3,626.5c-0.5,0-1,0-1.5,0c-0.5,0-1,0-1.4,0c-0.1,0.2-0.1,0.4-0.2,0.5c0,0.2-0.1,0.3-0.1,0.4
		c-0.1,0.3-0.3,0.7-0.3,1c-0.1,0.3-0.2,0.5-0.2,0.8c0,0.2-0.1,0.3-0.2,0.5c0,0.1-0.1,0.2-0.2,0.3c-1.3,0-2.7,0-4,0
		c-0.1-0.2-0.1-0.4-0.2-0.6c-0.2-0.4-0.3-0.8-0.4-1.2c-0.2-0.4-0.2-0.8-0.4-1.2c0-0.2-0.1-0.3-0.2-0.5c-0.4,0-0.7,0-1.1,0
		c-0.1,0.1-0.4,0-0.4,0.1c0,0.1,0.1,0.2,0.1,0.3c0.1,0.3,0.3,0.6,0.4,0.9c0.1,0.3,0.3,0.7,0.4,1c0.2,0.3,0.3,0.7,0.4,1
		c0.1,0.4,0.3,0.7,0.5,1.1c0.1,0.3,0.2,0.6,0.3,0.9c0.1,0.2,0.2,0.5,0.3,0.7c0.1,0.3,0.2,0.7,0.4,1c0.1,0.3,0.3,0.7,0.4,1
		c0.1,0.3,0.2,0.6,0.3,0.8c0.2,0.5,0.4,1,0.6,1.5c0.1,0.3,0.2,0.5,0.3,0.8c0.1,0.3,0.2,0.5,0.3,0.8c0.1,0.1,0.2,0,0.3,0
		c0.3,0,0.6,0,0.9,0c0.4-0.2,0.4-0.9,0.6-1.3c0.2-0.5,0.4-1,0.6-1.5c0.1-0.3,0.2-0.7,0.4-1c0.2-0.5,0.4-1,0.6-1.5
		c0.1-0.2,0.2-0.3,0.2-0.5c0.1-0.3,0.2-0.5,0.3-0.8c0.1-0.3,0.2-0.6,0.4-0.9c0.1-0.3,0.3-0.7,0.4-1c0.1-0.2,0.2-0.5,0.3-0.7
		c0.2-0.3,0.2-0.7,0.4-1c0.1-0.2,0.2-0.5,0.3-0.7c0.1-0.1,0.1-0.2,0.2-0.3C-444.5,627-444.4,626.8-444.3,626.5
		C-444.4,626.6-444.3,626.5-444.3,626.5L-444.3,626.5z"/>
	<path id="path188" class="st1" d="M-432.8,638.3c0-0.3-0.1-0.6-0.1-0.9c0-0.4-0.1-0.8-0.1-1.2c0-0.7-0.1-1.5-0.1-2.2
		c-0.1-0.6,0-1.2,0-1.8c0.1-0.7,0-1.4,0.1-2.2c0-0.7,0.1-1.3,0.1-1.9c0-0.4,0-0.8,0-1.2c0-0.1,0-0.3,0-0.4c-0.3,0-0.5,0.1-0.8,0.1
		c-0.2,0-0.4,0-0.7-0.1c-0.1,0.1-0.2,0.2-0.3,0.3c-0.1,0.1-0.2,0.2-0.3,0.3c-0.1,0.1-0.2,0.2-0.3,0.3c-0.3,0.3-0.6,0.6-0.9,1
		c-0.2,0.2-0.3,0.3-0.5,0.5c-0.2,0.1-0.3,0.3-0.4,0.5c-0.3,0.3-0.5,0.6-0.8,0.8c-0.1,0.1-0.2,0.2-0.3,0.3c-0.1,0.1-0.3,0.3-0.4,0.4
		c-0.3,0.3-0.5,0.6-0.8,0.9c-0.2,0.2-0.4,0.4-0.6,0.7c-0.1,0.2-0.3,0.3-0.4,0.4c-0.2,0.1-0.3,0.4-0.5,0.5c-0.3,0.2-0.5,0.6-0.8,0.8
		c-0.1,0.1-0.2,0.2-0.4,0.4c0-1.9,0-3.7,0-5.6c0-0.8,0.1-1.6,0-2.4c0-0.1,0.1-0.4-0.1-0.3c-0.3,0.1-0.5,0.1-0.8,0
		c-0.2,0-0.4,0-0.6-0.1c0,4,0,7.9,0,11.9c0.3,0,0.6,0,0.8-0.1c0.2-0.1,0.5-0.1,0.7,0c0.2,0,0.3,0,0.5,0.1c0.2-0.3,0.4-0.5,0.7-0.8
		c0.4-0.5,0.9-1,1.3-1.5c0.4-0.3,0.6-0.7,1-1.1c0.3-0.4,0.6-0.7,0.9-1c0.3-0.4,0.7-0.7,1-1.1c0.4-0.4,0.7-0.8,1-1.1
		c0.4-0.4,0.8-0.8,1.1-1.3c0.2-0.3,0.1,0.1,0.1,0.3c0,1,0,1.9,0,2.9c0,1.2,0,2.4,0,3.6c0,0.4,0,0.7,0,1.1c0.2-0.1,0.5-0.1,0.8-0.1
		C-433.2,638.2-433,638.2-432.8,638.3L-432.8,638.3z"/>
	<path id="path192" class="st1" d="M-420.5,626.4c-1.1,0-2.2,0-3.3,0c-0.2,0.3-0.4,0.6-0.6,0.9c-0.2,0.3-0.4,0.6-0.6,1
		c-0.1,0.2-0.3,0.4-0.4,0.6c-0.1,0.2-0.3,0.4-0.4,0.7c-0.2,0.2-0.3,0.5-0.5,0.7c-0.1,0.1-0.2,0.3-0.3,0.5c-0.1,0.2-0.2,0.4-0.4,0.5
		c-0.1,0.1-0.2,0.3-0.3,0.4c0-1.3,0-2.7,0-4c0.1-0.2,0-0.5,0.1-0.7c0-0.2,0-0.4,0.1-0.5c-0.3,0-0.5,0-0.8,0c-0.3,0-0.6,0-0.8,0
		c-0.2,0-0.5,0-0.7,0c-0.2,0-0.4,0-0.5-0.1c0,1,0,2,0,3c0,0.9,0,1.7,0,2.6c0.1,0.5,0,1.1,0,1.6c0,1.3,0,2.6,0,3.9
		c-0.1,0.2,0,0.4-0.1,0.6c-0.1,0.2,0,0.2,0.2,0.2c0.4-0.1,0.7-0.1,1.1-0.1c0.3,0,0.7,0,1,0c0.2,0,0.4,0,0.6,0.1
		c0-0.3-0.1-0.6-0.1-0.9c0-0.1,0-0.3,0-0.5c0-0.4,0-0.8,0-1.2c0-0.9,0-1.9,0-2.8c0.1,0.2,0.3,0.3,0.4,0.4c0.2,0.2,0.4,0.4,0.6,0.6
		c0.2,0.3,0.5,0.5,0.7,0.9c0.2,0.2,0.3,0.4,0.5,0.6c0.1,0.2,0.3,0.4,0.5,0.6c0.2,0.2,0.3,0.4,0.5,0.6c0.1,0.2,0.3,0.3,0.4,0.5
		c0.1,0.1,0.2,0.3,0.3,0.4c0.1,0.1,0.2,0.2,0.3,0.4c0.1,0.1,0.2,0.3,0.4,0.4c0.3-0.1,0.6,0,0.9-0.1c0.4,0,0.8,0,1.1,0.1
		c0.3,0.1,0-0.1-0.1-0.2c-0.2-0.3-0.5-0.5-0.7-0.8c-0.2-0.2-0.4-0.4-0.6-0.6c-0.3-0.3-0.5-0.6-0.8-0.9c-0.3-0.3-0.5-0.6-0.8-0.9
		c-0.3-0.4-0.7-0.7-1-1.1c-0.1-0.2-0.3-0.3-0.4-0.4c0.2-0.4,0.5-0.7,0.7-1.1c0.5-0.6,0.9-1.3,1.4-1.9c0.1-0.2,0.3-0.4,0.4-0.6
		c0.1-0.2,0.3-0.4,0.5-0.6c0.2-0.4,0.5-0.7,0.7-1.1c0.2-0.3,0.4-0.6,0.6-0.8C-420.9,627-420.7,626.7-420.5,626.4L-420.5,626.4z"/>
	<path id="path196" class="st2" d="M-530.5,623.5c1.3,0,2.7,0.4,3.8,1.1c0.7,0.4,1.3,0.9,1.8,1.5c0.3,0.4,0.6,0.8,0.8,1.2
		c0.4,0.8,0.7,1.7,0.8,2.6c0.1,1,0,2.1-0.3,3.1c-0.2,0.8-0.6,1.5-1,2.1c-0.6,0.9-1.4,1.7-2.3,2.2c-0.2,0.1-0.4,0.3-0.6,0.4
		c-0.3,0.2-0.8,0.5-1.2,0.2c-0.4-0.4-0.4-0.9-0.4-1.4c0-3.5,0-7,0-10.5c0-0.3,0.1-0.6-0.2-0.8c-0.3-0.2-0.7-0.3-1-0.4
		c-0.3-0.1-0.6,0-0.9,0.1c-0.2,0.1-0.5,0.2-0.7,0.4c-0.3,0.2-0.1,0.6-0.1,1c0,3.6,0,7.1,0,10.7c-0.1,0.4-0.1,0.9-0.5,1.1
		c-0.2,0.1-0.4,0.1-0.5,0c-0.4-0.1-0.8-0.5-1.1-0.7c-0.6-0.4-1.2-0.8-1.6-1.3c-0.4-0.4-0.7-0.9-1-1.4c-0.4-0.8-0.8-1.6-0.9-2.5
		c-0.2-0.8-0.2-1.7,0-2.5c0.2-1.2,0.7-2.4,1.5-3.4c0.8-1,1.8-1.7,3-2.2C-532.3,623.6-531.4,623.4-530.5,623.5L-530.5,623.5z"/>
	<path id="path200" class="st2" d="M-530.4,639.8c0.1,0,0.2,0,0.3,0c0.1,0,0.1,0,0.2,0c0,0,0.1,0.1,0.1,0.1c0,0,0.1,0,0.1,0.1
		c0.1,0,0.1,0,0.1,0.1c0,0,0.1,0.1,0.1,0.1c0.1,0,0.1,0.1,0.2,0.1c0,0,0.1,0.1,0.1,0.1c0,0.1,0.1,0.1,0.1,0.2c0,0,0,0.1,0.1,0.1
		c0,0,0.1,0.1,0.1,0.1c0,0,0,0.1,0,0.1c0,0.1,0,0.1,0.1,0.2c0,0.1,0,0.3,0,0.4c0,0.1,0,0.1,0,0.2c0,0,0,0.1,0,0.1
		c0,0.1-0.1,0.3-0.2,0.4c0,0,0,0.1-0.1,0.1c0,0.1-0.1,0.1-0.1,0.2c-0.1,0-0.1,0.1-0.1,0.1c0,0-0.1,0.1-0.1,0.1c0,0-0.1,0.1-0.1,0.1
		c-0.1,0-0.2,0.1-0.2,0.1c0,0-0.1,0.1-0.1,0c-0.1,0-0.1,0-0.2,0c-0.1,0-0.2,0-0.3,0c-0.1,0-0.1,0-0.2,0c-0.1,0-0.1,0-0.2-0.1
		c0,0-0.1,0-0.1-0.1c-0.1,0-0.1-0.1-0.2-0.1c0,0-0.1-0.1-0.1-0.1c-0.1,0-0.1-0.1-0.1-0.1c0,0-0.1-0.1-0.1-0.1
		c-0.1-0.1-0.1-0.2-0.2-0.3c0-0.1-0.1-0.1-0.1-0.1c0-0.1,0-0.1-0.1-0.1c0-0.1,0-0.1,0-0.2c0-0.1,0-0.3,0-0.4c0-0.1,0-0.1,0-0.2
		c0-0.1,0-0.2,0.1-0.2c0-0.1,0-0.1,0.1-0.1c0,0,0-0.1,0.1-0.1c0-0.1,0.1-0.1,0.2-0.2c0,0,0-0.1,0.1-0.1c0,0,0.1-0.1,0.1-0.1
		c0,0,0.1-0.1,0.1-0.1c0.1-0.1,0.1,0,0.2-0.1c0,0,0.1,0,0.1,0c0,0,0.1,0,0.1-0.1c0.1,0,0.1,0,0.2,0
		C-530.7,639.8-530.5,639.8-530.4,639.8L-530.4,639.8z"/>
	<path id="path204" class="st2" d="M-526.9,642.7c0.2,0.4,0.7,0.7,1.1,0.4c0.8-0.5,1.4-1.3,2.1-2c0.9-0.9,1.7-1.9,2.3-3
		c0.6-1.2,0.9-2.5,1-3.8c0.1-1.3-0.1-2.7-0.5-4c-0.8-2.4-2.5-4.5-4.7-5.7c-3.1-1.7-7.1-1.6-10.1,0.2c-2.9,1.7-4.7,4.9-4.9,8.3
		c-0.1,1.5,0.2,3.1,0.8,4.5c0.6,1.4,1.6,2.6,2.7,3.7c0.6,0.6,1.2,1.3,1.9,1.8c0.3,0.2,0.8,0.2,1-0.2c0.4-0.6,0.6-1.3,0.6-2
		c-0.1-1.2-1.1-1.9-2-2.6c-1-0.8-1.7-1.9-2.2-3c-0.5-1.1-0.8-2.3-0.7-3.5c0-2.6,1.3-5.2,3.4-6.8c1.4-1,3.1-1.5,4.8-1.5
		c2.3,0,4.6,1.2,6,3.1c1.3,1.6,1.9,3.7,1.8,5.8c-0.1,1.3-0.4,2.5-1,3.6c-0.5,1-1.3,1.9-2.2,2.6c-0.6,0.6-1.4,1.2-1.7,2.1
		C-527.5,641.3-527.2,642.1-526.9,642.7L-526.9,642.7z"/>
</g>
</svg>
