<svg id="Layer_1" data-name="Layer 1" xmlns="http://www.w3.org/2000/svg" viewBox="0 0 202 120"><defs><style>.cls-1{fill:#005da9;}.cls-1,.cls-2,.cls-3{fill-rule:evenodd;}.cls-2{fill:#fff;}.cls-3{fill:#f4bb4f;}</style></defs><path class="cls-1" d="M170.4,56.6l.5.9-.2,16q-.6.6-.3.9l4.8-.1c.1-.2-.1-.4-.3-.6l.1-3.1.2-.1,2,3.1-.2.8h6a2.11,2.11,0,0,0-1.1-.9c-.7-1-4.6-7.6-4.6-7.6a11.29,11.29,0,0,1,2.5-4c.8-.3,1-.3,1.1-.6h-3.3l-.2.1s1.1.7.7,1.3a49.27,49.27,0,0,0-2.6,4.3s-.5.2-.4-.6-.2-9.4-.2-9.4-.3-1.6-1.7-1.1a11.58,11.58,0,0,1-2.8.7"/><path class="cls-1" d="M136.5,65.3v7.8c.8.1,3.9-.1,4.4-2.7.8-5-3.8-5.1-4.4-5.1m-.2-8.4.2,7.6a3.14,3.14,0,0,0,3.4-3.4c.2-3.9-2.2-3.9-3.3-4-.9-.3-.3-.2-.3-.2m-4.6-.9v.3a3.78,3.78,0,0,1,.8.9c.2.3.1,16.1.1,16.1s-1.2,1.1-.8,1.1h8.9a5.47,5.47,0,0,0,3.2-2.2c1.2-1.9,1.6-4.8-2-7.3,1.5-1.4,4.9-6.9-3.1-8.9Z"/><path class="cls-1" d="M162,61.8l.3.8c.5-.4.8-.4,1.3-.8a3.69,3.69,0,0,1,1.7-.5,3,3,0,0,1,2,.8c.4.4.4.8.7,1.5a21.17,21.17,0,0,1,.1,3v4.9c0,.5-.2,2.5.5,2.6v.2l-4.9.1V74c.8-.8.5-1.4.5-2.6V65.8a19.65,19.65,0,0,0,0-2.5c-.2-.3-.3-.3-1.1-.3s-.9.6-1,1.1l-.1,7.3a9.27,9.27,0,0,0,.1,2,.64.64,0,0,0,.5.7v.2h-5.2l.1-.3c.9-.1.7-1.4.7-2.6V64.2a5.25,5.25,0,0,0-.2-1.8c-.2-.2-.2-.3.2-.4l2.8-.6c.6-.1,1,0,1,.4"/><path class="cls-1" d="M151.4,67.8v4.5s-1.1,1.1-1.6.3c-1-1.2-.8-6.7,1.6-4.8m-4.9-4.1c1.2-.2,2.7-.7,3.8.1s1,.9,1,1.6-1.3,1.3-2.6,1.7-3.7,1.4-3.4,3.9,2.3,4.2,5.8,2.5c.2-.2.7-.5,1,0s3,1.8,4.6-.3c-.7,0-1.1.1-1.1-1.2s-.1-7.4-.1-7.4.1-2.8-3.4-3.4a8.7,8.7,0,0,0-5.6,2.5"/><path class="cls-1" d="M108.7,67.7l.1,4.4s-.8,1.1-1.4.3c-1.1-1.5-1.1-3.9.4-5,.4-.3.9.3.9.3m-4.7-4c1.1-.2,2.6-.7,3.7.1s1,.9,1,1.6-1.3,1.3-2.5,1.7-3.8,1.4-3.5,3.9,2.3,4.2,5.7,2.5c.3-.2.8-.5,1.1,0s3,1.8,4.6-.3c-.7,0-1.1.1-1.1-1.2s-.1-7.6-.1-7.6.1-2.8-3.4-3.4a7.83,7.83,0,0,0-5.5,2.7"/><path class="cls-1" d="M71.6,73.9v.4H66.2v-.4c.7-.2.7-1,.7-2.8V59c0-1.1-.1-2.8-.9-2.8v-.3h5.8v.2c-.9.5-.9,1.5-.9,2.9V71.1c0,1-.1,2.4.7,2.8"/><path class="cls-1" d="M76.4,61.5a1.39,1.39,0,0,1,.9,0c.2.2-.1.8.4,1,.3.2.8-.4,1.2-.7a5,5,0,0,1,2.1-.5,1.86,1.86,0,0,1,1.6.7c.4.4.8.6.9,1.3v9.5c.1.7.1.8.5,1.2v.3H79.1V74c.7-.1.5-1.8.5-2.3V66.2a18,18,0,0,0,0-2.4,1.63,1.63,0,0,0-.3-.6.4.4,0,0,0-.4-.2c-.7,0-.9-.3-1.3.8l-.1,9.5a.84.84,0,0,0,.4.7v.3h-5v-.4c.4-.2.7-.4.5-1.2l.1-9.3c0-.5,0-.8-.1-.9-.3-.2-.3-.5-.1-.5Z"/><path class="cls-1" d="M95.9,56.7V70.4c0,.9-.1,1.4-.1,1.6.2.6-.1.7.4,1.2l.1.4c-1,.2-1.4.4-2.4.6a3.33,3.33,0,0,1-1,0,1.84,1.84,0,0,0-2.3-.2,3.71,3.71,0,0,1-1.5.4,4,4,0,0,1-3.4-2,7.8,7.8,0,0,1-1-4.1,8.55,8.55,0,0,1,.7-3.4,6,6,0,0,1,1.7-2.3,5.08,5.08,0,0,1,4.6-1V59.7a15.56,15.56,0,0,0-.1-2l-.7-1,3.7-.8c.8,0,1,.5,1.3.8m-4,6.3c-1.1-.9-2.2-.2-2.5,1.3a14.69,14.69,0,0,0-.3,6.6c.4,1.8,1.9,2.6,2.8,1.8Z"/><path class="cls-1" d="M99.9,56.5a2.11,2.11,0,0,1,1.6.6,2.5,2.5,0,0,1,0,3,2.27,2.27,0,0,1-1.6.6,2.2,2.2,0,0,1-1.5-.6,2.5,2.5,0,0,1,0-3,2,2,0,0,1,1.5-.6m2.3,5.7V72.8c0,.6,0,1,.5,1.3v.3H97.5V74c.5-.2.5-1,.5-2.3v-9a.86.86,0,0,1-.3-.6l2.6-.7c1.1-.2,1.7.2,1.9.8"/><path class="cls-1" d="M119.4,61.8l.3.8a7.38,7.38,0,0,0,1.3-.8,3.83,3.83,0,0,1,1.9-.5,2.93,2.93,0,0,1,1.9.8,3,3,0,0,1,.7,1.5,21.17,21.17,0,0,1,.1,3v4.9c0,.5-.2,2.5.5,2.6v.2l-4.9.1V74c.8-.8.5-1.4.5-2.6V65.8a19.65,19.65,0,0,0,0-2.5c-.2-.3-.3-.3-1.1-.3s-.9.6-1,1.1l-.1,7.3a9.27,9.27,0,0,0,.1,2,.64.64,0,0,0,.5.7v.2h-5.2l.1-.3c.9-.1.7-1.4.7-2.6V64.2c0-1,0-1.6-.2-1.8s-.2-.3.3-.4l2.7-.6c.5-.1.9,0,.9.4"/><path class="cls-1" d="M131.7,46.8a26.67,26.67,0,0,1-2.2-3.6.37.37,0,0,0,.1-.3c2.5,0,2.3,2,2.2,3.7,0,.1-.1.1-.1.2m11.5-2.6-.1,3.3c-2,1.6-2.7-.7-2.3-2.6.3-1.1,1.2-2.6,2.4-.7m-14.5.2,2,3.7c-2.6.9-2.4-2.7-2-3.7M88.8,40H81.6c-.1-.1-.1-.2-.2-.2a2.37,2.37,0,0,1,.3-1.9c1.5-1.7,5.8-1.7,7.3.1a1.52,1.52,0,0,1-.2,2m13.4,1.1c0,.7-.1,1.5-.1,2.2v4.6a2.68,2.68,0,0,1-3.1.5l-.5-.5a4.24,4.24,0,0,1-.1-2.5,3.78,3.78,0,0,0,2.7-1.6A3.43,3.43,0,0,0,101,41l1.2.1Zm8.5,7.9c-1.9-.2-2.1-2.5-.2-2.8h1c.1.2.2.2.4.3a1.49,1.49,0,0,1-.4,2.6l-.8-.1Zm28.5-12.2a1.35,1.35,0,0,1,1.4,1.3,1.4,1.4,0,0,1-2.8,0,1.35,1.35,0,0,1,1.4-1.3ZM74,36a1.76,1.76,0,1,1-1.9,1.7A1.87,1.87,0,0,1,74,36m-7.8,6.8a5.2,5.2,0,0,1,5.5-1l-.1-.8H65.4V40H77.5c.8-1.7.7-2.4,2.5-3.3.9-.3,1.9-.5,2.7-.7,3.1-.4,8.7-.4,10.2,2.8A2.36,2.36,0,0,1,93,40h28v1h-1.6v9.2l.8.8h-5.4c-.2,0,.7-.2.7-.5V45.1a2.55,2.55,0,0,0-1.2-.1c-.1.4.2.4.3.5,1,2.6-.1,4.9-3.2,5.3a3.49,3.49,0,0,1-4.3-3.7c.1-2,1.3-3,3.5-3.4a26.67,26.67,0,0,1,4,0c.2-.1.5,0,.8-.1V41.1c-.8,0-9.3-.2-9.3,0l-.1,9c0,.4.5.6.9.8V51l-5.5.1c-.1,0,0-.2,0-.2a1.19,1.19,0,0,0,.5-1.7,10.32,10.32,0,0,1-2.2.4c-4.4.2-5.9-2-5.5-5.7,1-.3,1.7,0,2.4-.8.9-1,.4-1.8-.3-2.1H92.8v1.8c0,.1.1.3,0,.4-.9.3-2.5,0-3.5.1-.2,0-.3,0-.4-.1-.1-.3-.1-.4-.3-.5-1.2-.3-2.5.8-1.5,1.7s3.5.6,5.1,1.4c1.2.6,1.9,1.7,1.2,2.9-1,2.3-4.6,3.1-7,2.5a16.32,16.32,0,0,1-3.5-1.7,21.82,21.82,0,0,1,1.2-2.2c.7,1.2,2.6,4.2,5.2,2.4a1.87,1.87,0,0,0,0-3.1c-1.7-1.7-5.2.3-6.2-2.3s3.6-3.3,5.7-2.4c.3,0-.1-.6,0-.8V41H81.7l-.1,9.2c0,.3.7.6.9.7v.2H79.8c-1.3,0-2.6.1-2.7-.1a1.85,1.85,0,0,0,.7-.8V41H75.6l-.1,2.3-3.8-.1c.1-.9-.9-.9-1.4-.4a1.39,1.39,0,0,0-.2,1.5c1.6,2.2,6.3-1.1,6.9,3.1.4,2.8-3.2,3.4-3.2,3.4a2.48,2.48,0,0,0,2.7,2.4c.2.2-.4.5-.5.6a4.33,4.33,0,0,1-4.6-.2c-1.6-1-2.6-2.9-4.4-3.9a3.58,3.58,0,0,0-1.1-.4c0-.1-.2-.1-.1-.2l1-1a1.76,1.76,0,0,0,1,1.2c1.5,1.2,3.3,1.7,4.8.2a1.76,1.76,0,0,0-.9-3.1c-1.9-.4-3.8.8-5.1-.7a2.07,2.07,0,0,1-.4-2.9m76.7-.2c.1,0,.2.2.3,0l.1-1.4h-7.4c-.1.5,0,.5-.1,1.1a14.08,14.08,0,0,0,0,3.1,37.6,37.6,0,0,0,.1,5c.1.3,1.1.8.8.8H131c-.1,0,0-.2,0-.2a2.05,2.05,0,0,0,.5-2.2,4.47,4.47,0,0,1-3.9.7c-4.2-1.5-3.5-7,1-7.7,1.4-.2,3.2,1,3.3.6.1-.2-.1-.8,0-1.3l-7.2.1V40.1h.3c.8,0,4.8,0,4.9-.1a8.33,8.33,0,0,0-2.8-2.8c-.2-.1-.5-.2-.3-.3,5.6-.6,5.1,2.5,6.6,2.9l.9.3c0-.1.1-.1.1-.2a5.4,5.4,0,0,0-2.5-2.7c-.3-.1-.5,0-.4-.2,1.2-.4,4.3,0,4.8.7s1.1,2.2,2.2,2.2c5,.1,10.5.1,15.5.1v1.2h-6.3l-.1,1.5c1.4-1.1,5.9-1.8,6.6,2.4a3.58,3.58,0,0,1-3.1,4.4,4,4,0,0,1-2.6-.7.31.31,0,0,1-.1-.2c1.9-.7,1.9-3.3.9-4.7-.1-.2-.2-.3-.4-.3-.7-.1-1.2,0-1.2.6l-.1,5.6c0,1.1.4.9.8,1.2a1,1,0,0,0,.1.3,4.05,4.05,0,0,1-1.1,0c-.5,0-4.5.1-4.6,0s-.2,0-.1-.1c1.1-.5.7-.6.8-2.3a4.5,4.5,0,0,1-1.9.8,4.09,4.09,0,0,1-4.8-3.3,3.43,3.43,0,0,1,1.3-3.4c1.4-1.3,2.7-1.5,4.8-.4"/><path class="cls-2" d="M42.2,57.7h0c10.6-15.1,29.1-.8,14,13.2L59,73.6l-1,1-13.1-1-.3-7.1c-2.5,7.8-17.4,11.1-21-4.5l-3.9.8,6.1-10.3.9-1,6.6,4c-8.1-6.2-2-21.5,15.2-15.3L49,38l.9-.8,6.8,11.4-1,1L43,54.3l1.5-4c-5.4-2-7.7,4.1-2.2,7.6h0c-.1,0-.1-.1-.1-.2m-6.8-1,3.7,2.2-1.1,1-3.2-.1c.3,4.8,7.7,4.9,7.4-1.8h0a16.81,16.81,0,0,1-6.8-1.3m6.9,1.2a13.87,13.87,0,0,1,2.3,3.7l.8-.9,2.9,2.8c4.1-3.7-.4-9.3-6-5.6"/><path class="cls-3" d="M41.6,58.9c11,13.9-13.7,24.9-18.6,4.2l-4,.7,6.8-11.3L38,59.9l-4.2.8c1.1,5.3,7.5,4.5,7.8-1.8a.1.1,0,0,0-.1.1c-19.4.4-15.3-25.5,6.3-17.9l1.1-3,6.6,11.4L42.2,55.3l1.6-4c-5.5-2-7.8,4.1-2.4,7.6,9.8-16,29.3-1,14.1,13.1l2.4,2.5-13.6.1.3-12.9,3,3c4.1-3.8-.5-9.5-6-5.8"/><path class="cls-1" d="M21.4,82.7V78.5H19.6V78h4.3v.5H22.1v4.2Zm4.9-.5a2.51,2.51,0,0,1-.7.4,1.7,1.7,0,0,1-.7.1,1.49,1.49,0,0,1-1-.3,1,1,0,0,1-.4-.7c0-.2.1-.3.1-.5s.2-.2.4-.2.3-.1.5-.2a3.54,3.54,0,0,1,.6-.1,9.68,9.68,0,0,0,1.2-.2v-.2a.76.76,0,0,0-.2-.5,1.55,1.55,0,0,0-.8-.2c-.3,0-.5.1-.7.1a.85.85,0,0,0-.3.5l-.7-.1.3-.6a1.54,1.54,0,0,1,.6-.4,2.22,2.22,0,0,1,.9-.1,2,2,0,0,1,.8.1,2.19,2.19,0,0,1,.5.3.52.52,0,0,1,.2.4v2.3a.76.76,0,0,0,.2.4h-.7a.44.44,0,0,1-.1-.3m0-1.3a2.68,2.68,0,0,1-1.1.2,3.54,3.54,0,0,0-.6.1c-.1,0-.2.1-.3.2a.37.37,0,0,0-.1.3.52.52,0,0,0,.2.4.85.85,0,0,0,.6.2c.3,0,.5-.1.7-.1s.4-.2.4-.4.1-.3.1-.6C26.3,81.2,26.3,80.9,26.3,80.9ZM28,82.7V78h.7v2.7l1.6-1.4h.9l-1.5,1.3,1.7,2.2h-.8l-1.3-1.7-.5.4v1.4H28Zm3.8-4.8h.7v.7h-.7Zm0,1.3h.7v3.4h-.7Zm1.7,3.5V79.3h.6v.5a1.49,1.49,0,0,1,1.3-.6c.2,0,.5.1.7.1s.4.2.4.3a.52.52,0,0,1,.2.4v2.7H36V80.6a.75.75,0,0,0-.1-.5c-.1-.1-.1-.2-.3-.3a.75.75,0,0,0-.5-.1,1.45,1.45,0,0,0-.7.2,1.22,1.22,0,0,0-.3.9v1.9Zm4.1.3.7.1a.52.52,0,0,0,.2.4,1.33,1.33,0,0,0,1.4,0,.7.7,0,0,0,.4-.5,5.64,5.64,0,0,0,.1-.7,1.5,1.5,0,0,1-1.1.4,1.9,1.9,0,0,1-1.3-.5,1.59,1.59,0,0,1-.4-1.2,2.92,2.92,0,0,1,.2-.9.9.9,0,0,1,.6-.6,2.39,2.39,0,0,1,.9-.2,1.43,1.43,0,0,1,1.1.5v-.4H41v3a2.68,2.68,0,0,1-.2,1.1,1,1,0,0,1-.6.5h-1a1.8,1.8,0,0,1-1.1-.3.75.75,0,0,1-.5-.7m.6-2.1a1.33,1.33,0,0,0,.3,1,1.22,1.22,0,0,0,1.6,0,1.33,1.33,0,0,0,.3-1,1.69,1.69,0,0,0-.3-1,1.14,1.14,0,0,0-.8-.3,1.33,1.33,0,0,0-.8.3,1.69,1.69,0,0,0-.3,1m6,1.8V78h2.1c.4,0,.7.1,1,.1s.5.2.6.4a1,1,0,0,1,0,1.2.92.92,0,0,1-.6.4,2,2,0,0,1,.8.4.91.91,0,0,1,.3.7,1.42,1.42,0,0,1-.2.6.78.78,0,0,1-.4.4,1.42,1.42,0,0,1-.6.2,2.22,2.22,0,0,1-.9.1H44.2Zm.7-2.8h1.2a1.48,1.48,0,0,0,.7-.1c.2-.1.3-.1.4-.2s.1-.2.1-.4-.1-.3-.1-.4a.52.52,0,0,0-.4-.2,1.72,1.72,0,0,0-.8-.1H44.9v1.4Zm0,2.2h1.9c.2,0,.3-.1.4-.1l.3-.3c.1-.1.1-.2.1-.4s-.1-.3-.2-.5a1.38,1.38,0,0,0-.4-.3,2,2,0,0,0-.8-.1H44.9Zm6.9.1a2.51,2.51,0,0,1-.7.4,1.7,1.7,0,0,1-.7.1,1.49,1.49,0,0,1-1-.3,1,1,0,0,1-.4-.7c0-.2.1-.3.1-.5s.2-.2.4-.3.3-.1.5-.2a3.54,3.54,0,0,1,.6-.1,9.68,9.68,0,0,0,1.2-.2v-.2a.76.76,0,0,0-.2-.5,1.55,1.55,0,0,0-.8-.2c-.3,0-.5.1-.7.1a.55.55,0,0,0-.3.5l-.7-.1.3-.6A1.54,1.54,0,0,1,50,79a2.77,2.77,0,0,1,.9-.1,2,2,0,0,1,.8.1,2.19,2.19,0,0,1,.5.3.52.52,0,0,1,.2.4V81a2.24,2.24,0,0,0,.1,1,.76.76,0,0,0,.2.4H52c-.1.1-.2,0-.2-.2m0-1.3a2.68,2.68,0,0,1-1.1.2,3.54,3.54,0,0,0-.6.1c-.1,0-.2.1-.3.2a.37.37,0,0,0-.1.3.52.52,0,0,0,.2.4.85.85,0,0,0,.6.2c.3,0,.5-.1.7-.1s.4-.2.4-.4.1-.3.1-.6C51.8,81.2,51.8,80.9,51.8,80.9Zm1.7,1.8V79.3h.6v.5a1.49,1.49,0,0,1,1.3-.6c.2,0,.5.1.7.1s.4.2.4.3a.52.52,0,0,1,.2.4v2.7H56V80.6a.75.75,0,0,0-.1-.5c-.1-.1-.1-.2-.3-.3a.75.75,0,0,0-.5-.1,1.45,1.45,0,0,0-.7.2,1.22,1.22,0,0,0-.3.9v1.9Zm4.2,0V78h.7v2.7L60,79.3h.9l-1.5,1.3,1.7,2.2h-.8L59,81.1l-.5.4v1.4h-.8Zm3.8-4.8h.7v.7h-.7Zm0,1.3h.7v3.4h-.7Zm1.7,3.5V79.3h.6v.5a1.49,1.49,0,0,1,1.3-.6c.2,0,.5.1.7.1s.4.2.4.3a.52.52,0,0,1,.2.4v2.7h-.7V80.6a.75.75,0,0,0-.1-.5c-.1-.1-.1-.2-.3-.3a.75.75,0,0,0-.5-.1,1.45,1.45,0,0,0-.7.2,1.22,1.22,0,0,0-.3.9v1.9Zm4.2.3H68a.52.52,0,0,0,.2.4,1.33,1.33,0,0,0,1.4,0,.46.46,0,0,0,.3-.5,5.64,5.64,0,0,0,.1-.7,1.5,1.5,0,0,1-1.1.4,1.9,1.9,0,0,1-1.3-.5,1.66,1.66,0,0,1-.5-1.2,2.92,2.92,0,0,1,.2-.9.9.9,0,0,1,.6-.6,2.39,2.39,0,0,1,.9-.2,1.43,1.43,0,0,1,1.1.5v-.4h.6v3a2.68,2.68,0,0,1-.2,1.1,1,1,0,0,1-.6.5,3,3,0,0,1-1,.2,1.8,1.8,0,0,1-1.1-.3,1.88,1.88,0,0,1-.2-.8m.5-2.1a1.33,1.33,0,0,0,.3,1,1.22,1.22,0,0,0,1.6,0,1.33,1.33,0,0,0,.3-1,1.69,1.69,0,0,0-.3-1,1.14,1.14,0,0,0-.8-.3,1.33,1.33,0,0,0-.8.3,2.93,2.93,0,0,0-.3,1m7.3,1.8V78.5H73.4V78h4.3v.5H76v4.2Zm5.1-1.1.7.1a1.24,1.24,0,0,1-.6.8,2,2,0,0,1-1.1.3,2.17,2.17,0,0,1-1.4-.5,1.94,1.94,0,0,1,0-2.6,1.94,1.94,0,0,1,2.6,0A1.73,1.73,0,0,1,81,81v.2H78a1,1,0,0,0,.4.9,1.14,1.14,0,0,0,.8.3,1.07,1.07,0,0,0,.6-.2,2.65,2.65,0,0,0,.5-.6m-2.2-1h2.2a1.45,1.45,0,0,0-.2-.7,1.22,1.22,0,0,0-1.6,0,.75.75,0,0,0-.4.7m6.3.8.7.1a1.35,1.35,0,0,1-.5.9,2,2,0,0,1-1.1.3,1.54,1.54,0,0,1-1.3-.5,1.73,1.73,0,0,1-.5-1.3,3,3,0,0,1,.2-1,1.06,1.06,0,0,1,.7-.6,3,3,0,0,1,1-.2,2,2,0,0,1,1.1.3,1,1,0,0,1,.5.8l-.7.1a2.19,2.19,0,0,0-.3-.5,1.42,1.42,0,0,0-.6-.2,1,1,0,0,0-.8.3,1.82,1.82,0,0,0,0,2,1.14,1.14,0,0,0,.8.3,1.45,1.45,0,0,0,.7-.2c-.1-.1.1-.3.1-.6m1.2,1.3V78h.7v1.7a1.66,1.66,0,0,1,1.2-.5,2.35,2.35,0,0,1,.8.2,1,1,0,0,1,.5.4,1.72,1.72,0,0,1,.1.8v2.2h-.6V80.6a.85.85,0,0,0-.2-.6,1.07,1.07,0,0,0-.6-.2,4.33,4.33,0,0,0-.5.1.78.78,0,0,0-.4.4,1.27,1.27,0,0,0-.1.6v1.9l-.9-.1Zm4.3,0V79.3h.6v.5a1.49,1.49,0,0,1,1.3-.6c.2,0,.5.1.7.1a2.19,2.19,0,0,1,.5.3.52.52,0,0,1,.2.4v2.7h-.7V80.6a.75.75,0,0,0-.1-.5c-.1-.1-.1-.2-.3-.3a.75.75,0,0,0-.5-.1,1.45,1.45,0,0,0-.7.2,1.22,1.22,0,0,0-.3.9v1.9Zm4-1.8a1.68,1.68,0,0,1,.6-1.4,2.45,2.45,0,0,1,1.2-.4,1.9,1.9,0,0,1,1.3.5,1.43,1.43,0,0,1,.5,1.3,2.51,2.51,0,0,1-.2,1,4.35,4.35,0,0,1-.7.6,3,3,0,0,1-1,.2,1.54,1.54,0,0,1-1.3-.5,2,2,0,0,1-.4-1.3m.7,0a1.49,1.49,0,0,0,.3,1,1.22,1.22,0,0,0,1.6,0,1.33,1.33,0,0,0,.3-1,1.69,1.69,0,0,0-.3-1,1.22,1.22,0,0,0-1.6,0,1.69,1.69,0,0,0-.3,1m3.8-3H99v4.7h-.7V77.9Zm1.5,3a1.68,1.68,0,0,1,.6-1.4,2.84,2.84,0,0,1,1.3-.4,1.9,1.9,0,0,1,1.3.5,1.43,1.43,0,0,1,.5,1.3,2.51,2.51,0,0,1-.2,1,4.35,4.35,0,0,1-.7.6,3,3,0,0,1-1,.2,1.54,1.54,0,0,1-1.3-.5c-.4-.2-.5-.7-.5-1.3m.6,0a1.49,1.49,0,0,0,.3,1,1.22,1.22,0,0,0,1.6,0,1.33,1.33,0,0,0,.3-1,1.69,1.69,0,0,0-.3-1,1.22,1.22,0,0,0-1.6,0,1.69,1.69,0,0,0-.3,1m3.7,2.1.7.1a.52.52,0,0,0,.2.4,1.33,1.33,0,0,0,1.4,0,.46.46,0,0,0,.3-.5,5.64,5.64,0,0,0,.1-.7,1.5,1.5,0,0,1-1.1.4,1.9,1.9,0,0,1-1.3-.5,1.59,1.59,0,0,1-.4-1.2,2.92,2.92,0,0,1,.2-.9.9.9,0,0,1,.6-.6,2.39,2.39,0,0,1,.9-.2,1.43,1.43,0,0,1,1.1.5v-.4h.6v3a2.68,2.68,0,0,1-.2,1.1,1,1,0,0,1-.6.5,3,3,0,0,1-1,.2,1.24,1.24,0,0,1-1.5-1.2m.6-2.1a1.33,1.33,0,0,0,.3,1,1.22,1.22,0,0,0,1.6,0,1.33,1.33,0,0,0,.3-1,1.69,1.69,0,0,0-.3-1,1.14,1.14,0,0,0-.8-.3,1.33,1.33,0,0,0-.8.3,1.69,1.69,0,0,0-.3,1m3.8,3.1-.1-.5c.2,0,.3.1.4.1s.3,0,.4-.1a.22.22,0,0,0,.2-.2c.1-.1.1-.2.2-.4a.1.1,0,0,1,.1-.1l-1.5-3.4h.7l.8,2a6.89,6.89,0,0,1,.3.8c.1-.3.2-.5.3-.8l.8-2h.7l-1.5,3.5-.4.8a.78.78,0,0,1-.4.4.9.9,0,0,1-.5.1.65.65,0,0,0-.5-.2m7.4-1.9.1.5a4.33,4.33,0,0,0-.5.1,1.27,1.27,0,0,1-.6-.1c-.1-.1-.2-.2-.3-.2s-.1-.3-.1-.7v-2h-.5v-.4h.5v-.8l.7-.4v1.2h.7v.4h-.7V82a.1.1,0,0,0,.1.1h.2c.2.1.3.1.4,0m.4-1.2a1.68,1.68,0,0,1,.6-1.4,2.23,2.23,0,0,1,1.3-.4,1.9,1.9,0,0,1,1.3.5,1.43,1.43,0,0,1,.5,1.3,2.51,2.51,0,0,1-.2,1,2.17,2.17,0,0,1-.7.6,3,3,0,0,1-1,.2,1.54,1.54,0,0,1-1.3-.5,1.58,1.58,0,0,1-.5-1.3m.7,0a1.49,1.49,0,0,0,.3,1,1.22,1.22,0,0,0,1.6,0,1.33,1.33,0,0,0,.3-1,1.69,1.69,0,0,0-.3-1,1.22,1.22,0,0,0-1.6,0,1.69,1.69,0,0,0-.3,1m7.4,1.2.1.5a4.33,4.33,0,0,0-.5.1,1.27,1.27,0,0,1-.6-.1c-.1-.1-.2-.2-.3-.2s-.1-.3-.1-.7v-2h-.5v-.4h.5v-.8l.7-.4v1.2h.7v.4h-.7V82a.1.1,0,0,0,.1.1h.2c.1,0,.3.1.4,0m.7.6V78h.7v1.7a1.66,1.66,0,0,1,1.2-.5,2.35,2.35,0,0,1,.8.2,1,1,0,0,1,.5.4,1.72,1.72,0,0,1,.1.8v2.2h-.7V80.6a.85.85,0,0,0-.2-.6,1.07,1.07,0,0,0-.6-.2c-.2,0-.4.1-.6.1a.78.78,0,0,0-.4.4,1.27,1.27,0,0,0-.1.6v1.9l-.7-.1Zm6.9-1.1.7.1a1.24,1.24,0,0,1-.6.8,2,2,0,0,1-1.1.3,2.17,2.17,0,0,1-1.4-.5,1.94,1.94,0,0,1,0-2.6,2.11,2.11,0,0,1,1.3-.5,1.9,1.9,0,0,1,1.3.5,1.43,1.43,0,0,1,.5,1.3v.2h-3a1,1,0,0,0,.4.9,1.14,1.14,0,0,0,.8.3,1.07,1.07,0,0,0,.6-.2,1.33,1.33,0,0,0,.5-.6m-2.2-1h2.2a1.45,1.45,0,0,0-.2-.7,1.22,1.22,0,0,0-1.6,0,1.61,1.61,0,0,0-.4.7m9.9.4.7.2a2,2,0,0,1-.8,1.2,2.3,2.3,0,0,1-1.4.4,2.65,2.65,0,0,1-1.4-.3,1.42,1.42,0,0,1-.8-.9,3,3,0,0,1,0-2.6,1.42,1.42,0,0,1,.9-.8,2.77,2.77,0,0,1,1.3-.3,2.3,2.3,0,0,1,1.4.4,2,2,0,0,1,.8,1l-.7.1a1,1,0,0,0-.5-.7c-.2-.2-.5-.2-.9-.2a2,2,0,0,0-1.1.3,1.34,1.34,0,0,0-.6.7,2.92,2.92,0,0,0-.2.9,3.59,3.59,0,0,0,.2,1.1c.1.3.4.5.6.7a2.92,2.92,0,0,0,.9.2,1.69,1.69,0,0,0,1-.3,3,3,0,0,0,.6-1.1m1.3-.1a1.68,1.68,0,0,1,.6-1.4,2.5,2.5,0,0,1,1.3-.4,1.9,1.9,0,0,1,1.3.5,1.43,1.43,0,0,1,.5,1.3,2.51,2.51,0,0,1-.2,1,4.35,4.35,0,0,1-.7.6,3,3,0,0,1-1,.2,1.54,1.54,0,0,1-1.3-.5c-.4-.2-.5-.7-.5-1.3m.7,0a1.49,1.49,0,0,0,.3,1,1.22,1.22,0,0,0,1.6,0,1.33,1.33,0,0,0,.3-1,1.69,1.69,0,0,0-.3-1,1.22,1.22,0,0,0-1.6,0,1.69,1.69,0,0,0-.3,1m3.8,1.8V79.3h.6v.5a1,1,0,0,1,.5-.4,1.33,1.33,0,0,1,1.4,0,.78.78,0,0,1,.4.4,1.43,1.43,0,0,1,1.2-.6,1.06,1.06,0,0,1,1.2,1.2v2.4h-.7V80.6a.75.75,0,0,0-.1-.5c-.1-.1-.1-.2-.2-.2s-.2-.1-.4-.1a1.45,1.45,0,0,0-.7.2,1,1,0,0,0-.3.8v2h-.7V80.6a1.07,1.07,0,0,0-.2-.6.76.76,0,0,0-.5-.2,4.33,4.33,0,0,0-.5.1.78.78,0,0,0-.4.4,1.48,1.48,0,0,0-.1.7v1.8l-.5-.1Zm6.3,0V79.3h.6v.5a1,1,0,0,1,.5-.4,1.33,1.33,0,0,1,1.4,0,.78.78,0,0,1,.4.4,1.43,1.43,0,0,1,1.2-.6,1.06,1.06,0,0,1,1.2,1.2v2.4h-.7V80.6a.75.75,0,0,0-.1-.5c-.1-.1-.1-.2-.2-.2s-.2-.1-.4-.1a1.45,1.45,0,0,0-.7.2,1,1,0,0,0-.3.8v2h-.7V80.6a1.07,1.07,0,0,0-.2-.6.76.76,0,0,0-.5-.2,4.33,4.33,0,0,0-.5.1.78.78,0,0,0-.4.4,1.48,1.48,0,0,0-.1.7v1.8l-.5-.1Zm6.2-1.8a1.68,1.68,0,0,1,.6-1.4,2.84,2.84,0,0,1,1.3-.4,1.9,1.9,0,0,1,1.3.5,1.43,1.43,0,0,1,.5,1.3,2.51,2.51,0,0,1-.2,1,4.35,4.35,0,0,1-.7.6,3,3,0,0,1-1,.2,1.54,1.54,0,0,1-1.3-.5c-.4-.2-.5-.7-.5-1.3m.6,0a1.49,1.49,0,0,0,.3,1,1.22,1.22,0,0,0,1.6,0,1.33,1.33,0,0,0,.3-1,1.69,1.69,0,0,0-.3-1,1.22,1.22,0,0,0-1.6,0,2.93,2.93,0,0,0-.3,1m3.9,1.8V79.3h.6v.5a1.49,1.49,0,0,1,1.3-.6c.2,0,.5.1.7.1s.4.2.4.3a.52.52,0,0,1,.2.4v2.7h-.7V80.6a.75.75,0,0,0-.1-.5c-.1-.1-.1-.2-.3-.3a.75.75,0,0,0-.5-.1,1.45,1.45,0,0,0-.7.2,1.22,1.22,0,0,0-.3.9v1.9Zm6.4,0V78h1.1l1.3,3.4a4.88,4.88,0,0,0,.3.7,3.39,3.39,0,0,0,.3-.8l1.3-3.3h1v4.7h-.7v-4l-1.6,4h-.7l-1.6-4v4Zm8.9-.5a2.51,2.51,0,0,1-.7.4,1.7,1.7,0,0,1-.7.1,1.49,1.49,0,0,1-1-.3,1,1,0,0,1-.4-.7c0-.2.1-.3.1-.5a1.38,1.38,0,0,1,.4-.3c.1-.1.3-.1.5-.2a3.54,3.54,0,0,1,.6-.1c.5-.1.9-.1,1.2-.2v-.2a.76.76,0,0,0-.2-.5,1.55,1.55,0,0,0-.8-.2c-.3,0-.5.1-.7.1a.85.85,0,0,0-.3.5l-.7-.1.3-.6a1.54,1.54,0,0,1,.6-.4,2.48,2.48,0,0,1,.9-.1,2,2,0,0,1,.8.1,2.19,2.19,0,0,1,.5.3.52.52,0,0,1,.2.4V81a2.24,2.24,0,0,0,.1,1c.1.1.1.3.2.4h-.7c-.1.1-.2,0-.2-.2m-.1-1.3a2.68,2.68,0,0,1-1.1.2,3.54,3.54,0,0,0-.6.1c-.1,0-.2.1-.3.2a.37.37,0,0,0-.1.3.52.52,0,0,0,.2.4.85.85,0,0,0,.6.2c.3,0,.5-.1.7-.1s.4-.2.4-.4.1-.3.1-.6l.1-.3Z"/><path class="cls-1" d="M179.6,82.7V79.3h.6v.5a1.49,1.49,0,0,1,1.3-.6,1.7,1.7,0,0,1,.7.1,2.19,2.19,0,0,1,.5.3.76.76,0,0,1,.2.4v2.7h-.7V80.6a.75.75,0,0,0-.1-.5c-.1-.1-.1-.2-.3-.3a.75.75,0,0,0-.5-.1,1.45,1.45,0,0,0-.7.2,1.22,1.22,0,0,0-.3.9v1.9Z"/></svg>