<?xml version="1.0" encoding="utf-8"?>
<!-- Generator: Adobe Illustrator 26.0.1, SVG Export Plug-In . SVG Version: 6.00 Build 0)  -->
<svg version="1.1" id="Layer_1" xmlns="http://www.w3.org/2000/svg" xmlns:xlink="http://www.w3.org/1999/xlink" x="0px" y="0px"
	 viewBox="0 0 202 120" style="enable-background:new 0 0 202 120;" xml:space="preserve">
<style type="text/css">
	.st0{fill-rule:evenodd;clip-rule:evenodd;fill:#A20E37;}
	.st1{fill:#FFFFFF;}
	.st2{fill-rule:evenodd;clip-rule:evenodd;fill:#FBBC09;}
	.st3{fill-rule:evenodd;clip-rule:evenodd;fill:#FFFFFF;}
</style>
<path id="path2898" class="st0" d="M0,0h202v120H0V0z"/>
<g id="layer1" transform="translate(-520.75575,-88.936485)">
	<path id="path2900" class="st1" d="M607.6,158.6h0.9l-0.2,1h-0.9L607.6,158.6L607.6,158.6z"/>
	<path id="path2902" class="st1" d="M609.3,158.6h0.9l-0.2,1h-0.9L609.3,158.6z"/>
	<path id="path2904" class="st1" d="M611,158.6h0.9l-0.2,1h-0.9L611,158.6L611,158.6z"/>
	<path id="path2906" class="st1" d="M614.1,159.7c-0.1,0-0.3,0-0.5,0c-0.3,0-0.5-0.1-0.6-0.2c-0.1-0.1-0.1-0.3-0.1-0.6l0.4-2.3h-0.5
		l0.1-0.7h0.5l0.2-1h0.9l-0.2,1h0.5l-0.1,0.7h-0.5l-0.4,2.1c0,0.1,0,0.1,0,0.2c0,0,0.1,0.1,0.2,0.1l0.2,0L614.1,159.7L614.1,159.7z"
		/>
	<path id="path2908" class="st1" d="M614.6,159.6l0.9-5h0.4h0.4l-0.3,1.8l0.1-0.1c0.3-0.3,0.6-0.5,1-0.5c0.4,0,0.6,0.1,0.8,0.3
		c0.2,0.2,0.2,0.5,0.1,0.9l-0.5,2.5h-0.4h-0.4l0.4-2.3c0-0.2,0-0.4,0-0.5c-0.1-0.1-0.2-0.2-0.4-0.2c-0.2,0-0.4,0.1-0.6,0.2
		c-0.2,0.2-0.3,0.4-0.3,0.6l-0.4,2.1h-0.4L614.6,159.6L614.6,159.6z"/>
	<path id="path2910" class="st1" d="M619.8,159.7c-0.4,0-0.8-0.1-1-0.3c-0.2-0.2-0.3-0.6-0.3-1c0-0.1,0-0.2,0-0.3c0-0.1,0-0.2,0-0.3
		c0.1-0.6,0.3-1.1,0.7-1.4c0.3-0.3,0.8-0.5,1.2-0.5c0.4,0,0.7,0.1,0.9,0.3c0.2,0.2,0.3,0.6,0.3,1c0,0.1,0,0.2,0,0.3
		c0,0.1,0,0.3-0.1,0.4l0,0.1h-2.3l0,0c0,0.1,0,0.1,0,0.2c0,0.2,0.1,0.4,0.2,0.5c0.1,0.1,0.3,0.2,0.5,0.2c0.1,0,0.3,0,0.4-0.1
		c0.1-0.1,0.2-0.2,0.3-0.3h0.9c-0.2,0.4-0.4,0.6-0.7,0.9C620.5,159.6,620.1,159.7,619.8,159.7 M620.8,157.4L620.8,157.4l0-0.1
		c0-0.2,0-0.4-0.1-0.5c-0.1-0.1-0.2-0.2-0.4-0.2c-0.2,0-0.4,0.1-0.6,0.3c-0.1,0.1-0.2,0.3-0.2,0.5H620.8L620.8,157.4z"/>
	<path id="path2912" class="st1" d="M623.6,159.6l0.7-3.7h0.4h0.4l-0.1,0.5l0.1-0.2c0.3-0.3,0.6-0.5,1-0.5c0.4,0,0.6,0.1,0.8,0.3
		c0.2,0.2,0.2,0.5,0.1,0.9l-0.5,2.5h-0.4h-0.4l0.4-2.3c0-0.2,0-0.4,0-0.5c-0.1-0.1-0.2-0.2-0.4-0.2c-0.2,0-0.4,0.1-0.6,0.2
		c-0.2,0.2-0.3,0.4-0.3,0.6l-0.4,2.1H624L623.6,159.6L623.6,159.6z"/>
	<path id="path2914" class="st1" d="M628.2,159.7c-0.3,0-0.5-0.1-0.6-0.2c-0.2-0.1-0.2-0.3-0.2-0.6c0,0,0-0.1,0-0.1
		c0-0.1,0-0.1,0-0.2c0.1-0.3,0.2-0.6,0.4-0.8c0.2-0.2,0.5-0.3,0.8-0.4l0.7-0.1c0.1,0,0.1,0,0.2-0.1c0.1,0,0.1-0.1,0.2-0.1
		c0-0.1,0.1-0.1,0.1-0.2c0-0.1,0-0.2-0.1-0.2c-0.1-0.1-0.2-0.1-0.4-0.1c-0.1,0-0.3,0-0.4,0.1c-0.1,0.1-0.2,0.2-0.2,0.4h-0.8
		c0.1-0.4,0.3-0.7,0.6-1c0.3-0.2,0.7-0.3,1.1-0.3c0.4,0,0.7,0.1,0.9,0.3c0.1,0.1,0.2,0.3,0.2,0.6c0,0.1,0,0.2,0,0.3l-0.4,2
		c0,0.2,0,0.3,0,0.4c0,0.1,0,0.1,0.1,0.2v0l0,0.1h-0.5h-0.5l0,0c0-0.1,0-0.3,0-0.4C629,159.6,628.6,159.7,628.2,159.7 M629.5,158.3
		l0.1-0.4c-0.1,0.1-0.2,0.1-0.3,0.1l-0.3,0.1c-0.2,0.1-0.4,0.1-0.5,0.2c-0.1,0.1-0.2,0.2-0.2,0.3c0,0,0,0,0,0c0,0,0,0,0,0.1
		c0,0,0,0,0,0.1c0,0.1,0,0.2,0.1,0.2c0.1,0.1,0.1,0.1,0.3,0.1c0.3,0,0.5-0.1,0.7-0.4c0,0,0.1-0.1,0.1-0.2
		C629.4,158.4,629.4,158.4,629.5,158.3"/>
	<path id="path2916" class="st1" d="M630.8,159.6l0.7-3.7h0.4h0.4l-0.1,0.5l0.1-0.2c0.3-0.3,0.6-0.4,0.9-0.4c0.3,0,0.6,0.1,0.7,0.3
		c0.1,0.1,0.1,0.2,0.1,0.3l0.1-0.2c0.2-0.3,0.5-0.4,0.9-0.4c0.4,0,0.6,0.1,0.8,0.3c0.1,0.2,0.2,0.3,0.2,0.6c0,0.1,0,0.2,0,0.4
		l-0.5,2.5h-0.4h-0.4l0.4-2.4c0-0.2,0-0.3,0-0.4c-0.1-0.1-0.2-0.1-0.3-0.1c-0.2,0-0.4,0.1-0.5,0.2c-0.1,0.1-0.2,0.3-0.3,0.6
		l-0.4,2.2h-0.4h-0.4l0.4-2.4c0-0.2,0-0.4,0-0.5c-0.1-0.1-0.2-0.2-0.3-0.2c-0.2,0-0.4,0.1-0.5,0.2c-0.1,0.1-0.2,0.3-0.3,0.6
		l-0.4,2.2h-0.4H630.8L630.8,159.6z"/>
	<path id="path2918" class="st1" d="M637.7,159.7c-0.4,0-0.8-0.1-1-0.3c-0.2-0.2-0.3-0.6-0.3-1c0-0.1,0-0.2,0-0.3c0-0.1,0-0.2,0-0.3
		c0.1-0.6,0.3-1.1,0.7-1.4c0.3-0.3,0.8-0.5,1.2-0.5c0.4,0,0.7,0.1,0.9,0.3c0.2,0.2,0.3,0.6,0.3,1c0,0.1,0,0.2,0,0.3
		c0,0.1,0,0.3-0.1,0.4l0,0.1h-2.3l0,0c0,0.1,0,0.1,0,0.2c0,0.2,0.1,0.4,0.2,0.5c0.1,0.1,0.3,0.2,0.5,0.2c0.1,0,0.3,0,0.4-0.1
		c0.1-0.1,0.2-0.2,0.3-0.3h0.9c-0.2,0.4-0.4,0.6-0.7,0.9C638.4,159.6,638.1,159.7,637.7,159.7 M638.8,157.4L638.8,157.4l0-0.1
		c0-0.2,0-0.4-0.1-0.5c-0.1-0.1-0.2-0.2-0.4-0.2c-0.2,0-0.4,0.1-0.6,0.3c-0.1,0.1-0.2,0.3-0.2,0.5H638.8L638.8,157.4z"/>
	<path id="path2920" class="st1" d="M645.2,155.9l-1.8,3.7c-0.3,0.7-0.6,1.1-0.8,1.3c-0.2,0.2-0.5,0.3-0.8,0.3c-0.2,0-0.3,0-0.4,0
		l0.1-0.8c0,0,0.1,0,0.2,0c0.2,0,0.4-0.1,0.5-0.2c0.1-0.1,0.1-0.2,0.2-0.4l-0.5-3.9h0.5h0.5l0.2,2.8l1.2-2.8h0.5L645.2,155.9
		L645.2,155.9z"/>
	<path id="path2922" class="st1" d="M646.5,159.7c-0.4,0-0.8-0.1-1-0.4c-0.2-0.3-0.4-0.6-0.4-1c0-0.1,0-0.2,0-0.3c0-0.1,0-0.2,0-0.3
		c0.1-0.6,0.4-1.1,0.7-1.4c0.4-0.4,0.8-0.5,1.3-0.5c0.4,0,0.8,0.1,1,0.4c0.2,0.3,0.4,0.6,0.4,1c0,0.1,0,0.2,0,0.3c0,0.1,0,0.2,0,0.3
		c-0.1,0.6-0.3,1.1-0.7,1.4C647.4,159.6,647,159.7,646.5,159.7 M646.6,158.9c0.3,0,0.5-0.1,0.6-0.3c0.2-0.2,0.3-0.5,0.4-0.9
		c0-0.1,0-0.1,0-0.2c0-0.1,0-0.1,0-0.2c0-0.2-0.1-0.4-0.2-0.5c-0.1-0.1-0.3-0.2-0.5-0.2c-0.3,0-0.5,0.1-0.6,0.3
		c-0.2,0.2-0.3,0.5-0.4,0.9c0,0.1,0,0.1,0,0.2c0,0.1,0,0.1,0,0.2c0,0.2,0.1,0.4,0.2,0.5C646.3,158.9,646.4,158.9,646.6,158.9"/>
	<path id="path2924" class="st1" d="M650.3,155.9l-0.4,2.3c0,0.2,0,0.4,0,0.5c0.1,0.1,0.2,0.2,0.4,0.2c0.2,0,0.4-0.1,0.6-0.2
		c0.2-0.2,0.3-0.4,0.3-0.6l0.4-2.1h0.4h0.4l-0.7,3.7h-0.4h-0.4l0.1-0.5c0,0.1-0.1,0.1-0.1,0.2c-0.3,0.3-0.6,0.5-1,0.5
		c-0.4,0-0.6-0.1-0.8-0.4c-0.1-0.2-0.2-0.4-0.2-0.6c0-0.1,0-0.3,0-0.4l0.4-2.4h0.4L650.3,155.9L650.3,155.9z"/>
	<path id="path2926" class="st1" d="M657.4,158.3L657.4,158.3c-0.1,0.4-0.4,0.8-0.7,1.1c-0.3,0.3-0.7,0.4-1.1,0.4
		c-0.4,0-0.7-0.1-0.9-0.3c-0.2-0.2-0.3-0.5-0.3-1c0-0.1,0-0.2,0-0.3c0-0.1,0-0.2,0-0.3c0.1-0.6,0.3-1.1,0.7-1.4
		c0.3-0.3,0.8-0.5,1.3-0.5c0.4,0,0.7,0.1,1,0.4c0.2,0.2,0.3,0.5,0.3,0.8l0,0.2h-0.9c0-0.2,0-0.4-0.1-0.5c-0.1-0.1-0.2-0.1-0.3-0.1
		c-0.2,0-0.4,0.1-0.6,0.3c-0.1,0.2-0.3,0.5-0.3,0.9c0,0.1,0,0.1,0,0.2c0,0.1,0,0.1,0,0.2c0,0.2,0,0.4,0.1,0.5
		c0.1,0.1,0.2,0.2,0.3,0.2c0.2,0,0.3-0.1,0.5-0.2s0.2-0.3,0.3-0.5L657.4,158.3L657.4,158.3z"/>
	<path id="path2928" class="st1" d="M658.5,159.7c-0.3,0-0.5-0.1-0.6-0.2c-0.2-0.1-0.2-0.3-0.2-0.6c0,0,0-0.1,0-0.1
		c0-0.1,0-0.1,0-0.2c0.1-0.3,0.2-0.6,0.4-0.8c0.2-0.2,0.5-0.3,0.8-0.4l0.7-0.1c0.1,0,0.1,0,0.2-0.1c0.1,0,0.1-0.1,0.2-0.1
		c0-0.1,0.1-0.1,0.1-0.2c0-0.1,0-0.2-0.1-0.2c-0.1-0.1-0.2-0.1-0.4-0.1c-0.1,0-0.3,0-0.4,0.1c-0.1,0.1-0.2,0.2-0.2,0.4h-0.8
		c0.1-0.4,0.3-0.7,0.6-1c0.3-0.2,0.7-0.3,1.1-0.3c0.4,0,0.7,0.1,0.9,0.3c0.1,0.1,0.2,0.3,0.2,0.6c0,0.1,0,0.2,0,0.3l-0.4,2
		c0,0.2,0,0.3,0,0.4c0,0.1,0,0.1,0.1,0.2v0l0,0.1h-0.5h-0.5l0,0c0-0.1,0-0.3,0-0.4C659.3,159.6,658.9,159.7,658.5,159.7
		 M659.8,158.3l0.1-0.4c-0.1,0.1-0.2,0.1-0.3,0.1l-0.4,0.1c-0.2,0.1-0.4,0.1-0.5,0.2c-0.1,0.1-0.2,0.2-0.2,0.3c0,0,0,0,0,0
		c0,0,0,0,0,0.1c0,0,0,0,0,0.1c0,0.1,0,0.2,0.1,0.2c0.1,0.1,0.1,0.1,0.3,0.1c0.3,0,0.5-0.1,0.7-0.4c0,0,0.1-0.1,0.1-0.2
		C659.8,158.4,659.8,158.4,659.8,158.3"/>
	<path id="path2930" class="st1" d="M661.2,159.6l0.7-3.7h0.4h0.4l-0.1,0.5l0.1-0.2c0.3-0.3,0.6-0.5,1-0.5c0.4,0,0.6,0.1,0.8,0.3
		c0.2,0.2,0.2,0.5,0.1,0.9l-0.5,2.5h-0.4h-0.4l0.4-2.3c0-0.2,0-0.4,0-0.5c-0.1-0.1-0.2-0.2-0.4-0.2c-0.2,0-0.4,0.1-0.6,0.2
		c-0.2,0.2-0.3,0.4-0.3,0.6l-0.4,2.1h-0.4L661.2,159.6L661.2,159.6z"/>
	<path id="path2932" class="st1" d="M666.8,159.6l0.9-5h0.5h1.7c0.4,0,0.7,0.1,0.8,0.3c0.2,0.2,0.3,0.4,0.3,0.7c0,0.1,0,0.1,0,0.2
		c0,0.1,0,0.1,0,0.2c-0.1,0.3-0.2,0.6-0.6,0.8c0,0-0.1,0.1-0.2,0.1c0.1,0,0.1,0.1,0.2,0.1c0.2,0.2,0.3,0.4,0.3,0.8
		c0,0.1,0,0.1,0,0.2c0,0.1,0,0.1,0,0.2c-0.1,0.5-0.3,0.8-0.6,1.1c-0.3,0.3-0.8,0.4-1.3,0.4h-1.6L666.8,159.6L666.8,159.6z
		 M668.5,155.5l-0.2,1.1h1.1c0.2,0,0.4,0,0.5-0.1c0.1-0.1,0.2-0.2,0.2-0.4c0,0,0-0.1,0-0.1c0,0,0-0.1,0-0.1c0-0.1,0-0.2-0.1-0.3
		c-0.1-0.1-0.2-0.1-0.4-0.1L668.5,155.5L668.5,155.5z M668.1,157.4l-0.2,1.3h1.1c0.3,0,0.5-0.1,0.6-0.2c0.1-0.1,0.2-0.3,0.3-0.5
		c0,0,0-0.1,0-0.1c0,0,0-0.1,0-0.1c0-0.2,0-0.3-0.1-0.4c-0.1-0.1-0.2-0.1-0.4-0.1H668.1L668.1,157.4z"/>
	<path id="path2934" class="st1" d="M670.9,159.6l2.5-5h0.5h0.5l0.6,5h-0.5h-0.5l-0.1-1h-1.7l-0.5,1h-0.5H670.9L670.9,159.6z
		 M673.8,155.7l-1,2h1.2L673.8,155.7L673.8,155.7L673.8,155.7z"/>
	<path id="path2936" class="st1" d="M676.6,159.6L676.6,159.6h-0.4h-0.4l0.9-5h0.5h0.5l1.2,3.5l0.7-3.5h0.4h0.4l-0.9,5h-0.5h-0.5
		l-1.2-3.6L676.6,159.6L676.6,159.6z"/>
	<path id="path2938" class="st1" d="M680.3,159.6l0.9-5h0.5h0.5l-0.4,2.1l2.1-2.1h0.6h0.6l-2.2,2.1l1.4,2.9h-0.6H683l-0.9-2.2
		l-0.6,0.5l-0.3,1.6h-0.5H680.3L680.3,159.6z"/>
	<path id="path2940" class="st1" d="M687.9,155.9l-0.4,2.3c0,0.2,0,0.4,0,0.5c0.1,0.1,0.2,0.2,0.4,0.2c0.2,0,0.4-0.1,0.6-0.2
		c0.2-0.2,0.3-0.4,0.3-0.6l0.4-2.1h0.4h0.4l-0.7,3.7h-0.4h-0.4l0.1-0.5c0,0.1-0.1,0.1-0.1,0.2c-0.3,0.3-0.6,0.5-1,0.5
		c-0.4,0-0.6-0.1-0.8-0.4c-0.1-0.2-0.2-0.4-0.2-0.6c0-0.1,0-0.3,0-0.4l0.4-2.4h0.4L687.9,155.9L687.9,155.9z"/>
	<path id="path2942" class="st1" d="M690.8,155.9L690.8,155.9h0.4h0.4l-0.1,0.5l0.1-0.1c0.3-0.4,0.7-0.6,1.1-0.6
		c0.3,0,0.6,0.1,0.8,0.3c0.2,0.2,0.3,0.5,0.3,1c0,0.1,0,0.2,0,0.3c0,0.1,0,0.2,0,0.3c-0.1,0.6-0.3,1-0.7,1.4
		c-0.3,0.4-0.7,0.6-1.1,0.6c-0.4,0-0.7-0.2-0.8-0.5l0,0l-0.3,1.9h-0.4h-0.4L690.8,155.9z M691.8,158.9c0.2,0,0.4-0.1,0.6-0.3
		c0.2-0.2,0.3-0.5,0.3-0.8c0-0.1,0-0.1,0-0.2c0-0.1,0-0.1,0-0.2c0-0.2,0-0.4-0.1-0.5c-0.1-0.1-0.2-0.2-0.4-0.2
		c-0.2,0-0.4,0.1-0.6,0.3c-0.2,0.2-0.3,0.5-0.3,0.8h0c-0.1,0.4-0.1,0.7,0,0.9C691.4,158.8,691.6,158.9,691.8,158.9"/>
	<path id="path2944" class="st1" d="M695.4,159.7c-0.4,0-0.8-0.1-1-0.4c-0.2-0.3-0.4-0.6-0.4-1c0-0.1,0-0.2,0-0.3c0-0.1,0-0.2,0-0.3
		c0.1-0.6,0.4-1.1,0.7-1.4c0.4-0.4,0.8-0.5,1.3-0.5c0.4,0,0.8,0.1,1,0.4c0.2,0.3,0.4,0.6,0.4,1c0,0.1,0,0.2,0,0.3c0,0.1,0,0.2,0,0.3
		c-0.1,0.6-0.3,1.1-0.7,1.4C696.4,159.6,695.9,159.7,695.4,159.7 M695.6,158.9c0.3,0,0.5-0.1,0.6-0.3c0.2-0.2,0.3-0.5,0.4-0.9
		c0-0.1,0-0.1,0-0.2c0-0.1,0-0.1,0-0.2c0-0.2-0.1-0.4-0.2-0.5c-0.1-0.1-0.3-0.2-0.5-0.2c-0.3,0-0.5,0.1-0.6,0.3
		c-0.2,0.2-0.3,0.5-0.4,0.9c0,0.1,0,0.1,0,0.2c0,0.1,0,0.1,0,0.2c0,0.2,0.1,0.4,0.2,0.5C695.2,158.9,695.4,158.9,695.6,158.9"/>
	<path id="path2946" class="st1" d="M697.7,159.6l0.7-3.7h0.4h0.4l-0.1,0.5l0.1-0.2c0.3-0.3,0.6-0.5,1-0.5c0.4,0,0.6,0.1,0.8,0.3
		c0.2,0.2,0.2,0.5,0.1,0.9l-0.5,2.5h-0.4h-0.4l0.4-2.3c0-0.2,0-0.4,0-0.5c-0.1-0.1-0.2-0.2-0.4-0.2c-0.2,0-0.4,0.1-0.6,0.2
		c-0.2,0.2-0.3,0.4-0.3,0.6l-0.4,2.1h-0.4C698.2,159.6,697.7,159.6,697.7,159.6z"/>
	<path id="path2948" class="st1" d="M702.2,158.3l0.2-2.4l0.2-1.2h0.5h0.5l-0.2,1.2l-0.7,2.4h-0.2H702.2z M701.9,158.7h0.9l-0.2,1
		h-0.9L701.9,158.7z"/>
	<path id="path2950" class="st2" d="M557.5,136.7h5.8V159h-5.8v-5.5c-5,1.9-9.8,2-14.1-2.3c-1.8-1.9-2.8-4.5-2.4-9
		c0.1-0.7-0.3-3.5-1.1-5.2h5.1c2.4,3.8-0.7,8.3,2.9,11.5c5,3.3,9.3-0.6,9.5-4.2V136.7z M551.8,139.1c2.7,0,4.9,2.2,4.9,4.9
		c0,2.7-2.2,4.9-4.9,4.9c-2.7,0-4.9-2.2-4.9-4.9C546.9,141.3,549.1,139.1,551.8,139.1"/>
	<path id="path2952" class="st3" d="M571.6,143.8c2.2,0,4,1.8,4,4.1c0,2.8-2.7,4.5-5.2,3.7v-1.9c1.4,0.8,3.2,0,3.2-1.7
		c0-1.2-1-2.2-2.1-2.2c-1.2,0-2.1,1-2.1,2.2c0,2.5-0.1,5-0.1,7.5h-1.7v-7.7l0-0.4C567.7,145.5,569.5,143.8,571.6,143.8"/>
	<path id="path2954" class="st3" d="M576.2,144.2h1.8v4c-0.1,2.4,3.5,2.5,3.5,0v-4h1.8v4.1c0.2,5.1-7.2,4.8-7,0V144.2z"/>
	<path id="path2956" class="st3" d="M584.2,151.8h1.8v-4c-0.1-2.4,3.5-2.5,3.5,0v4h1.8v-4.1c0.2-5.1-7.3-4.8-7,0V151.8z"/>
	<path id="path2958" class="st3" d="M608.5,152c2.2,0,4-1.8,4-4.1c0-2.8-2.7-4.5-5.2-3.7v1.9c1.4-0.8,3.2,0,3.2,1.7
		c0,1.2-1,2.2-2.1,2.2c-1.2,0-2.1-1-2.1-2.2c0-2.5-0.1-5-0.1-7.5h-1.7v7.7l0,0.4C604.5,150.4,606.3,152,608.5,152"/>
	<path id="path2960" class="st3" d="M591.6,146v-1.8h3.5v7.4c0,2.3-1.6,4.1-3.8,4.3v-1.7c1.1-0.5,2-1.1,2-2.6V146
		C593.3,146,591.6,146,591.6,146z"/>
	<path id="path2962" class="st3" d="M595.8,148.5c-0.2-2.2,1.4-3.7,2.9-4.2c2.1-0.6,4.8,0.5,4.9,3.5v3.8H602l0-3.9
		c-0.1-1.8-2.8-2.5-3.9-0.8c-0.5,0.9-0.6,2.3,0.7,3c0.6,0.2,1.3,0.3,2.1,0.2v1.7c-1.3,0.4-2.7,0.3-4-0.9
		C596.2,150.1,595.9,149.4,595.8,148.5"/>
	<path id="path2964" class="st3" d="M615.2,151.8h1.8v-4c-0.1-2.4,3.5-2.5,3.5,0v4h1.8v-4.1c0.2-5.1-7.3-4.8-7,0V151.8z"/>
	<path id="path2966" class="st3" d="M623,148.5c-0.2-2.2,1.4-3.7,2.9-4.2c2.1-0.6,4.8,0.5,4.9,3.5v3.8h-1.6l0-3.9
		c-0.1-1.8-2.8-2.5-3.9-0.8c-0.5,0.9-0.6,2.3,0.7,3c0.6,0.2,1.3,0.3,2.1,0.2v1.7c-1.3,0.4-2.7,0.3-4-0.9
		C623.4,150.1,623.1,149.4,623,148.5"/>
	<path id="path2968" class="st3" d="M647.9,151.8h1.8v-4c-0.1-2.4,3.5-2.5,3.5,0v4h1.8v-4.1c0.2-5.1-7.3-4.8-7,0V151.8z"/>
	<path id="path2970" class="st3" d="M655.7,148.5c-0.2-2.2,1.4-3.7,2.9-4.2c2.1-0.6,4.8,0.5,4.9,3.5v3.8h-1.6l0-3.9
		c-0.1-1.8-2.8-2.5-3.9-0.8c-0.5,0.9-0.6,2.3,0.7,3c0.6,0.2,1.3,0.3,2.1,0.2v1.7c-1.3,0.4-2.7,0.3-4-0.9
		C656.2,150.1,655.8,149.4,655.7,148.5"/>
	<path id="path2972" class="st3" d="M637.7,140.5c0.8,0,1.4,0.6,1.4,1.4c0,0.8-0.6,1.4-1.4,1.4c-0.8,0-1.4-0.6-1.4-1.4
		C636.3,141.1,636.9,140.5,637.7,140.5"/>
	<path id="path2974" class="st3" d="M636.8,144.2h2v7.5h-2V144.2z"/>
	<path id="path2976" class="st3" d="M631.8,141.6h1.9v2.6h2.3v1.8h-2.3v1.2c-0.1,2.2,0.6,2.7,2.2,3.1l0,1.5c-3,0.3-4.1-1.6-4.1-4.6
		L631.8,141.6L631.8,141.6z"/>
	<path id="path2978" class="st3" d="M643.3,144.2c2.2,0,3.9,1.8,3.9,3.9c0,2.2-1.8,3.9-3.9,3.9c-2.2,0-3.9-1.8-3.9-3.9
		C639.4,146,641.2,144.2,643.3,144.2 M643.3,146.1c1.1,0,2,0.9,2,2c0,1.1-0.9,2-2,2c-1.1,0-2-0.9-2-2
		C641.3,147,642.2,146.1,643.3,146.1"/>
	<path id="path2980" class="st3" d="M680.8,148.5c-0.2-2.2,1.4-3.7,2.9-4.2c2.1-0.6,4.8,0.5,4.9,3.5v3.8H687l0-3.9
		c-0.1-1.8-2.8-2.5-3.9-0.8c-0.5,0.9-0.6,2.3,0.7,3c0.6,0.2,1.3,0.3,2.1,0.2v1.7c-1.3,0.4-2.7,0.3-4-0.9
		C681.2,150.1,680.9,149.4,680.8,148.5"/>
	<path id="path2982" class="st3" d="M689.6,151.8h1.8v-4c-0.1-2.4,3.5-2.5,3.5,0v4h1.8v-4.1c0.2-5.1-7.3-4.8-7,0V151.8z"/>
	<path id="path2984" class="st3" d="M676.2,152c2.2,0,4-1.8,4-4.1c0-2.8-2.7-4.5-5.2-3.7v1.9c1.4-0.8,3.2,0,3.2,1.7
		c0,1.2-1,2.2-2.1,2.2c-1.2,0-2.1-1-2.1-2.2c0-2.5-0.1-5-0.1-7.5h-1.7v7.7l0,0.4C672.3,150.4,674.1,152,676.2,152"/>
	<path id="path2986" class="st3" d="M664.5,140.4h1.7v6.4c-0.1,2.6,1,3.2,2.8,3.4l0,1.7c-3.4,0.3-4.6-1.7-4.6-5.1V140.4z"/>
	<path id="path2988" class="st3" d="M697.5,140.3h1.9v5.9c0.6-1.5,1.9-2.6,3.5-2.6c0.1,0,0.2,0,0.3,0v1.9c-1.3,0.3-2.2,1.3-2.2,2.5
		c0,1.2,0.9,2.2,2.2,2.5v1.6c-0.1,0-0.2,0-0.3,0c-1.6,0-2.9-1.1-3.5-2.6v2.3h-1.9C697.5,151.8,697.5,140.3,697.5,140.3z"/>
</g>
</svg>
