<?xml version="1.0" encoding="utf-8"?>
<!-- Generator: Adobe Illustrator 26.0.1, SVG Export Plug-In . SVG Version: 6.00 Build 0)  -->
<svg version="1.1" id="Layer_1" xmlns="http://www.w3.org/2000/svg" xmlns:xlink="http://www.w3.org/1999/xlink" x="0px" y="0px"
	 viewBox="0 0 202 120" style="enable-background:new 0 0 202 120;" xml:space="preserve">
<style type="text/css">
	.st0{fill:#292075;}
	.st1{fill:#00B5EF;}
</style>
<g id="layer1" transform="translate(-33.783483,-175.57671)">
	<g id="g9996" transform="translate(0.13229192,-0.13228808)">
		<path id="path2868" class="st0" d="M149.8,235.7c-3-2.5-6.9-4.1-10.4-5.6c-4.8-2-8.9-3.7-8.9-6.8c0-1.4,0.6-2.6,1.8-3.6
			c1.2-1,3-1.5,4.9-1.5c6,0,10.7,4.2,10.7,4.3l1.2,1.1l5.3-9.9l-0.6-0.6c-0.2-0.2-5.8-6-16.5-6c-5.1,0-9.9,1.6-13.3,4.6
			c-3.5,3-5.4,7.2-5.4,11.8c0,4.4,1.7,8,5.3,11c3,2.5,6.7,4.1,10.3,5.6c4.9,2.1,9.1,3.9,9.1,7.2c0,2.5-1.7,5.1-6.4,5.1
			c-6.7,0-12.1-5.1-12.2-5.2l-1-1l-6.6,9.1l0.7,0.7c0.1,0.1,1.8,1.9,5,3.8c2.9,1.7,7.7,3.7,14,3.7c5.5,0,10.2-1.7,13.6-4.9
			c3.2-3,4.9-7.1,4.9-11.7C155.1,242.4,153.4,238.6,149.8,235.7"/>
		<path id="path2870" class="st0" d="M205.2,262.7h12.3v-54.9h-12.3V262.7z"/>
		<path id="path2874" class="st0" d="M181.2,252.5h-9.4v-34.4h8.3c3.7,0,5.8,2.1,5.8,5.7c0,3.6-1.9,5.5-5.7,5.5h-2.8v10.1h3.8
			c2.1,0,3.8,0.6,5,1.9c1.3,1.3,1.8,2.6,1.8,4.4C188,249.9,185.4,252.5,181.2,252.5 M197.5,238.1c-1.2-1.9-2.9-3.4-4.9-4.5
			c3.2-2.6,5-6.5,5-11c0-4.6-1.7-8.3-5-11c-3.1-2.5-7.4-3.8-12.4-3.8h-20v54.9h20.2c5.4,0,10-1.4,13.4-3.9c3.9-2.9,5.9-7.3,5.9-12.5
			C199.8,243.3,199,240.4,197.5,238.1"/>
		<path id="path2878" class="st1" d="M80.2,206.8c-15.7,0-28.4,12.7-28.4,28.5c0,14.7,11.2,26.9,25.5,28.3v-20.7
			c-3.1-1.2-5.3-4.2-5.3-7.6c0-4.5,3.7-8.2,8.2-8.2c4.5,0,8.2,3.7,8.2,8.2c0,3.5-2.2,6.5-5.3,7.6v20.7c14.3-1.5,25.5-13.6,25.5-28.3
			C108.6,219.6,95.9,206.8,80.2,206.8"/>
	</g>
</g>
</svg>
